<svg width="23" height="32" viewBox="0 0 23 32" fill="none" xmlns="http://www.w3.org/2000/svg">
<path d="M21.9979 8.93653C21.9979 10.0799 21.7593 11.1782 21.2822 12.2313C20.805 13.2844 20.1846 14.3075 19.4212 15.3004C18.6577 16.2633 17.7988 17.1961 16.8444 18.0987C15.89 19.0014 14.9516 19.859 14.029 20.6714C13.5519 21.0926 13.027 21.574 12.4544 22.1157C11.9136 22.6272 11.3887 23.1537 10.8797 23.6953C10.3707 24.237 9.90941 24.7485 9.49585 25.2299C9.11411 25.6812 8.87552 26.0574 8.78008 26.3582H23V32H0.954357C0.890733 31.669 0.858921 31.2478 0.858921 30.7362C0.858921 30.2247 0.858921 29.8637 0.858921 29.653C0.858921 28.2087 1.09751 26.8848 1.57469 25.6812C2.08368 24.4777 2.73582 23.3644 3.53112 22.3413C4.32642 21.2882 5.21715 20.3103 6.20332 19.4076C7.2213 18.5049 8.22337 17.6023 9.20954 16.6996C9.97303 16.0075 10.6888 15.3606 11.3568 14.7588C12.0249 14.1269 12.6134 13.5252 13.1224 12.9535C13.6314 12.3517 14.029 11.7649 14.3154 11.1932C14.6017 10.5914 14.7448 9.98966 14.7448 9.38787C14.7448 8.06394 14.3472 7.13117 13.5519 6.58956C12.7566 6.04796 11.7704 5.77715 10.5934 5.77715C9.73444 5.77715 8.92324 5.91255 8.15975 6.18336C7.42808 6.42407 6.74412 6.72497 6.10788 7.08604C5.50346 7.41702 4.97856 7.76305 4.5332 8.12412C4.08783 8.4551 3.7538 8.72591 3.53112 8.93653L0 4.2426C1.39972 3.00893 3.02213 2.00094 4.86722 1.21862C6.74412 0.406206 8.74827 0 10.8797 0C12.8202 0 14.4903 0.210625 15.89 0.631876C17.2898 1.05313 18.435 1.65491 19.3257 2.43724C20.2483 3.18947 20.9163 4.12224 21.3299 5.23554C21.7752 6.31876 21.9979 7.55242 21.9979 8.93653Z" fill="#FCD500"/>
</svg>
