<svg width="22" height="35" viewBox="0 0 22 35" fill="none" xmlns="http://www.w3.org/2000/svg">
<path d="M9.27766 35C8.45094 35 7.57829 34.9355 6.65971 34.8066C5.74113 34.7099 4.85317 34.5649 3.99582 34.3715C3.13848 34.1782 2.35769 33.9687 1.65345 33.7431C0.9492 33.5175 0.398052 33.308 0 33.1146L1.33194 27.1202C2.12804 27.4747 3.13848 27.8614 4.36326 28.2804C5.61865 28.6671 7.16493 28.8605 9.00209 28.8605C11.1148 28.8605 12.6611 28.4415 13.6409 27.6036C14.6207 26.7657 15.1106 25.6377 15.1106 24.2196C15.1106 23.3494 14.9269 22.6243 14.5595 22.0442C14.2227 21.4319 13.7481 20.9484 13.1357 20.5939C12.5233 20.2072 11.7884 19.9494 10.9311 19.8204C10.1044 19.6593 9.21642 19.5787 8.26722 19.5787H5.60334V13.7776H8.63466C9.30828 13.7776 9.95129 13.7132 10.5637 13.5843C11.2067 13.4553 11.7731 13.2459 12.263 12.9558C12.753 12.6335 13.1357 12.2146 13.4113 11.6989C13.7175 11.151 13.8706 10.4742 13.8706 9.66851C13.8706 9.05617 13.7481 8.5244 13.5031 8.0732C13.2582 7.62201 12.9367 7.25138 12.5386 6.96133C12.1712 6.67127 11.7272 6.46179 11.2067 6.33287C10.7168 6.17173 10.2116 6.09116 9.69102 6.09116C8.37439 6.09116 7.14962 6.30065 6.0167 6.71961C4.91441 7.13858 3.90397 7.65424 2.98539 8.26657L0.551148 2.99724C1.04106 2.67496 1.60752 2.33656 2.25052 1.98204C2.92415 1.62753 3.65901 1.30525 4.45512 1.01519C5.25122 0.725139 6.09325 0.483427 6.98121 0.290057C7.89979 0.0966858 8.8643 0 9.87474 0C11.7425 0 13.35 0.241713 14.6973 0.72514C16.0752 1.17634 17.2081 1.83702 18.096 2.70718C18.984 3.54512 19.6423 4.5442 20.071 5.70442C20.4997 6.83241 20.714 8.0732 20.714 9.4268C20.714 10.7482 20.3619 12.0373 19.6576 13.2942C18.9534 14.5189 18.0042 15.4535 16.81 16.0981C18.4635 16.8071 19.7342 17.8706 20.6221 19.2887C21.5407 20.6745 22 22.3504 22 24.3163C22 25.8633 21.755 27.2974 21.2651 28.6188C20.7752 29.9079 20.0097 31.0359 18.9687 32.0028C17.9276 32.9374 16.5957 33.6786 14.9729 34.2265C13.3807 34.7422 11.4823 35 9.27766 35Z" fill="#FCD500"/>
</svg>
