<svg width="55" height="72" viewBox="0 0 55 72" fill="none" xmlns="http://www.w3.org/2000/svg">
<path d="M24.9556 21.1214C25.643 21.1214 26.193 20.5665 26.193 19.8728V17.5491L27.4992 17.6185C27.843 17.6185 28.1523 17.5145 28.393 17.3064C28.6336 17.0636 28.7711 16.7861 28.8055 16.4393C28.8055 16.0925 28.7023 15.7803 28.4961 15.5376C28.2898 15.2948 27.9805 15.1561 27.6367 15.1214L25.0587 15.0173C24.7149 14.9827 24.4056 15.1214 24.1306 15.3642C23.89 15.6069 23.7525 15.9191 23.7525 16.2659V19.9075C23.7525 20.2543 23.89 20.5665 24.1306 20.8092C24.3025 20.9827 24.6118 21.1214 24.9556 21.1214Z" fill="#FCD500"/>
<path d="M53.7954 0H1.23747C0.549985 0 0 0.554913 0 1.24855V70.7514C0 71.4451 0.549985 72 1.23747 72H53.761C54.4485 72 54.9985 71.4451 54.9985 70.7514V1.24855C55.0328 0.554913 54.4829 0 53.7954 0ZM52.5235 69.5029H2.47493V53.896C3.50615 51.2948 4.60612 50.2543 6.53107 48.4509C7.18418 47.8613 9.006 46.8555 9.62473 46.1965C9.62473 46.1965 10.6216 44.9827 10.9309 43.8382C12.2372 38.7052 14.4027 37.1445 16.1558 36.1734C16.1558 36.2775 16.1214 36.3468 16.1214 36.4509C16.1214 36.7283 16.1902 37.0058 16.362 37.2139C17.2558 38.4624 18.837 39.6763 20.7276 40.5087C21.7931 40.9942 28.2898 42.6936 30.3867 40.8555C30.9366 40.3699 31.5554 40.0231 32.2085 39.6416C37.2271 36.5549 42.2113 35.237 42.4176 35.1676C42.5551 35.3757 42.6926 35.5838 42.8301 35.7919C41.2145 36.1734 37.9489 37.1098 34.5803 39.2254C30.5242 41.7572 25.4024 45.2254 24.165 53.8613C24.1306 54.1387 24.0618 54.3121 24.0275 54.7283L19.112 53.0636C17.3933 52.578 16.2246 52.4393 16.1902 52.4393C16.0871 52.4393 16.0183 52.4393 15.9152 52.4393C15.8808 52.3699 15.8464 52.3353 15.8121 52.2659C15.159 51.3295 14.7465 50.3931 14.5058 49.422C13.6465 45.7457 16.0527 43.5607 16.1902 43.4566C16.637 43.0751 16.6714 42.4162 16.2933 42C15.9152 41.5491 15.2621 41.5145 14.8496 41.896C14.7121 42.0347 11.3434 44.9827 12.5122 49.9422C12.7871 51.1561 13.3371 52.3699 14.1277 53.4798C14.1621 53.5145 14.1621 53.5144 14.1965 53.5491C13.784 54 13.4746 54.5202 13.3028 55.2139C13.0621 56.2197 13.1309 57.3295 13.4403 58.3353C13.1653 58.4046 12.9246 58.474 12.6496 58.5087C10.2435 58.8555 8.59351 57.0867 8.52476 56.9827C8.14665 56.5665 7.49354 56.5318 7.08105 56.9133C6.66857 57.2948 6.63419 57.9538 7.01231 58.3699C7.11543 58.474 9.04037 60.6243 12.0653 60.6243C12.3747 60.6243 12.684 60.5896 12.9934 60.5549C13.8184 60.4509 14.6433 60.1387 15.4683 59.6879C16.1902 59.6879 16.8089 59.4451 16.8089 59.4451C16.9464 59.7919 18.3214 61.3873 18.3214 61.3873C18.6307 61.6994 18.9401 61.9769 19.2495 62.2543L16.7745 62.9827C16.3964 63.0867 16.1214 63.3642 15.9496 63.7457L14.7121 66.9364C14.5746 67.2486 14.609 67.5954 14.7465 67.9075C14.884 68.2197 15.1246 68.4624 15.4339 68.5665C15.5714 68.6358 15.7433 68.6705 15.8808 68.6705C16.3964 68.6705 16.8433 68.3584 17.0495 67.8728L18.0807 65.2717L21.7931 64.1965C22.4806 64.6127 23.1337 64.9249 23.7868 65.2023C23.9243 65.2717 24.0962 65.2717 24.2337 65.2717C24.7493 65.2717 25.1962 64.9595 25.4024 64.474C25.5055 64.1618 25.5055 63.815 25.368 63.5029C25.2306 63.1908 24.9899 62.948 24.6806 62.8439C20.7276 61.3179 18.0807 57.7803 18.0464 57.7457C17.737 57.2948 17.187 57.0867 16.6714 57.2601L15.7777 57.5376C15.6058 56.948 15.5714 56.3237 15.7089 55.8035C15.8121 55.3526 16.0183 54.9711 16.3277 54.6936C17.9433 54.9711 24.3368 56.0809 29.0461 61.4566C29.2867 61.7341 29.6304 61.8728 29.9742 61.8728C30.2835 61.8728 30.5585 61.7688 30.7991 61.5607C31.3148 61.1098 31.3491 60.659 30.9023 60.1387C30.7304 59.9653 30.5585 59.7572 30.3867 59.5838L36.4365 58.474C36.7115 58.4393 39.0833 58.2312 40.5614 60.1734C40.802 60.4855 41.1457 60.659 41.5582 60.659C41.8332 60.659 42.1082 60.5549 42.3144 60.3815C42.5894 60.1734 42.7269 59.8613 42.7957 59.5491C42.8301 59.2023 42.7613 58.8902 42.5551 58.6127C40.1145 55.4566 36.2646 55.9769 36.1271 55.9769L28.118 57.4335C27.568 56.9827 27.018 56.5665 26.468 56.185V56.1156C26.468 55.6994 26.468 55.2832 26.5024 55.0405C26.5368 54.5896 26.6055 54.4509 26.6743 54C27.568 47.9306 30.6616 44.6012 35.8521 41.341C40.0114 38.7399 44.0675 38.0462 44.2394 38.0462C49.1549 46.8902 52.2486 57.2948 52.5235 61.526V69.5029ZM25.7462 29.3064L25.6087 27.7803H25.8837C27.4305 27.815 28.9429 27.3295 30.2148 26.4277L30.5929 37.6647C29.8367 38.1156 29.1492 38.6012 28.4617 39.1214C28.2555 39.1561 28.0492 39.1561 27.9117 39.1561H27.7399C23.4431 39.5376 20.0401 37.5954 18.6995 36.104C19.2495 34.6127 22.3088 32.1156 25.0931 30.4855C25.5399 30.2428 25.7805 29.7919 25.7462 29.3064ZM24.7493 7.87283C24.2681 7.87283 23.7525 7.90751 23.2369 7.9422C22.9962 7.97688 22.7556 8.01156 22.515 8.04624C23.5806 7.21387 24.9556 6.79769 26.6055 6.79769C28.668 6.79769 30.4898 7.63006 32.0022 9.26012C33.4459 10.8208 34.3397 12.8324 34.6147 15.052C35.0615 18.8324 35.9209 25.6647 36.4021 28.7861C36.4365 29.0636 36.6084 29.341 36.8146 29.5491L37.124 29.8266C37.9489 30.5549 39.3927 31.8035 40.6301 33.0173C39.1177 33.5029 36.2302 34.5087 32.9991 36.2081L32.2085 13.422C32.2085 13.3873 32.2085 13.3179 32.2085 13.2832C31.7272 9.81503 29.0117 7.87283 24.7493 7.87283ZM23.5118 10.4393C28.1867 9.98844 29.5273 11.9306 29.8023 13.6301L30.146 23.2717L29.1836 24.104C28.2898 24.8671 27.1555 25.2832 25.9868 25.2486H25.7462C24.4743 25.2139 23.2369 24.659 22.3775 23.7225C21.9994 23.341 21.7244 22.8902 21.5182 22.3699C21.3119 21.8844 21.1744 21.3642 21.14 20.8092L20.8994 17.7919H21.5182C22.2056 17.7919 22.7556 17.2023 22.7556 16.5434C22.7556 15.8497 22.2056 15.2948 21.5182 15.2948H20.6932L20.4526 12.0347C20.9338 11.5491 22.1713 10.578 23.5118 10.4393ZM20.5213 25.4566C21.2432 26.2197 22.1025 26.8439 23.0994 27.2254L23.2025 28.7514C22.515 29.1676 21.3807 29.9306 20.2463 30.8324C20.0401 31.0058 19.8338 31.1792 19.6276 31.3526C19.662 30.3121 19.7994 29.5491 20.0401 29.2023C20.2463 28.8902 20.2807 28.5434 20.1776 28.1965C20.0744 27.8497 19.8338 27.5723 19.5245 27.3988C18.2182 26.7399 17.2214 20.1156 17.9433 16.9942C18.012 16.6821 18.1151 16.3699 18.1839 16.0578L18.562 21.052C18.6307 21.8844 18.837 22.6821 19.1463 23.4104C19.5245 24.1734 19.9713 24.8324 20.5213 25.4566ZM52.5235 50.6012C51.0111 45.4335 48.2955 39.2254 44.3081 33.4682C43.0707 31.6647 40.3208 29.2717 38.8083 27.9884C38.5677 26.289 38.1896 23.6185 37.7427 20.0116L37.4333 17.5145C37.2958 16.5087 37.1927 15.6069 37.0896 14.8092C36.7459 12.0347 35.6115 9.53757 33.8241 7.59538C31.796 5.44509 29.3898 4.33526 26.6055 4.33526C20.6588 4.33526 18.287 8.80925 17.8745 11.2717C17.2214 12.1734 16.0527 13.9422 15.5027 16.4393C15.4339 16.7514 15.3652 17.0983 15.3308 17.5145L15.2277 20.0116C15.2621 23.0636 15.8808 27.052 17.462 28.8902C17.0839 30.1734 17.0495 31.8382 17.1183 33.1214C11.3091 34.4393 9.07475 40.7514 8.35289 43.8382C7.73416 44.6012 6.2217 45.3642 5.2936 46.2312C4.15926 47.2717 3.5749 47.7919 2.47493 49.1445V2.49711H52.5235V50.6012Z" fill="#FCD500"/>
</svg>
