<svg width="68" height="68" viewBox="0 0 68 68" fill="none" xmlns="http://www.w3.org/2000/svg">
<path d="M64.7623 4.4623H61.4123V2.2377C61.4123 1.00762 60.4178 0 59.1746 0H7.8123C6.58223 0 5.57461 0.994531 5.57461 2.2377V4.47539H2.2377C0.994531 4.46231 0 5.46992 0 6.7V8.9377C0 10.1678 0.994531 11.1754 2.2377 11.1754H5.5877V13.4131C5.5877 14.6432 6.58223 15.6508 7.82539 15.6508V54.7385C7.82539 57.6174 5.88867 62.8256 1.74043 64.9062C1.26934 65.1287 1.0207 65.6521 1.13848 66.1625C1.25625 66.6729 1.71426 67.0262 2.2377 67.0262H64.7754C65.2988 67.0262 65.7568 66.6729 65.8746 66.1625C65.9924 65.6521 65.7437 65.1287 65.2727 64.9062C61.1244 62.8387 59.1877 57.6174 59.1877 54.7385V15.6377C60.4178 15.6377 61.4254 14.6432 61.4254 13.4V11.1623H64.7754C66.0055 11.1623 67.0131 10.1678 67.0131 8.92461V6.7C67 5.46992 66.0055 4.4623 64.7623 4.4623ZM2.2377 8.9377V6.7H5.5877V8.9377H2.2377ZM61.3338 64.7623H5.66621C8.30957 62.0666 9.87988 58.4941 10.05 54.7123V15.6377H56.95V54.7254C57.1332 58.4941 58.6904 62.0666 61.3338 64.7623ZM7.8123 13.4V2.2377H59.1746V13.4H7.8123ZM61.4123 8.9377V6.7H64.7623V8.9377H61.4123Z" fill="#FCD500"/>
<path d="M52.4875 52.4875H21.2121C20.5971 52.4875 20.0998 52.9848 20.0998 53.5998C20.0998 54.2149 20.5971 54.7121 21.2121 54.7121H52.4744C53.0895 54.7121 53.5867 54.2149 53.5867 53.5998C53.5998 52.9848 53.1026 52.4875 52.4875 52.4875Z" fill="#FCD500"/>
<path d="M16.7499 52.4875H14.5122C13.8971 52.4875 13.3999 52.9848 13.3999 53.5998C13.3999 54.2149 13.8971 54.7121 14.5122 54.7121H16.7499C17.3649 54.7121 17.8622 54.2149 17.8622 53.5998C17.8622 52.9848 17.3649 52.4875 16.7499 52.4875Z" fill="#FCD500"/>
</svg>
