<svg width="63" height="73" viewBox="0 0 63 73" fill="none" xmlns="http://www.w3.org/2000/svg">
<path d="M36.2902 55.1354C33.6759 57.7669 29.4048 57.7669 26.7537 55.1354C26.2014 54.5794 25.3545 54.5794 24.8022 55.1354C24.2499 55.6913 24.2499 56.5438 24.8022 57.0997C26.6432 58.9529 29.0734 59.8795 31.5035 59.8795C33.9337 59.8795 36.3638 58.9529 38.2048 57.0997C38.7571 56.5438 38.7571 55.6913 38.2048 55.1354C37.6893 54.6165 36.8425 54.6165 36.2902 55.1354Z" fill="#FCD500"/>
<path d="M62.6536 68.8859C59.4134 65.2908 59.3029 56.1361 59.6711 46.6478C61.0703 45.3135 61.954 43.4233 61.954 41.3477C61.954 39.5316 61.2912 37.8266 60.1498 36.5665C60.6284 26.8929 60.8494 20.4438 57.8301 14.4766C55.7682 10.3996 52.3807 6.98974 47.8518 4.35823C42.5496 1.28195 36.5111 -0.200596 30.3621 0.0217857C24.9495 0.207104 19.9419 2.72743 16.4808 6.98974C11.9887 7.24919 7.93848 9.69538 5.72925 13.5129C5.54515 13.8465 5.36105 14.1801 5.17695 14.5136C2.15767 20.4438 2.41542 26.93 2.85726 36.5665C1.75265 37.8637 1.05306 39.5316 1.05306 41.3477C1.05306 43.4233 1.93675 45.3135 3.33593 46.6478C3.70413 56.1361 3.59367 65.2908 0.353476 68.8859C0.0589126 69.2195 -0.0515485 69.7013 0.0220922 70.1461C0.132553 70.5909 0.463937 70.9615 0.868961 71.1098C4.51418 72.4811 8.01212 73 11.1787 73C14.4557 73 17.4013 72.4811 19.6842 71.851C23.6608 70.7762 26.4959 69.2566 27.4533 68.6636C28.742 68.8859 30.1043 68.9971 31.4667 68.9971C32.8291 68.9971 34.1914 68.8859 35.4801 68.6636C36.4375 69.2195 39.2726 70.7391 43.2492 71.851C46.3053 72.6664 49.1405 73 51.7179 73C55.9891 73 59.5238 72.1105 62.0644 71.1098C62.5063 70.9615 62.8008 70.5909 62.9113 70.1461C63.0954 69.7013 62.985 69.2195 62.6536 68.8859ZM56.1364 44.2387V37.0854C57.9406 37.6784 59.2293 39.3833 59.2293 41.3848C59.2293 43.3862 57.9037 45.1282 56.0995 45.6841C56.0995 45.2023 56.1364 44.7205 56.1364 44.2387ZM7.64391 15.7367C7.79119 15.4402 7.93847 15.1437 8.12258 14.8843C9.92678 11.7339 13.3879 9.76951 17.1804 9.73245C17.1804 9.73245 17.1804 9.73245 17.2172 9.73245C17.6222 9.73245 18.0273 9.51007 18.285 9.17649C21.2306 5.28482 25.6859 2.94981 30.4725 2.76449C36.0692 2.57917 41.6291 3.95053 46.4894 6.76736C50.5765 9.13943 53.5589 12.1416 55.3999 15.7367C57.8301 20.518 57.9037 25.7069 57.4987 34.6392C57.0569 34.4539 56.5782 34.3056 56.0995 34.2315V32.8231C56.0995 32.0447 55.4736 31.4517 54.7372 31.4517C54.0008 31.4517 53.3748 32.0818 53.3748 32.8231V35.9735C34.4123 36.1588 24.1394 26.967 21.4147 24.1131C21.0834 23.7795 20.6047 23.6313 20.1628 23.7054C19.721 23.7795 19.316 24.1131 19.1319 24.5579C17.1436 29.4132 13.6456 31.9706 8.1594 32.6007C7.45981 32.6748 6.94432 33.2678 6.94432 33.972V34.2315C6.46566 34.3427 5.98699 34.4539 5.54515 34.6392C5.14013 25.7069 5.21377 20.518 7.64391 15.7367ZM6.98114 45.6471C5.17695 45.0911 3.85141 43.3491 3.85141 41.3477C3.85141 39.3463 5.14013 37.6413 6.94432 37.0483V44.2016C6.9075 44.7205 6.94432 45.2023 6.98114 45.6471ZM3.59367 69.1083C6.06064 64.8831 6.46566 57.8781 6.1711 48.3156C6.5393 48.4268 6.9075 48.501 7.31253 48.5751C8.8958 57.4333 15.1553 64.6978 23.4399 67.6258C19.4264 69.3307 11.9151 71.6286 3.59367 69.1083ZM31.5403 66.2174C19.5001 66.2174 9.70585 56.3584 9.70585 44.2387V35.1951C14.8607 34.3427 18.5427 31.7853 20.8624 27.4118C22.8507 29.2279 26.0541 31.7482 30.583 33.935C37.3948 37.2336 45.0534 38.8644 53.4116 38.7532V44.2387C53.3748 56.3584 43.5806 66.2174 31.5403 66.2174ZM44.0961 69.1824C42.3287 68.7006 40.8191 68.1447 39.604 67.6258C47.8886 64.6978 54.1481 57.4704 55.7313 48.5751C56.1364 48.538 56.5046 48.4268 56.8728 48.3156C56.5782 57.8781 56.9832 64.8831 59.4502 69.1083C54.5899 70.5909 49.435 70.6279 44.0961 69.1824Z" fill="#FCD500"/>
<path d="M15.0816 40.1246C14.5293 40.6805 14.5293 41.533 15.0816 42.089C15.6339 42.6449 16.4808 42.6449 17.0331 42.089C17.9168 41.1994 19.3528 41.1994 20.2365 42.089C20.4942 42.3484 20.8624 42.4967 21.1938 42.4967C21.562 42.4967 21.8934 42.3484 22.1511 42.089C22.7034 41.533 22.7034 40.6805 22.1511 40.1246C20.1997 38.1602 17.0331 38.1602 15.0816 40.1246Z" fill="#FCD500"/>
<path d="M47.9622 42.089C48.5145 41.533 48.5145 40.6805 47.9622 40.1246C46.0107 38.1602 42.8074 38.1602 40.8559 40.1246C40.3036 40.6805 40.3036 41.533 40.8559 42.089C41.4082 42.6449 42.2551 42.6449 42.8074 42.089C43.6911 41.1994 45.1271 41.1994 46.0108 42.089C46.2685 42.3484 46.6367 42.4967 46.9681 42.4967C47.2995 42.4967 47.7045 42.3484 47.9622 42.089Z" fill="#FCD500"/>
</svg>
