<svg width="74" height="72" viewBox="0 0 74 72" fill="none" xmlns="http://www.w3.org/2000/svg">
<path d="M6.3321 33.8983H9.07031V8.98305H34.2276V6.27119H9.07031V0H6.3321V6.27119H0V8.98305H6.3321V33.8983Z" fill="#FCD500"/>
<path d="M74 63.0169H67.6679V38.1017H64.9297V63.0169H39.7382V65.7288H64.9297V72H67.6679V65.7288H74V63.0169Z" fill="#FCD500"/>
<path d="M64.9297 21.2203H67.6679V6.27119H52.5735V8.98305H64.9297V21.2203Z" fill="#FCD500"/>
<path d="M9.07031 49.9661H6.3321V64.8814H21.4265V62.1695H9.07031V49.9661Z" fill="#FCD500"/>
<path d="M44.8381 44.1695C47.4052 46.3729 49.0481 49.661 49.0481 53.2881H51.7863C51.7863 47.0847 47.8844 41.7627 42.408 39.5932C45.1119 37.8305 46.8918 34.7797 46.8918 31.322C46.8918 31.1186 46.8918 30.9492 46.8575 30.7458L51.5467 29.3898L49.3219 21.8644C48.0897 17.7288 43.7086 15.3559 39.4986 16.5424C36.8631 17.322 34.9463 19.322 34.1933 21.7288C29.9834 22.9492 26.8686 26.7797 26.8686 31.322C26.8686 34.7797 28.6485 37.7966 31.3525 39.5932C25.876 41.7627 21.9741 47.0847 21.9741 53.2881H24.7123C24.7123 49.7966 26.2183 46.678 28.58 44.4746L36.8973 50.7119L44.8381 44.1695ZM36.8973 24.1017C40.012 24.1017 42.6818 26.0678 43.7086 28.8136L43.1952 28.9492C41.8603 29.322 40.4912 29.1864 39.259 28.5424C38.0611 27.8983 37.1711 26.8136 36.7946 25.4915C36.6577 25.0169 36.5893 24.5763 36.5893 24.1017C36.692 24.1356 36.7946 24.1017 36.8973 24.1017ZM40.2858 19.1864C40.765 19.0508 41.2442 18.9831 41.7234 18.9831C43.9482 18.9831 46.0361 20.4407 46.6864 22.6441L48.124 27.5593L46.3099 28.1017C45.0093 24.3729 41.4838 21.6271 37.308 21.4237C37.9926 20.3729 39.0194 19.5593 40.2858 19.1864ZM29.6068 31.322C29.6068 28.4068 31.3525 25.8983 33.8511 24.7797C33.8853 25.2881 33.988 25.7966 34.1249 26.3051C34.7068 28.3051 36.0759 29.9661 37.9241 30.9831C39.0879 31.6271 40.3885 31.9322 41.6892 31.9322C42.4422 31.9322 43.1952 31.8305 43.914 31.6271L44.0851 31.5932C43.9482 35.4576 40.765 38.5763 36.8289 38.5763C32.8585 38.5085 29.6068 35.2881 29.6068 31.322ZM30.9075 42.7797C32.6873 41.7966 34.7068 41.2203 36.8973 41.2203C38.9167 41.2203 40.8335 41.7288 42.5106 42.5763L36.8631 47.2542L30.9075 42.7797Z" fill="#FCD500"/>
</svg>
