<svg width="18" height="20" viewBox="0 0 18 20" fill="none" xmlns="http://www.w3.org/2000/svg">
<path d="M7.35497 19.9999H0.501475C0.234022 19.9999 0 19.7896 0 19.5145V6.68279C0 6.42389 0.217306 6.19736 0.501475 6.19736H7.35497C7.62242 6.19736 7.85644 6.40771 7.85644 6.68279V19.5145C7.83972 19.7896 7.62242 19.9999 7.35497 19.9999Z" fill="#FCD500"/>
<path d="M16.5154 19.9999H9.66191C9.39445 19.9999 9.16043 19.7896 9.16043 19.5145V6.68279C9.16043 6.42389 9.37774 6.19736 9.66191 6.19736H16.5154C16.7829 6.19736 17.0169 6.40771 17.0169 6.68279V19.5145C17.0002 19.7896 16.7829 19.9999 16.5154 19.9999Z" fill="#FCD500"/>
<path d="M5.33251 0C6.71992 0 7.8566 1.08414 7.8566 2.44337V4.56311C7.8566 4.7411 7.70616 4.87055 7.539 4.87055H5.33251C3.9451 4.87055 2.80842 3.78641 2.80842 2.42718C2.80842 1.08414 3.9451 0 5.33251 0Z" fill="#FCD500"/>
<path d="M14.1919 2.44337C14.1919 3.78641 13.0719 4.88673 11.6678 4.88673H9.47803C9.29416 4.88673 9.16043 4.7411 9.16043 4.57929V2.44337C9.16043 1.08414 10.2804 0 11.6678 0C13.0719 0 14.1919 1.08414 14.1919 2.44337Z" fill="#FCD500"/>
</svg>
