<?xml version="1.0" encoding="utf-8"?>
<!-- Generator: Adobe Illustrator 24.0.0, SVG Export Plug-In . SVG Version: 6.00 Build 0)  -->
<svg version="1.1" id="Слой_1" xmlns="http://www.w3.org/2000/svg" xmlns:xlink="http://www.w3.org/1999/xlink" x="0px" y="0px"
	 viewBox="0 0 36 32.3" style="enable-background:new 0 0 36 32.3;" xml:space="preserve">
<style type="text/css">
	.st0{fill:#010202;}
	.st1{fill-rule:evenodd;clip-rule:evenodd;fill:#010202;}
</style>
<g>
	<path class="st0" d="M18,7c-0.4,0-0.7,0.3-0.7,0.7s0.3,0.7,0.7,0.7s0.7-0.3,0.7-0.7S18.4,7,18,7z"/>
	<path class="st0" d="M6.3,19.7C6.7,19.7,7,19.4,7,19c0-0.4-0.3-0.7-0.7-0.7S5.6,18.6,5.6,19C5.6,19.4,5.9,19.7,6.3,19.7z"/>
	<path class="st1" d="M23.6,0c-6.3,0-11.5,4.4-11.9,9.9C5.7,10.2,0,14.5,0,20.4c0,2.5,1,4.8,2.7,6.7c0.4,1.4-0.1,3-1.1,4
		c-0.2,0.2-0.3,0.5-0.2,0.8c0.1,0.3,0.4,0.4,0.6,0.4c2,0,3.9-0.8,5.4-2.2c1.4,0.5,3.2,0.8,4.9,0.8c6.3,0,11.5-4.4,11.9-9.9
		c1.5-0.1,3-0.3,4.2-0.8c1.4,1.4,3.4,2.2,5.4,2.2c0.3,0,0.5-0.2,0.6-0.4c0.1-0.3,0-0.6-0.2-0.8c-1.1-1.1-1.5-2.6-1.1-4
		C35,15.4,36,13,36,10.5C36,4.4,29.9,0,23.6,0z M12.4,29.5c-1.7,0-3.6-0.3-4.8-0.8c-0.3-0.1-0.6,0-0.8,0.2c-0.8,0.9-2,1.6-3.2,1.9
		c0.7-1.3,0.8-2.8,0.4-4.2c0-0.1-0.1-0.2-0.2-0.3c-1.6-1.6-2.5-3.7-2.5-5.9c0-5,5-9.1,11-9.1c5.6,0,10.5,3.9,10.5,9.1
		C22.9,25.4,18.2,29.5,12.4,29.5z M31.9,16.7c0-0.1,0.1-0.2,0.2-0.3c1.6-1.6,2.5-3.7,2.5-5.9c0-5-5-9.1-11-9.1
		c-5.6,0-10.1,3.7-10.5,8.5c1.8,0.1,3.6,0.6,5.2,1.4h11.3c0.4,0,0.7,0.3,0.7,0.7c0,0.4-0.3,0.7-0.7,0.7h-9.2c2.3,1.9,3.6,4.4,3.8,7
		c1.5-0.1,3-0.4,4.1-0.8c0.3-0.1,0.6,0,0.8,0.2c0.8,0.9,2,1.6,3.2,1.9C31.7,19.6,31.5,18.1,31.9,16.7z"/>
	<path class="st0" d="M18,18.3H9.1c-0.4,0-0.7,0.3-0.7,0.7c0,0.4,0.3,0.7,0.7,0.7H18c0.4,0,0.7-0.3,0.7-0.7
		C18.7,18.6,18.4,18.3,18,18.3z"/>
	<path class="st0" d="M18,22.5H6.3c-0.4,0-0.7,0.3-0.7,0.7c0,0.4,0.3,0.7,0.7,0.7H18c0.4,0,0.7-0.3,0.7-0.7
		C18.7,22.8,18.4,22.5,18,22.5z"/>
	<path class="st0" d="M29.7,7h-8.9c-0.4,0-0.7,0.3-0.7,0.7c0,0.4,0.3,0.7,0.7,0.7h8.9c0.4,0,0.7-0.3,0.7-0.7C30.4,7.3,30.1,7,29.7,7
		z"/>
</g>
</svg>
