<svg width="16" height="15" viewBox="0 0 16 15" fill="none" xmlns="http://www.w3.org/2000/svg">
<path d="M1 7.07537H15M6.31733 2.89447V2.11055C6.31733 1.52261 6.78849 1 7.46156 1H8.60579C9.21156 1 9.75003 1.45729 9.75003 2.11055V2.89447M12.5096 14H3.42308C2.07692 14 1 12.9548 1 11.6482V5.24623C1 3.93969 2.07692 2.89447 3.42308 2.89447H12.5096C13.8558 2.89447 14.9327 3.93969 14.9327 5.24623V11.5829C15 12.9548 13.8558 14 12.5096 14ZM8.60582 9.16583H7.39428C6.78851 9.16583 6.25005 8.70854 6.25005 8.05527V6.94472C6.25005 6.35678 6.7212 5.83417 7.39428 5.83417H8.53851C9.14428 5.83417 9.68274 6.29145 9.68274 6.94472V8.05527C9.68274 8.64321 9.21159 9.16583 8.60582 9.16583Z" stroke="#FCD500" stroke-miterlimit="10"/>
</svg>
