<svg width="21" height="22" viewBox="0 0 21 22" fill="none" xmlns="http://www.w3.org/2000/svg">
<path d="M11 6.5H9L9 12.5L15 12.5L15 10.5L11 10.5L11 6.5Z" fill="#FCD500"/>
<path fill-rule="evenodd" clip-rule="evenodd" d="M21 11C21 16.799 16.299 21.5 10.5 21.5C4.70101 21.5 0 16.799 0 11C0 5.20101 4.70101 0.5 10.5 0.5C16.299 0.5 21 5.20101 21 11ZM19 11C19 15.6944 15.1944 19.5 10.5 19.5C5.80558 19.5 2 15.6944 2 11C2 6.30558 5.80558 2.5 10.5 2.5C15.1944 2.5 19 6.30558 19 11Z" fill="#FCD500"/>
</svg>
