<svg width="60" height="60" viewBox="0 0 60 60" fill="none" xmlns="http://www.w3.org/2000/svg">
<path d="M25.9739 9.77041C26.2306 9.46839 26.593 9.28718 26.9857 9.28718H31.9539C32.3465 9.28718 32.7241 9.46839 32.9657 9.77041C33.2224 10.0724 33.313 10.4802 33.2375 10.8577L32.2106 16.0072C32.0898 16.6263 31.5462 17.0642 30.927 17.0642H28.0276C27.4085 17.0642 26.8649 16.6263 26.744 16.0072L25.7172 10.8577C25.6266 10.4651 25.7172 10.0724 25.9739 9.77041ZM32.4976 50.9662L30.5344 53.6844C30.2928 54.0166 29.9153 54.2129 29.4924 54.2129C29.0847 54.2129 28.6921 54.0166 28.4505 53.6844L26.4571 50.9662C25.838 50.1205 25.5209 49.0786 25.5813 48.0366L26.9555 20.5677C26.9857 19.8881 27.5595 19.3445 28.2391 19.3445H30.6854C31.365 19.3445 31.9388 19.873 31.969 20.5677L33.3432 48.0668C33.4036 49.0937 33.1016 50.1205 32.4976 50.9662ZM53.5334 12.398C48.1876 4.89276 39.4139 0 29.5075 0C19.5861 0 10.8275 4.89276 5.4666 12.3829L12.7302 10.4047L12.7755 10.3896L16.2337 9.5741C16.5357 9.49859 16.8679 9.55899 17.1246 9.74021C17.3814 9.92142 17.5626 10.1932 17.6079 10.5104L23.5275 52.7179L11.1748 28.6619L16.2941 21.7758C16.5206 21.4738 16.581 21.0811 16.4602 20.7338C16.3394 20.3865 16.0525 20.1147 15.69 20.009L10.7067 18.665L11.8393 14.1044L3.03532 16.5055C1.08728 20.4318 0 24.8413 0 29.5075C0 45.8016 13.2135 59.0151 29.5075 59.0151C45.8016 59.0151 59.0151 45.8016 59.0151 29.5075C59.0151 24.8564 57.9429 20.4469 56.01 16.5357H55.9949L47.1607 14.1346L48.2782 18.6801L43.2948 20.0241C42.9324 20.1147 42.6455 20.3865 42.5247 20.7489C42.4039 21.0962 42.4643 21.4889 42.6908 21.7909L47.8101 28.677L35.4574 52.733L41.377 10.5255C41.4223 10.2083 41.5884 9.93652 41.8602 9.75531C42.117 9.5741 42.4492 9.51369 42.7512 9.5892L46.2547 10.4198L53.5334 12.398Z" fill="#FFDA00"/>
</svg>
