<svg width="48" height="57" viewBox="0 0 48 57" fill="none" xmlns="http://www.w3.org/2000/svg">
<path d="M43.2746 7.88766L34.0173 0H0V52.2729H43.2746V7.88766ZM34.6252 3.05063L39.8756 7.53038H34.6252V3.05063ZM1.93437 50.3491V1.92382H32.6908V9.4542H41.3402V50.3216H1.93437V50.3491Z" fill="#FCD500"/>
<path d="M46.0656 13.082V55.0762H5.69249V57H47.9999V13.082H46.0656Z" fill="#FCD500"/>
<path d="M7.35055 17.6442H9.28492C9.28492 15.8578 10.7495 14.4012 12.5457 14.4012C14.3419 14.4012 15.8065 15.8578 15.8065 17.6442H17.7409C17.7409 15.7753 16.7461 14.1538 15.2538 13.2469C15.8894 12.5873 16.2763 11.6803 16.2763 10.6909C16.2763 8.62971 14.5906 6.98072 12.5457 6.98072C10.4732 6.98072 8.81514 8.65719 8.81514 10.6909C8.81514 11.6803 9.20201 12.5873 9.83759 13.2469C8.34536 14.1813 7.35055 15.8028 7.35055 17.6442ZM10.7495 10.7184C10.7495 9.72903 11.5509 8.93202 12.5457 8.93202C13.5405 8.93202 14.3419 9.72903 14.3419 10.7184C14.3419 11.7078 13.5405 12.5048 12.5457 12.5048C11.5509 12.5048 10.7495 11.7078 10.7495 10.7184Z" fill="#FCD500"/>
<path d="M35.2609 12.12H21.3611V14.0439H35.2609V12.12Z" fill="#FCD500"/>
<path d="M35.2608 22.0415H7.46119V23.9653H35.2608V22.0415Z" fill="#FCD500"/>
<path d="M35.2608 28.5275H7.46119V30.4513H35.2608V28.5275Z" fill="#FCD500"/>
<path d="M35.2608 34.986H7.46119V36.9098H35.2608V34.986Z" fill="#FCD500"/>
<path d="M28.2971 41.472H7.46119V43.3959H28.2971V41.472Z" fill="#FCD500"/>
<path d="M31.3645 15.583H21.3611V17.5068H31.3645V15.583Z" fill="#FCD500"/>
<path d="M22.1623 10.4436C22.6964 10.4436 23.1295 10.0129 23.1295 9.48167C23.1295 8.95042 22.6964 8.51976 22.1623 8.51976C21.6281 8.51976 21.1951 8.95042 21.1951 9.48167C21.1951 10.0129 21.6281 10.4436 22.1623 10.4436Z" fill="#FCD500"/>
<path d="M25.3679 10.4436C25.9021 10.4436 26.3351 10.0129 26.3351 9.48167C26.3351 8.95042 25.9021 8.51976 25.3679 8.51976C24.8338 8.51976 24.4007 8.95042 24.4007 9.48167C24.4007 10.0129 24.8338 10.4436 25.3679 10.4436Z" fill="#FCD500"/>
<path d="M28.601 10.4436C29.1352 10.4436 29.5682 10.0129 29.5682 9.48167C29.5682 8.95042 29.1352 8.51976 28.601 8.51976C28.0669 8.51976 27.6339 8.95042 27.6339 9.48167C27.6339 10.0129 28.0669 10.4436 28.601 10.4436Z" fill="#FCD500"/>
</svg>
