<svg width="48" height="57" viewBox="0 0 48 57" fill="none" xmlns="http://www.w3.org/2000/svg">
<path d="M43.2746 7.88766L34.0173 0H0V52.2729H43.2746V7.88766ZM34.6252 3.05063L39.8756 7.53038H34.6252V3.05063ZM1.93437 50.3491V1.92382H32.6908V9.4542H41.3402V50.3216H1.93437V50.3491Z" fill="#FCD500"/>
<path d="M46.0656 13.082V55.0762H5.69257V57H48V13.082H46.0656Z" fill="#FCD500"/>
<path d="M35.2608 12.1201H7.46114V14.0439H35.2608V12.1201Z" fill="#FCD500"/>
<path d="M35.2332 22.0415H15.8618V23.9653H35.2332V22.0415Z" fill="#FCD500"/>
<path d="M35.2332 28.5275H15.8618V30.4513H35.2332V28.5275Z" fill="#FCD500"/>
<path d="M35.2332 34.986H15.8618V36.9098H35.2332V34.986Z" fill="#FCD500"/>
<path d="M30.3972 41.472H15.8618V43.3959H30.3972V41.472Z" fill="#FCD500"/>
<path d="M27.4681 15.5829H7.46114V17.5068H27.4681V15.5829Z" fill="#FCD500"/>
<path d="M8.42832 10.4436C8.981 10.4436 9.39551 10.0039 9.39551 9.48168C9.39551 8.9595 8.95337 8.51977 8.42832 8.51977C7.87565 8.51977 7.46114 8.9595 7.46114 9.48168C7.46114 10.0039 7.90328 10.4436 8.42832 10.4436Z" fill="#FCD500"/>
<path d="M18.4318 10.4436C18.9845 10.4436 19.399 10.0039 19.399 9.48168C19.399 8.9595 18.9568 8.51977 18.4318 8.51977C17.9067 8.51977 17.4646 8.9595 17.4646 9.48168C17.4646 10.0039 17.9067 10.4436 18.4318 10.4436Z" fill="#FCD500"/>
<path d="M14.8946 10.4436C15.4473 10.4436 15.8618 10.0039 15.8618 9.48168C15.8618 8.9595 15.4197 8.51977 14.8946 8.51977C14.342 8.51977 13.9275 8.9595 13.9275 9.48168C13.9275 10.0039 14.3696 10.4436 14.8946 10.4436Z" fill="#FCD500"/>
<path d="M9.94819 22.866L8.40069 21.9315L7.40587 23.5805L10.5285 25.4769L13.4853 21.0796L11.8549 20.0077L9.94819 22.866Z" fill="#FCD500"/>
<path d="M9.94819 29.5444L8.40069 28.6099L7.40587 30.2314L10.5285 32.1278L13.4853 27.7305L11.8549 26.6861L9.94819 29.5444Z" fill="#FCD500"/>
</svg>
