<svg xmlns="http://www.w3.org/2000/svg" width="20" height="16" viewBox="0 0 20 16">
    <g fill="#FCD500" fill-rule="nonzero">
        <path d="M1.918 4.952c.253.181 1.015.72 2.286 1.615 1.272.896 2.246 1.585 2.922 2.069.075.053.233.168.474.346.242.177.443.32.603.43.16.11.353.233.58.369.226.136.44.238.64.305.202.069.388.102.558.102h.022c.172 0 .358-.033.559-.102.2-.067.414-.17.64-.305.228-.136.42-.26.58-.369.16-.11.361-.253.603-.43.242-.178.4-.293.474-.346.684-.484 2.424-1.712 5.22-3.684.542-.385.996-.85 1.36-1.394.364-.544.546-1.115.546-1.712 0-.499-.176-.926-.53-1.28a1.71 1.71 0 0 0-1.254-.533H1.784C1.212.033.771.229.463.622.154 1.015 0 1.506 0 2.095c0 .477.205.992.613 1.548.41.555.844.992 1.305 1.309z"/>
        <path d="M18.87 6.165c-2.438 1.677-4.29 2.98-5.554 3.91a26.32 26.32 0 0 1-1.031.743 6.328 6.328 0 0 1-1.054.544c-.439.185-.848.278-1.227.278h-.022c-.38 0-.789-.093-1.227-.278a6.331 6.331 0 0 1-1.054-.544 26.417 26.417 0 0 1-1.032-.743c-1.003-.748-2.851-2.051-5.542-3.91A5.935 5.935 0 0 1 0 5.179v9c0 .499.175.925.524 1.28.35.356.77.533 1.26.533h16.417c.49 0 .91-.177 1.26-.532a1.76 1.76 0 0 0 .524-1.281v-9a6.18 6.18 0 0 1-1.115.986z"/>
    </g>
</svg>
