<svg width="25" height="25" viewBox="0 0 25 25" fill="none" xmlns="http://www.w3.org/2000/svg">
<g id="facebook-logo">
<path id="Oval" fill-rule="evenodd" clip-rule="evenodd" d="M12.5 25C19.4036 25 25 19.4036 25 12.5C25 5.59644 19.4036 0 12.5 0C5.59644 0 0 5.59644 0 12.5C0 19.4036 5.59644 25 12.5 25Z" fill="#FCD500"/>
<path id="Combined Shape" d="M15.4722 6.43099L13.9303 6.42847C12.198 6.42847 11.0785 7.60141 11.0785 9.41684V10.7947H9.52816C9.39419 10.7947 9.28571 10.9056 9.28571 11.0424V13.0387C9.28571 13.1756 9.39431 13.2863 9.52816 13.2863H11.0785V18.3237C11.0785 18.4605 11.187 18.5713 11.3209 18.5713H13.3437C13.4777 18.5713 13.5861 18.4604 13.5861 18.3237V13.2863H15.3988C15.5328 13.2863 15.6413 13.1756 15.6413 13.0387L15.642 11.0424C15.642 10.9767 15.6164 10.9138 15.571 10.8673C15.5256 10.8208 15.4638 10.7947 15.3995 10.7947H13.5861V9.62667C13.5861 9.06527 13.7171 8.78028 14.4332 8.78028L15.4719 8.7799C15.6058 8.7799 15.7143 8.66899 15.7143 8.5323V6.67859C15.7143 6.54203 15.6059 6.43125 15.4722 6.43099Z" fill="white"/>
</g>
</svg>
