<svg width="62" height="62" viewBox="0 0 62 62" fill="none" xmlns="http://www.w3.org/2000/svg">
<path d="M57.8667 12.4C55.5871 12.4 53.7334 14.2538 53.7334 16.5333C53.7334 18.8128 55.5872 20.6666 57.8667 20.6666C60.1462 20.6666 62 18.8129 62 16.5333C62 14.2538 60.1462 12.4 57.8667 12.4ZM57.8667 18.6C56.727 18.6 55.8 17.6731 55.8 16.5333C55.8 15.3936 56.7269 14.4666 57.8667 14.4666C59.0066 14.4666 59.9334 15.3934 59.9334 16.5333C59.9333 17.6731 59.0064 18.6 57.8667 18.6Z" fill="#FCD500"/>
<path d="M4.13329 46.5C1.85382 46.5 0 48.3538 0 50.6333C0 52.9128 1.85382 54.7666 4.13329 54.7666C6.41288 54.7666 8.26659 52.9128 8.26659 50.6333C8.26659 48.3538 6.41288 46.5 4.13329 46.5ZM4.13329 52.7C2.99356 52.7 2.06659 51.7731 2.06659 50.6333C2.06659 49.4934 2.99344 48.5666 4.13329 48.5666C5.27303 48.5666 6.2 49.4934 6.2 50.6333C6.2 51.7731 5.27315 52.7 4.13329 52.7Z" fill="#FCD500"/>
<path d="M55.8631 13.7061L46.9485 9.40232C46.4339 9.15323 45.817 9.37023 45.569 9.88391C45.321 10.3975 45.5369 11.0154 46.0506 11.2634L54.9652 15.5672C55.1099 15.6374 55.2628 15.6705 55.4136 15.6705C55.7979 15.6705 56.1669 15.4556 56.3446 15.0856C56.5926 14.5721 56.3766 13.9541 55.8631 13.7061Z" fill="#FCD500"/>
<path d="M46.5 53.7333C44.2204 53.7333 42.3667 55.5871 42.3667 57.8666C42.3667 60.1461 44.2204 62 46.5 62C48.7796 62 50.6333 60.1462 50.6333 57.8667C50.6333 55.5872 48.7796 53.7333 46.5 53.7333ZM46.5 59.9333C45.3603 59.9333 44.4333 59.0064 44.4333 57.8666C44.4333 56.7267 45.3603 55.8 46.5 55.8C47.6397 55.8 48.5667 56.7269 48.5667 57.8667C48.5667 59.0066 47.6397 59.9333 46.5 59.9333Z" fill="#FCD500"/>
<path d="M44.4964 55.0395L35.5818 50.7357C35.0672 50.4866 34.4503 50.7027 34.2023 51.2173C33.9543 51.7309 34.1702 52.3488 34.6839 52.5968L43.5985 56.9006C43.7432 56.9709 43.8961 57.0039 44.0469 57.0039C44.4312 57.0039 44.8002 56.789 44.978 56.419C45.2258 55.9054 45.0099 55.2875 44.4964 55.0395Z" fill="#FCD500"/>
<path d="M31 27.9C28.7204 27.9 26.8667 29.7538 26.8667 32.0333C26.8667 34.3129 28.7205 36.1666 31 36.1666C33.2796 36.1666 35.1333 34.3128 35.1333 32.0333C35.1333 29.7538 33.2796 27.9 31 27.9ZM31 34.1C29.8603 34.1 28.9333 33.1731 28.9333 32.0333C28.9333 30.8936 29.8601 29.9666 31 29.9666C32.1397 29.9666 33.0667 30.8934 33.0667 32.0333C33.0667 33.1731 32.1397 34.1 31 34.1Z" fill="#FCD500"/>
<path d="M29.1833 29.3219L22.3355 23.9847C21.8849 23.6364 21.2361 23.7139 20.8847 24.1645C20.5344 24.6151 20.6139 25.2639 21.0645 25.6153L27.9123 30.9525C28.1015 31.0993 28.3247 31.1706 28.5469 31.1706C28.8548 31.1706 29.1586 31.0343 29.3632 30.7728C29.7135 30.3221 29.6339 29.6732 29.1833 29.3219Z" fill="#FCD500"/>
<path d="M49.6 26.8667C43.3328 26.8667 38.2333 31.9662 38.2333 38.2334C38.2333 44.5006 43.3328 49.6001 49.6 49.6001C55.8672 49.6001 60.9667 44.5006 60.9667 38.2334C60.9667 31.9662 55.8672 26.8667 49.6 26.8667ZM49.6 47.5333C44.4716 47.5333 40.3 43.3617 40.3 38.2333C40.3 33.1049 44.4716 28.9333 49.6 28.9333C54.7284 28.9333 58.9 33.1049 58.9 38.2333C58.9 43.3617 54.7284 47.5333 49.6 47.5333Z" fill="#FCD500"/>
<path d="M49.6 31C47.3204 31 45.4667 32.8538 45.4667 35.1333C45.4667 37.4129 47.3205 39.2666 49.6 39.2666C51.8796 39.2666 53.7333 37.4128 53.7333 35.1333C53.7333 32.8538 51.8796 31 49.6 31ZM49.6 37.2C48.4603 37.2 47.5333 36.2731 47.5333 35.1333C47.5333 33.9936 48.4601 33.0666 49.6 33.0666C50.7397 33.0666 51.6667 33.9934 51.6667 35.1333C51.6667 36.2731 50.7397 37.2 49.6 37.2Z" fill="#FCD500"/>
<path d="M52.5977 41.3333H46.6023C44.8364 41.3333 43.4 42.7314 43.4 44.4488V47.1727C43.4 47.5415 43.5963 47.8825 43.9156 48.0676C45.6475 49.0699 47.6129 49.6 49.6 49.6C51.5871 49.6 53.5525 49.0699 55.2844 48.0676C55.6037 47.8836 55.8 47.5415 55.8 47.1738V44.4499C55.8 42.7314 54.3637 41.3333 52.5977 41.3333ZM53.7333 46.5568C51.1614 47.8381 48.0386 47.8381 45.4666 46.5568V44.4499C45.4666 43.8712 45.976 43.4 46.6022 43.4H52.5976C53.2237 43.4 53.7332 43.8712 53.7332 44.4499V46.5568H53.7333Z" fill="#FCD500"/>
<path d="M24.8 39.2667C18.5328 39.2667 13.4333 44.3662 13.4333 50.6334C13.4333 56.9006 18.5328 62 24.8 62C31.0672 62 36.1667 56.9005 36.1667 50.6333C36.1667 44.3661 31.0672 39.2667 24.8 39.2667ZM24.8 59.9333C19.6716 59.9333 15.5 55.7617 15.5 50.6333C15.5 45.5049 19.6716 41.3333 24.8 41.3333C29.9284 41.3333 34.1 45.5049 34.1 50.6333C34.1 55.7617 29.9284 59.9333 24.8 59.9333Z" fill="#FCD500"/>
<path d="M24.8 43.4C22.5204 43.4 20.6667 45.2538 20.6667 47.5333C20.6667 49.8129 22.5205 51.6666 24.8 51.6666C27.0795 51.6666 28.9333 49.8128 28.9333 47.5333C28.9333 45.2538 27.0796 43.4 24.8 43.4ZM24.8 49.6C23.6603 49.6 22.7333 48.6731 22.7333 47.5333C22.7333 46.3936 23.6601 45.4666 24.8 45.4666C25.9397 45.4666 26.8667 46.3934 26.8667 47.5333C26.8667 48.6731 25.9397 49.6 24.8 49.6Z" fill="#FCD500"/>
<path d="M27.7977 53.7333H21.8023C20.0364 53.7333 18.6 55.1314 18.6 56.8488V59.5727C18.6 59.9415 18.7963 60.2825 19.1156 60.4676C20.8475 61.4699 22.8129 62 24.8 62C26.7871 62 28.7525 61.4699 30.4844 60.4676C30.8037 60.2836 31 59.9416 31 59.5738V56.8499C31 55.1314 29.5637 53.7333 27.7977 53.7333ZM28.9333 58.9568C26.3613 60.2381 23.2386 60.2381 20.6666 58.9568V56.8499C20.6666 56.2712 21.176 55.8 21.8022 55.8H27.7976C28.4237 55.8 28.9332 56.2712 28.9332 56.8499L28.9333 58.9568Z" fill="#FCD500"/>
<path d="M11.3667 13.4333C5.0995 13.4333 0 18.5328 0 24.8C0 31.0672 5.0995 36.1667 11.3667 36.1667C17.6339 36.1667 22.7334 31.0672 22.7334 24.8C22.7333 18.5328 17.6338 13.4333 11.3667 13.4333ZM11.3667 34.1C6.23827 34.1 2.06671 29.9284 2.06671 24.8C2.06671 19.6716 6.23827 15.5 11.3667 15.5C16.4951 15.5 20.6667 19.6716 20.6667 24.8C20.6667 29.9284 16.4951 34.1 11.3667 34.1Z" fill="#FCD500"/>
<path d="M11.3667 17.5667C9.08712 17.5667 7.23341 19.4205 7.23341 21.7C7.23341 23.9795 9.08724 25.8333 11.3667 25.8333C13.6463 25.8333 15.5 23.9795 15.5 21.7C15.5 19.4205 13.6462 17.5667 11.3667 17.5667ZM11.3667 23.7667C10.227 23.7667 9.3 22.8399 9.3 21.7C9.3 20.5601 10.2269 19.6333 11.3667 19.6333C12.5064 19.6333 13.4334 20.5601 13.4334 21.7C13.4334 22.8399 12.5064 23.7667 11.3667 23.7667Z" fill="#FCD500"/>
<path d="M14.3644 27.9H8.36903C6.60312 27.9 5.16671 29.2981 5.16671 31.0155V33.7394C5.16671 34.1082 5.363 34.4492 5.68232 34.6343C7.41421 35.6366 9.37956 36.1667 11.3667 36.1667C13.3539 36.1667 15.3192 35.6366 17.0511 34.6343C17.3704 34.4503 17.5667 34.1082 17.5667 33.7405V31.0166C17.5667 29.2981 16.1303 27.9 14.3644 27.9ZM15.5 33.1235C12.9281 34.4048 9.80532 34.4048 7.23329 33.1235V31.0166C7.23329 30.4379 7.74273 29.9667 8.36891 29.9667H14.3643C14.9904 29.9667 15.4999 30.4379 15.4999 31.0166L15.5 33.1235Z" fill="#FCD500"/>
<path d="M36.1667 0C29.8995 0 24.8 5.0995 24.8 11.3667C24.8 17.6339 29.8995 22.7334 36.1667 22.7334C42.4339 22.7334 47.5334 17.6339 47.5334 11.3667C47.5333 5.0995 42.4338 0 36.1667 0ZM36.1667 20.6667C31.0383 20.6667 26.8667 16.4951 26.8667 11.3667C26.8667 6.23827 31.0383 2.06671 36.1667 2.06671C41.2951 2.06671 45.4667 6.23827 45.4667 11.3667C45.4667 16.4951 41.2951 20.6667 36.1667 20.6667Z" fill="#FCD500"/>
<path d="M36.1667 4.13329C33.8871 4.13329 32.0334 5.98712 32.0334 8.26659C32.0334 10.5461 33.8872 12.3999 36.1667 12.3999C38.4462 12.3999 40.3 10.5462 40.3 8.26671C40.3 5.98724 38.4462 4.13329 36.1667 4.13329ZM36.1667 10.3333C35.027 10.3333 34.1 9.40644 34.1 8.26659C34.1 7.12685 35.0269 6.19988 36.1667 6.19988C37.3066 6.19988 38.2334 7.12673 38.2334 8.26659C38.2333 9.40644 37.3064 10.3333 36.1667 10.3333Z" fill="#FCD500"/>
<path d="M39.1644 14.4667H33.169C31.4031 14.4667 29.9667 15.8649 29.9667 17.5822V20.3061C29.9667 20.6749 30.163 21.0159 30.4823 21.201C32.2142 22.2033 34.1796 22.7334 36.1667 22.7334C38.1539 22.7334 40.1192 22.2033 41.8511 21.201C42.1704 21.017 42.3667 20.6749 42.3667 20.3072V17.5833C42.3667 15.8647 40.9303 14.4667 39.1644 14.4667ZM40.3 19.6902C37.7281 20.9715 34.6053 20.9715 32.0333 19.6902V17.5833C32.0333 17.0046 32.5427 16.5334 33.1689 16.5334H39.1643C39.7904 16.5334 40.2999 17.0046 40.2999 17.5833L40.3 19.6902Z" fill="#FCD500"/>
<path d="M26.6197 10.6939C26.2488 10.262 25.5967 10.2103 25.1627 10.5813L18.0017 16.709C17.5677 17.0799 17.5171 17.732 17.888 18.166C18.0926 18.4047 18.3819 18.5277 18.6733 18.5277C18.911 18.5277 19.1496 18.4461 19.345 18.2786L26.506 12.1509C26.9401 11.78 26.9907 11.1279 26.6197 10.6939Z" fill="#FCD500"/>
<path d="M49.3933 27.2811L43.1933 19.0144C42.8512 18.5566 42.2034 18.4667 41.7466 18.8077C41.2898 19.1498 41.1979 19.7976 41.5399 20.2533L47.7399 28.52C47.9434 28.7908 48.2534 28.9333 48.5676 28.9333C48.7825 28.9333 49.0006 28.8661 49.1866 28.7266C49.6434 28.3846 49.7354 27.7368 49.3933 27.2811Z" fill="#FCD500"/>
<path d="M40.9127 41.6506C40.5706 41.1938 39.9228 41.1019 39.466 41.4439L33.6939 45.7725C33.2371 46.1146 33.1452 46.7624 33.4871 47.2181C33.6907 47.4889 34.0007 47.6314 34.3148 47.6314C34.5307 47.6314 34.7477 47.5632 34.9339 47.4247L40.706 43.0961C41.1628 42.7542 41.2548 42.1062 40.9127 41.6506Z" fill="#FCD500"/>
<path d="M14.4667 49.6H7.23329C6.66294 49.6 6.2 50.0619 6.2 50.6333C6.2 51.2047 6.66294 51.6666 7.23329 51.6666H14.4666C15.0369 51.6666 15.4999 51.2047 15.4999 50.6333C15.4999 50.0619 15.0371 49.6 14.4667 49.6Z" fill="#FCD500"/>
<path d="M11.3667 0C9.08712 0 7.23329 1.85382 7.23329 4.13329C7.23329 6.41288 9.08712 8.26659 11.3666 8.26659C13.6462 8.26659 15.4999 6.41276 15.4999 4.13329C15.5 1.85382 13.6462 0 11.3667 0ZM11.3667 6.2C10.227 6.2 9.3 5.27315 9.3 4.13329C9.3 2.99356 10.2269 2.06659 11.3667 2.06659C12.5064 2.06659 13.4334 2.99344 13.4334 4.13329C13.4333 5.27315 12.5064 6.2 11.3667 6.2Z" fill="#FCD500"/>
<path d="M11.3667 6.2C10.7964 6.2 10.3334 6.66185 10.3334 7.23329V14.4666C10.3334 15.038 10.7964 15.4999 11.3667 15.4999C11.9371 15.4999 12.4 15.038 12.4 14.4666V7.23329C12.4 6.66185 11.9371 6.2 11.3667 6.2Z" fill="#FCD500"/>
</svg>
