<svg xmlns="http://www.w3.org/2000/svg" width="30" height="24" viewBox="0 0 30 24">
    <g fill="#FCD500" fill-rule="nonzero">
        <path d="M20.042 3.881a.594.594 0 0 0-.243-.147l-5.495-1.735c-2.197-.693-3.627.517-4.012.905-.225.226-.397.464-.485.671L7.359 9.362c-.14.332-.092.773.128 1.213a2.359 2.359 0 0 0 1.559 1.244c.758.183 1.545-.065 2.161-.684.161-.161.298-.34.38-.491l.822-1.534c.135-.255.332-.518.539-.726.706-.71 1.041-.385 1.184-.247 1.231 1.194 7.686 7.71 7.686 7.71.23.23.182.668-.105.956-.287.287-.723.337-.952.107l-1.813-1.822a.593.593 0 0 0-.845 0 .6.6 0 0 0 0 .849l1.813 1.823c.23.23.182.667-.105.954-.287.29-.723.337-.95.108l-1.815-1.823a.594.594 0 0 0-.845 0 .602.602 0 0 0 0 .85l1.814 1.822c.229.23.18.668-.107.956-.286.287-.721.337-.95.106l-1.814-1.822a.595.595 0 0 0-.845 0 .603.603 0 0 0 0 .848l1.813 1.824c.23.23.181.668-.105.956-.288.288-.723.337-.951.107l-2.208-2.221c.315-.477.23-1.168-.238-1.64-.524-.526-1.33-.575-1.797-.104.466-.47.42-1.28-.105-1.807-.525-.526-1.33-.575-1.796-.106.466-.469.42-1.278-.107-1.804-.524-.528-1.328-.576-1.796-.107.468-.47.42-1.278-.105-1.807-.491-.493-1.223-.56-1.699-.184L1.63 9.273a.595.595 0 0 0-.845 0 .605.605 0 0 0 0 .85l3.566 3.583-1.058 1.063c-.466.468-.42 1.277.107 1.805.524.527 1.328.576 1.796.106-.468.47-.42 1.278.105 1.806.525.526 1.33.576 1.797.106-.467.47-.42 1.278.105 1.805.525.528 1.33.576 1.796.107-.466.468-.419 1.276.106 1.805.525.527 1.329.575 1.797.106l1.116-1.122 2.193 2.203c.7.703 1.883.654 2.641-.106.37-.372.566-.845.594-1.314a2.013 2.013 0 0 0 1.307-.598c.37-.372.568-.845.596-1.314a2.019 2.019 0 0 0 1.308-.598c.369-.372.566-.845.593-1.314a2.008 2.008 0 0 0 1.309-.598c.757-.761.803-1.952.105-2.655l-.924-.93 3.796-3.814a.603.603 0 0 0 0-.85l-5.494-5.524zM29.039 5.224L24.2.362a1.191 1.191 0 0 0-1.69 0L20.818 2.06a1.206 1.206 0 0 0 0 1.7l4.838 4.863a1.192 1.192 0 0 0 1.691 0l1.69-1.7c.467-.469.467-1.23 0-1.699zM26.499 7.7a.984.984 0 0 1-.98-.986c0-.544.44-.986.98-.986.543 0 .982.441.982.986 0 .544-.44.986-.981.986z"/>
    </g>
</svg>
