<svg width="24" height="22" viewBox="0 0 24 22" fill="none" xmlns="http://www.w3.org/2000/svg">
<path d="M11.988 21.5172C8.13959 18.9964 5.23326 16.3774 3.11498 13.5235C2.136 12.2046 0.8506 10.1771 0.286348 8.00812C0.0232989 6.99695 -0.0590727 6.04144 0.0415373 5.16804C0.150968 4.21802 0.482389 3.33706 1.02667 2.54959C1.56284 1.77384 2.29027 1.12894 3.13026 0.684639C3.97057 0.240166 4.90698 0.00523863 5.83831 0.00523863C6.95871 0.00523863 8.0478 0.326879 8.98784 0.935341C9.90414 1.52843 10.6408 2.36508 11.1181 3.35483L11.9876 5.15773L12.8555 3.35408C13.3324 2.36314 14.069 1.5254 14.9859 0.931434C15.9264 0.322074 17.0162 0 18.1375 0C18.5229 0 18.9079 0.0380307 19.2818 0.113021C20.2702 0.311279 21.2048 0.779919 21.9844 1.46829C22.7638 2.15638 23.352 3.03186 23.6856 4.00008C23.9288 4.70585 24.0317 5.47069 23.9915 6.2733C23.9126 7.84717 23.3082 9.58492 22.1437 11.5858C20.0691 15.1503 16.7435 18.4033 11.988 21.5172Z" fill="#FCD500"/>
</svg>
