<?xml version="1.0" encoding="utf-8"?>
<!-- Generator: Adobe Illustrator 24.0.0, SVG Export Plug-In . SVG Version: 6.00 Build 0)  -->
<svg version="1.1" id="Слой_1" xmlns="http://www.w3.org/2000/svg" xmlns:xlink="http://www.w3.org/1999/xlink" x="0px" y="0px"
	 viewBox="0 0 50 50.1" style="enable-background:new 0 0 50 50.1;" xml:space="preserve">
<style type="text/css">
	.st0{fill-rule:evenodd;clip-rule:evenodd;fill:#FFFFFF;}
	.st1{fill-rule:evenodd;clip-rule:evenodd;fill:#FDD500;}
</style>
<g>
	<ellipse class="st0" cx="25" cy="25.2" rx="15.5" ry="16.5"/>
	<path class="st1" d="M0,25C0,11.2,11.2,0,25,0s25,11.2,25,25c0,7.3-3.1,13.9-8.1,18.4l5.1,6.6H24v0C10.7,49.6,0,38.5,0,25z
		 M18.2,16.7c0-3.5,2.9-6.4,6.4-6.4s6.4,2.9,6.4,6.4v7.6c0,3.5-2.9,6.4-6.4,6.4s-6.4-2.9-6.4-6.4V16.7z M25.8,34.9
		c5.1-0.6,9.1-5,9.1-10.3c0,0,0-3.6,0-3.6h-2.6v3.6c0,4.3-3.5,7.7-7.7,7.7s-7.7-3.5-7.7-7.7V21h-2.6v3.6c0,5.2,3.9,9.6,8.9,10.2v3.5
		h-2.1v2.6h6.9v-2.6h-2.1V34.9z"/>
</g>
</svg>
