<svg width="62" height="62" viewBox="0 0 62 62" fill="none" xmlns="http://www.w3.org/2000/svg">
<path d="M11.2066 22.4132C17.3859 22.4132 22.4132 17.3859 22.4132 11.2066C22.4132 5.02733 17.3859 0 11.2066 0C5.02733 0 0 5.02733 0 11.2066C0 17.3859 5.02733 22.4132 11.2066 22.4132ZM11.2066 2.42188C16.0505 2.42188 19.9914 6.36275 19.9914 11.2066C19.9914 16.0505 16.0505 19.9914 11.2066 19.9914C6.36275 19.9914 2.42188 16.0505 2.42188 11.2066C2.42188 6.36275 6.36275 2.42188 11.2066 2.42188Z" fill="#FCD500"/>
<path d="M12.17 13.8684C12.4064 14.1039 12.7157 14.2216 13.025 14.2216C13.3354 14.2216 13.6462 14.1029 13.8827 13.8656C14.3547 13.3919 14.3535 12.6251 13.8799 12.153L12.4258 10.7037V5.32812C12.4258 4.65945 11.8835 4.11719 11.2149 4.11719C10.5462 4.11719 10.0039 4.65945 10.0039 5.32812V11.2066C10.0039 11.5285 10.1322 11.8372 10.3599 12.0643L12.17 13.8684Z" fill="#FCD500"/>
<path d="M60.7891 40.2031H53.3361C52.3117 38.7459 50.7723 37.7137 49.0166 37.3298L43.6928 36.1657C45.8714 34.6964 47.3071 32.2057 47.3071 29.3859V24.7534C47.3071 20.2472 43.6411 16.5812 39.135 16.5812C34.6288 16.5812 30.9628 20.2472 30.9628 24.7534V29.3859C30.9628 32.2021 32.3948 34.6902 34.5688 36.1603L29.2484 37.3275C29.0211 37.3774 28.7977 37.4386 28.5781 37.5094V27.4883C28.5781 26.8196 28.0359 26.2773 27.3672 26.2773H19.1328C18.4641 26.2773 17.9219 26.8196 17.9219 27.4883C17.9219 28.157 18.4641 28.6992 19.1328 28.6992H26.1562V45.6523H17.9219V39.5977C17.9219 37.5945 16.2922 35.9648 14.2891 35.9648C12.2859 35.9648 10.6562 37.5945 10.6562 39.5977V45.6523H2.42188V28.6992H9.44531C10.114 28.6992 10.6562 28.157 10.6562 27.4883C10.6562 26.8196 10.114 26.2773 9.44531 26.2773H1.21094C0.542258 26.2773 0 26.8196 0 27.4883V46.8633C0 47.532 0.542258 48.0742 1.21094 48.0742H10.6562V50.375H10.5352C8.46518 50.375 6.78125 52.0589 6.78125 54.1289V54.7344H1.21094C0.542258 54.7344 0 55.2766 0 55.9453V60.7891C0 61.4577 0.542258 62 1.21094 62H60.7891C61.4577 62 62 61.4577 62 60.7891V41.4141C62 40.7454 61.4577 40.2031 60.7891 40.2031ZM46.5 54.7344V52.3125H59.5781V54.7344H46.5ZM59.5781 49.8906H46.5V47.4688H59.5781V49.8906ZM59.5781 45.0469H46.5V42.625H52.6605C52.6642 42.625 52.6678 42.6257 52.6713 42.6257C52.6751 42.6257 52.6789 42.625 52.6827 42.625H59.5781V45.0469ZM33.3846 24.7535C33.3846 21.5828 35.9642 19.0032 39.1348 19.0032C42.1541 19.0032 44.6372 21.342 44.8677 24.3032L42.0527 22.6494C41.5428 22.3497 40.8911 22.4624 40.5112 22.9157C39.285 24.3791 37.4866 25.2185 35.5773 25.2185H33.3847V24.7535H33.3846ZM33.3846 27.6403H35.5773C37.8569 27.6403 40.0215 26.7709 41.6569 25.2256L44.8852 27.1223V29.3861C44.8852 32.5568 42.3056 35.1363 39.135 35.1363C35.9644 35.1363 33.3847 32.5567 33.3847 29.3861V27.6403H33.3846ZM41.0319 37.3336L39.1168 42.4551L37.1982 37.3244C37.8194 37.476 38.4676 37.5582 39.1348 37.5582C39.788 37.5582 40.4227 37.479 41.0319 37.3336ZM27.3672 48.0742C28.0359 48.0742 28.5781 47.532 28.5781 46.8633V40.1277C28.9517 39.9308 29.35 39.7847 29.7673 39.6932L35.0639 38.5312L37.9826 46.3365C38.1595 46.8096 38.6116 47.1233 39.1168 47.1233C39.622 47.1233 40.074 46.8096 40.251 46.3364L43.1698 38.5306L48.4993 39.6959C48.967 39.7981 49.411 39.9712 49.8194 40.203H45.2891C44.6204 40.203 44.0781 40.7453 44.0781 41.4139V54.7343H26.0568V48.0741L27.3672 48.0742ZM23.635 48.0742V54.7344H21.7969V54.1289C21.7969 52.0589 20.1129 50.375 18.043 50.375H17.9219V48.0742H23.635ZM13.0781 39.5977C13.0781 38.9299 13.6214 38.3867 14.2891 38.3867C14.9568 38.3867 15.5 38.9299 15.5 39.5977V50.375H13.0781V39.5977ZM9.20312 54.1289C9.20312 53.3945 9.80072 52.7969 10.5352 52.7969H18.043C18.7774 52.7969 19.375 53.3945 19.375 54.1289V54.7344H9.20312V54.1289ZM59.5781 59.5781H2.42188V57.1562H59.5781V59.5781Z" fill="#FCD500"/>
<path d="M13.4329 26.6321C13.2077 26.8574 13.0781 27.1698 13.0781 27.4883C13.0781 27.8068 13.2076 28.1192 13.4329 28.3443C13.6582 28.5695 13.9706 28.6992 14.2891 28.6992C14.6075 28.6992 14.92 28.5696 15.1451 28.3443C15.3704 28.1192 15.5 27.8068 15.5 27.4883C15.5 27.1698 15.3704 26.8574 15.1451 26.6321C14.92 26.4069 14.6075 26.2773 14.2891 26.2773C13.9706 26.2773 13.6582 26.4068 13.4329 26.6321Z" fill="#FCD500"/>
</svg>
