<?xml version="1.0" encoding="utf-8"?>
<!-- Generator: Adobe Illustrator 24.0.0, SVG Export Plug-In . SVG Version: 6.00 Build 0)  -->
<svg version="1.1" id="Слой_1" xmlns="http://www.w3.org/2000/svg" xmlns:xlink="http://www.w3.org/1999/xlink" x="0px" y="0px"
	 viewBox="0 0 35.7 37.1" style="enable-background:new 0 0 35.7 37.1;" xml:space="preserve">
<style type="text/css">
	.st0{fill-rule:evenodd;clip-rule:evenodd;fill:#010202;}
	.st1{fill:#010202;}
</style>
<g>
	<path class="st0" d="M33.3,20.8l1.8,1.8c0.7,0.7,0.7,2,0,2.7l-9.8,9.9l-5,1.4L20,36.9c-0.1,0.1-0.3,0.2-0.5,0.2
		c-0.2,0-0.3-0.1-0.4-0.2l0,0l0,0c-0.2-0.3-0.2-0.7,0-0.9l0.3-0.3l1.4-5l9.8-9.9C31.3,20.1,32.6,20.1,33.3,20.8z M28.8,24.5L22.3,31
		l2.7,2.7l6.6-6.6L28.8,24.5z M21.7,32.3l2.1,2.1l-2.8,0.8L21.7,32.3z M32.4,26.3l1.8-1.8c0.2-0.2,0.2-0.6,0-0.9l-1.8-1.8
		c-0.2-0.2-0.7-0.2-0.9,0l-1.8,1.8L32.4,26.3z"/>
	<path class="st1" d="M4.1,23.1H21c0.4,0,0.7-0.3,0.7-0.7s-0.3-0.7-0.7-0.7H4.1c-0.4,0-0.6,0.3-0.6,0.7S3.8,23.1,4.1,23.1z"/>
	<path class="st1" d="M19,25.9H4.8c-0.4,0-0.6,0.3-0.6,0.7s0.3,0.7,0.6,0.7H19c0.4,0,0.6-0.3,0.6-0.7S19.3,25.9,19,25.9z"/>
	<path class="st1" d="M4.2,11.9h8.5c0.4,0,0.7-0.3,0.7-0.7c0-0.4-0.3-0.7-0.7-0.7H4.2c-0.4,0-0.7,0.3-0.7,0.7
		C3.5,11.6,3.8,11.9,4.2,11.9z"/>
	<path class="st1" d="M12.6,30.8c0.4,0,0.7-0.3,0.7-0.7s-0.3-0.7-0.7-0.7H4.2c-0.4,0-0.7,0.3-0.7,0.7s0.3,0.7,0.7,0.7H12.6z"/>
	<path class="st1" d="M23.2,14H4.8c-0.3,0-0.6,0.3-0.6,0.7c0,0.4,0.3,0.7,0.6,0.7h18.3c0.3,0,0.6-0.3,0.6-0.7
		C23.8,14.3,23.5,14,23.2,14z"/>
	<path class="st1" d="M4.2,19.6h9.2c0.4,0,0.7-0.3,0.7-0.7s-0.3-0.7-0.7-0.7H4.2c-0.4,0-0.7,0.3-0.7,0.7S3.8,19.6,4.2,19.6z"/>
	<path class="st1" d="M23.8,18.9c0-0.4-0.3-0.7-0.6-0.7h-4.4c-0.3,0-0.6,0.3-0.6,0.7s0.3,0.7,0.6,0.7h4.4
		C23.5,19.6,23.8,19.3,23.8,18.9z"/>
	<path class="st1" d="M16.6,19.4c0.1-0.1,0.2-0.3,0.2-0.5c0-0.2-0.1-0.4-0.2-0.5c-0.3-0.3-0.7-0.3-1,0c-0.1,0.1-0.2,0.3-0.2,0.5
		c0,0.2,0.1,0.4,0.2,0.5c0.1,0.1,0.3,0.2,0.5,0.2C16.3,19.6,16.5,19.5,16.6,19.4z"/>
	<path class="st0" d="M15.9,35.8H1.3V5.1h4.4v1.3C5.7,6.8,6,7,6.3,7H21c0.4,0,0.6-0.3,0.6-0.6V5.1H26v14.1c0,0.4,0.3,0.6,0.6,0.6
		c0.4,0,0.6-0.3,0.6-0.6V4.5c0-0.4-0.3-0.6-0.6-0.6h-5.1V2.6c0-0.4-0.3-0.6-0.6-0.6h-3.8V0.6c0-0.4-0.3-0.6-0.6-0.6h-5.7
		c-0.4,0-0.6,0.3-0.6,0.6v1.3H6.3C6,1.9,5.7,2.2,5.7,2.6v1.3H0.6C0.3,3.8,0,4.1,0,4.5v32c0,0.4,0.3,0.6,0.6,0.6h15.2
		c0.4,0,0.6-0.3,0.6-0.6C16.5,36.1,16.2,35.8,15.9,35.8z M11.4,1.3h4.4v1.3v1.3h-4.4V2.6V1.3z M10.2,3.2H7v1.3v1.3h13.3V4.5V3.2
		h-3.2v1.3c0,0.4-0.3,0.6-0.6,0.6h-5.7c-0.4,0-0.6-0.3-0.6-0.6V3.2z"/>
</g>
</svg>
