<svg width="16" height="16" viewBox="0 0 16 16" fill="none" xmlns="http://www.w3.org/2000/svg">
<path fill-rule="evenodd" clip-rule="evenodd" d="M10.4947 0L16 5.50531L6.42589 15.1237L0 16L0.876258 9.57411L10.4947 0ZM1.77129 11.0191L1.26452 14.7355L4.98086 14.2287L1.77129 11.0191ZM6.14976 13.8673L14.4715 5.50708L13.9979 5.03349L5.65692 13.3745L6.14976 13.8673ZM4.89178 12.6093L13.2328 4.26835L11.6688 2.70438L3.3278 11.0454L4.89178 12.6093ZM2.56266 10.2802L10.9036 1.93923L10.4929 1.52852L2.13268 9.85024L2.56266 10.2802Z" fill="#FCD500"/>
<path d="M1.09352 12.0526L3.94707 14.9061L0.631913 15.3677L1.09352 12.0526Z" fill="#FCD500"/>
</svg>
