<svg width="69" height="69" viewBox="0 0 69 69" fill="none" xmlns="http://www.w3.org/2000/svg">
<path d="M34.5 0C15.4478 0 0 15.4478 0 34.5C0 53.5522 15.4478 69 34.5 69C53.5522 69 69 53.5522 69 34.5C68.9142 15.4478 53.5522 0 34.5 0ZM50.4627 52.8657C48.3172 52.8657 46.6007 51.1493 46.6007 49.0037C46.6007 42.3097 41.194 36.903 34.5 36.903C27.806 36.903 22.3134 42.3097 22.3134 49.0037C22.3134 51.1493 20.597 52.8657 18.4515 52.8657C16.306 52.8657 14.5896 51.1493 14.5896 49.0037C14.5896 41.7948 18.4515 35.444 24.2015 32.0112C22.3993 29.7799 21.2836 26.8619 21.2836 23.7724C21.2836 16.5634 27.2052 10.6418 34.4142 10.6418C41.6231 10.6418 47.5448 16.5634 47.5448 23.7724C47.5448 26.8619 46.4291 29.7799 44.6269 32.0112C50.3769 35.5299 54.2388 41.7948 54.2388 49.0037C54.3246 51.1493 52.6082 52.8657 50.4627 52.8657Z" fill="#FCD500"/>
<path d="M34.5 18.2799C31.4963 18.2799 29.0933 20.6828 29.0933 23.6866C29.0933 26.6903 31.4963 29.0933 34.5 29.0933C37.5037 29.0933 39.9067 26.6903 39.9067 23.6866C39.9067 20.6828 37.5037 18.2799 34.5 18.2799Z" fill="#FCD500"/>
</svg>
