<svg width="70" height="70" viewBox="0 0 70 70" fill="none" xmlns="http://www.w3.org/2000/svg">
<path d="M35 0C15.6716 0 0 15.6716 0 35C0 54.3284 15.6716 70 35 70C54.3284 70 70 54.3284 70 35C69.9129 15.6716 54.3284 0 35 0ZM51.194 53.6318C49.0174 53.6318 47.2761 51.8905 47.2761 49.7139C47.2761 42.9229 41.791 37.4378 35 37.4378C28.209 37.4378 22.6368 42.9229 22.6368 49.7139C22.6368 51.8905 20.8955 53.6318 18.7189 53.6318C16.5423 53.6318 14.801 51.8905 14.801 49.7139C14.801 42.4005 18.7189 35.9577 24.5522 32.4751C22.7239 30.2114 21.592 27.2512 21.592 24.1169C21.592 16.8035 27.5995 10.796 34.9129 10.796C42.2264 10.796 48.2338 16.8035 48.2338 24.1169C48.2338 27.2512 47.102 30.2114 45.2736 32.4751C51.107 36.0448 55.0249 42.4005 55.0249 49.7139C55.1119 51.8905 53.3706 53.6318 51.194 53.6318Z" fill="#F2F2F2"/>
<path d="M35 18.5448C31.9527 18.5448 29.5149 20.9826 29.5149 24.0299C29.5149 27.0771 31.9527 29.5149 35 29.5149C38.0473 29.5149 40.4851 27.0771 40.4851 24.0299C40.4851 20.9826 38.0473 18.5448 35 18.5448Z" fill="#F2F2F2"/>
</svg>
