<svg width="35" height="35" viewBox="0 0 35 35" fill="none" xmlns="http://www.w3.org/2000/svg">
<path d="M17.5 0C7.83582 0 0 7.83582 0 17.5C0 27.1642 7.83582 35 17.5 35C27.1642 35 35 27.1642 35 17.5C34.9565 7.83582 27.1642 0 17.5 0ZM25.597 26.8159C24.5087 26.8159 23.6381 25.9453 23.6381 24.857C23.6381 21.4614 20.8955 18.7189 17.5 18.7189C14.1045 18.7189 11.3184 21.4614 11.3184 24.857C11.3184 25.9453 10.4478 26.8159 9.35945 26.8159C8.27114 26.8159 7.4005 25.9453 7.4005 24.857C7.4005 21.2002 9.35945 17.9789 12.2761 16.2376C11.3619 15.1057 10.796 13.6256 10.796 12.0585C10.796 8.40174 13.7998 5.39801 17.4565 5.39801C21.1132 5.39801 24.1169 8.40174 24.1169 12.0585C24.1169 13.6256 23.551 15.1057 22.6368 16.2376C25.5535 18.0224 27.5124 21.2002 27.5124 24.857C27.556 25.9453 26.6853 26.8159 25.597 26.8159Z" fill="#D8D8D8"/>
<path d="M17.5 9.27239C15.9764 9.27239 14.7575 10.4913 14.7575 12.0149C14.7575 13.5386 15.9764 14.7575 17.5 14.7575C19.0236 14.7575 20.2425 13.5386 20.2425 12.0149C20.2425 10.4913 19.0236 9.27239 17.5 9.27239Z" fill="#D8D8D8"/>
</svg>
