<svg xmlns="http://www.w3.org/2000/svg" width="84" height="84" viewBox="0 0 84 84">
    <g fill="none" fill-rule="nonzero">
        <g transform="translate(2 2)">
            <circle cx="40" cy="40" r="40" stroke="#000" opacity=".2"/>
            <circle cx="40" cy="40" r="40" stroke="#FFE766" stroke-width="4" transform="matrix(1 0 0 -1 0 80)"/>
            <path stroke="#FCD500" stroke-dasharray="205.9839935302734,251.1999969482422" stroke-width="4" d="M40 0c22.091 0 40 17.909 40 40S62.091 80 40 80 0 62.091 0 40 17.909 0 40 0z"/>
        </g>
        <g fill="#FCD500">
            <path d="M37.636 43.62a7.485 7.485 0 1 0-7.485-7.486 7.494 7.494 0 0 0 7.485 7.485zm2.495-2.234a5.747 5.747 0 0 1-4.99 0v-.744a2.296 2.296 0 0 1 2.495-2.013 2.728 2.728 0 0 1 1.812.646c.422.33.672.831.683 1.367v.744zm-4.158-6.084a1.663 1.663 0 1 1 3.327 0 1.663 1.663 0 0 1-3.327 0zm-3.716-1.397a5.82 5.82 0 0 1 5.38-3.593 5.819 5.819 0 0 1 4.113 9.938 3.467 3.467 0 0 0-1.22-2.24 4.048 4.048 0 0 0-.526-.376 3.327 3.327 0 1 0-4.74-.005 3.613 3.613 0 0 0-1.741 2.62 5.819 5.819 0 0 1-1.266-6.344zM39.3 46.946h-3.327a.832.832 0 1 0 0 1.663H39.3a.832.832 0 1 0 0-1.663zM30.15 51.936h8.318a.832.832 0 1 0 0-1.663H30.15a.832.832 0 1 0 0 1.663zM41.795 50.273a.832.832 0 1 0 0 1.663h3.327a.832.832 0 1 0 0-1.663h-3.327zM30.15 58.59h8.318a.832.832 0 1 0 0-1.663H30.15a.832.832 0 1 0 0 1.663zM45.122 56.926h-3.327a.832.832 0 1 0 0 1.664h3.327a.832.832 0 1 0 0-1.664zM45.122 53.6h-8.317a.832.832 0 1 0 0 1.663h8.317a.832.832 0 1 0 0-1.663zM30.15 55.263h3.328a.832.832 0 1 0 0-1.663H30.15a.832.832 0 1 0 0 1.663z"/>
            <path d="M69.87 24.499a12.47 12.47 0 0 0-11.441-7.495 12.433 12.433 0 0 0-9.273 4.159h-5.93a1.658 1.658 0 0 0-1.431-.832h-.832a3.329 3.329 0 0 0-6.578-.726c-.05.24-.075.482-.076.726h-.831a1.658 1.658 0 0 0-1.432.832h-9.38a1.665 1.665 0 0 0-1.664 1.663v42.417a1.666 1.666 0 0 0 1.663 1.664h29.942a1.666 1.666 0 0 0 1.663-1.664V41.228a12.47 12.47 0 0 0 15.6-16.73zm-26.412-1.673h4.436a12.442 12.442 0 0 0-.892 1.664h-3.544v-1.664zm-9.98-.831h1.813a.832.832 0 0 0 .774-1.135 1.612 1.612 0 0 1-.053-.907 1.665 1.665 0 0 1 3.288.378c.001.182-.03.363-.095.533a.832.832 0 0 0 .777 1.13l1.813.003v3.325h-8.317v-3.327zm0 4.99h8.317a1.658 1.658 0 0 0 1.432-.832h3.19a12.339 12.339 0 0 0 2.863 11.78v23.984H25.992V26.153h6.054c.295.513.84.83 1.432.832zm19.129 38.258H22.665V22.826h9.15v1.664h-5.823a1.666 1.666 0 0 0-1.663 1.663v35.764a1.666 1.666 0 0 0 1.663 1.663H49.28a1.666 1.666 0 0 0 1.664-1.663v-22.48c.525.4 1.081.757 1.663 1.069v24.737zm5.822-24.95c-5.971 0-10.812-4.842-10.812-10.813 0-5.971 4.84-10.812 10.812-10.812 5.971 0 10.812 4.84 10.812 10.812-.007 5.969-4.843 10.805-10.812 10.812z"/>
            <path d="M63.247 24.341l1.506 1.318-7.704 8.804-4.756-4.756 1.414-1.414 3.244 3.244z"/>
        </g>
    </g>
</svg>
