<svg xmlns="http://www.w3.org/2000/svg" width="85" height="85" viewBox="0 0 85 85">
    <g fill="none" fill-rule="nonzero">
        <g transform="translate(-14 -14)">
            <circle cx="56" cy="56" r="40" stroke="#000" opacity=".2"/>
            <path stroke="#FCD500" stroke-dasharray="45.21599960327148,251.1999969482422" stroke-width="4" d="M56.259 16.259c22.091 0 40 17.908 40 40 0 22.091-17.909 40-40 40-22.092 0-40-17.909-40-40 0-22.092 17.908-40 40-40z"/>
            <path stroke="#FCD500" stroke-dasharray="30.13999938964844,251.1999969482422" stroke-width="4" d="M94.3 68.62c6.828-21.01-4.67-43.577-25.68-50.404-21.01-6.826-43.577 4.672-50.404 25.682-6.826 21.01 4.672 43.576 25.682 50.403 21.01 6.827 43.576-4.672 50.403-25.682z"/>
            <path stroke="#FCD500" stroke-dasharray="85.40799713134766,251.1999969482422" stroke-width="4" d="M25.173 81.431c13.902 17.169 39.09 19.816 56.258 5.913 17.169-13.902 19.816-39.09 5.913-56.258-13.902-17.168-39.09-19.816-56.258-5.913-17.168 13.902-19.816 39.09-5.913 56.258z"/>
            <path stroke="#FFE766" stroke-dasharray="45.21599960327148,251.1999969482422" stroke-width="4" d="M25.173 81.431C11.27 64.263 13.918 39.075 31.086 25.173c17.168-13.903 42.356-11.255 56.258 5.913 13.903 17.168 11.256 42.356-5.913 56.258-17.168 13.903-42.356 11.256-56.258-5.913z"/>
        </g>
        <g fill="#FCD500">
            <path d="M45.48 46.286a9.422 9.422 0 0 0 4.286-17.817v-3.612h-1.714v2.937a9.237 9.237 0 0 0-5.143 0v-2.937h-1.714v3.612a9.423 9.423 0 0 0 4.286 17.817zm0-17.143a7.714 7.714 0 1 1-7.714 7.714 7.724 7.724 0 0 1 7.715-7.714z"/>
            <path d="M65.7 46.89l-1.209-1.216a4.3 4.3 0 0 0-6.068.006l-7.94 8.085a4.293 4.293 0 0 0-4.145-3.194h-5.725a5.988 5.988 0 0 0-5.418-3.428h-4.286a5.98 5.98 0 0 0-4.286 1.808v-2.665a.857.857 0 0 0-.857-.857H18.91a.857.857 0 0 0-.857.857v18.857c0 .473.384.857.857.857h6.857a.857.857 0 0 0 .857-.857v-1.714l23.375.016c.227 0 .445-.09.606-.251l15.094-15.095a.857.857 0 0 0 .002-1.208zM24.91 64.287h-5.144V47.143h5.143v17.143zm24.733-2.555l-23.02-.017v-8.571a4.29 4.29 0 0 1 4.286-4.286h4.286a4.267 4.267 0 0 1 4.034 2.854c.12.344.444.575.809.575h6.3a2.571 2.571 0 0 1 2.571 2.571H36.052v1.714h13.714v-.007a.852.852 0 0 0 .611-.249l9.258-9.428a2.583 2.583 0 0 1 3.639-.005l.606.611-14.237 14.238z"/>
            <path d="M20.623 48.857h1.715v1.714h-1.715zM58.338 24.857h1.714v1.714h-1.714zM60.052 26.571h1.714v1.715h-1.714zM58.338 28.286h1.714V30h-1.714zM56.623 26.571h1.715v1.715h-1.715zM25.766 34.286h1.715V36h-1.715zM27.48 36h1.715v1.714H27.48zM25.766 37.714h1.715v1.715h-1.715zM24.052 36h1.714v1.714h-1.714zM30.91 20.571h1.713v1.715H30.91V20.57zM32.623 22.286h1.715V24h-1.715zM30.91 24h1.713v1.714H30.91V24zM29.195 22.286h1.714V24h-1.714zM41.195 21.429h1.714v1.714h-1.714zM44.623 21.429h1.715v4.285h-1.715zM44.623 18h1.715v1.714h-1.715zM48.052 21.429h1.714v1.714h-1.714z"/>
        </g>
    </g>
</svg>
