<svg width="13" height="24" viewBox="0 0 13 24" fill="none" xmlns="http://www.w3.org/2000/svg">
<path d="M2.37837 6.77745H2.33397C1.22414 6.77745 0.380675 5.93553 0.513855 4.88313C0.647034 3.87283 1.00218 2.69414 1.97883 1.64174C2.99987 0.547248 4.50924 0 6.46253 0C8.23826 0 9.65884 0.505152 10.8131 1.47336C11.9673 2.44157 12.5 3.83074 12.5 5.59877C12.5 7.3668 11.7897 8.75597 10.3247 9.76627C9.65884 10.2293 8.41583 10.7766 6.64011 11.408C6.24057 11.5343 5.92982 11.6606 5.70785 11.7869C5.48589 11.8711 5.21953 12.0815 4.99756 12.3762C4.7312 12.6709 4.64242 13.0077 4.64242 13.4286C4.64242 13.9338 4.81999 14.3547 5.17513 14.6494C5.53028 14.9441 5.97421 15.1125 6.50693 15.1125C7.17282 15.1125 7.70554 14.8178 8.06069 14.2705C8.14947 14.1443 8.23826 13.9759 8.28265 13.8075C8.50462 13.1339 9.21491 12.713 9.96959 12.713C11.1682 12.713 12.0561 13.8496 11.6121 14.9441C11.479 15.3229 11.257 15.7018 11.035 15.9965C9.96959 17.4698 8.46023 18.2276 6.41814 18.2276C4.95317 18.2276 3.66577 17.7645 2.60033 16.8805C1.40172 15.9965 0.869 14.7336 0.869 13.0919C0.869 11.7448 1.22414 10.7766 1.97883 10.103C2.73351 9.4295 3.79895 8.84016 5.21953 8.33501C6.72889 7.78776 7.61676 7.40889 7.92751 7.19841C8.46023 6.77745 8.72658 6.18811 8.72658 5.47248C8.72658 4.84104 8.54901 4.29379 8.14947 3.83074C7.74994 3.40978 7.17282 3.1572 6.41814 3.1572C5.61906 3.1572 5.04195 3.40978 4.68681 3.87283C4.37606 4.33589 4.19848 4.84104 4.15409 5.30409C4.0653 6.10392 3.31062 6.77745 2.37837 6.77745ZM4.90877 23.4054C4.55363 23.0686 4.33166 22.6476 4.28727 22.1425C4.19848 21.4269 4.55363 20.6691 5.13074 20.2061C5.44149 19.9956 5.79664 19.8693 6.15178 19.8272C6.90647 19.743 7.70554 20.0377 8.19387 20.5849C8.50462 20.9638 8.68219 21.3848 8.68219 21.8899C8.68219 22.4793 8.46022 22.9844 8.01629 23.3633C7.57236 23.7842 7.08404 23.9947 6.46253 23.9947C5.88542 24.0368 5.35271 23.8263 4.90877 23.4054Z" fill="#FCD500"/>
</svg>
