<svg width="55" height="110" viewBox="0 0 55 110" fill="none" xmlns="http://www.w3.org/2000/svg">
<path d="M8.60918 31.0633H8.40571C3.319 31.0633 -0.546905 27.2045 0.0635001 22.381C0.673906 17.7505 2.30165 12.3482 6.77796 7.52466C11.4577 2.50822 18.3757 0 27.3283 0C35.467 0 41.978 2.31528 47.2682 6.7529C52.5584 11.1905 55 17.5575 55 25.661C55 33.7645 51.7445 40.1315 45.03 44.7621C41.978 46.8844 36.2809 49.3926 28.1422 52.2867C26.3109 52.8655 24.8867 53.4444 23.8693 54.0232C22.852 54.4091 21.6312 55.3738 20.6138 56.7243C19.393 58.0749 18.9861 59.6184 18.9861 61.5478C18.9861 63.8631 19.7999 65.7925 21.4277 67.1431C23.0554 68.4937 25.0901 69.2654 27.5317 69.2654C30.5838 69.2654 33.0254 67.9149 34.6531 65.4066C35.0601 64.8278 35.467 64.0561 35.6705 63.2843C36.6878 60.1973 39.9433 58.2679 43.4023 58.2679C48.8959 58.2679 52.9653 63.4772 50.9306 68.4937C50.3202 70.2301 49.3029 71.9666 48.2855 73.3172C43.4023 80.0701 36.4844 83.543 27.1248 83.543C20.4104 83.543 14.5098 81.4207 9.62652 77.3689C4.13287 73.3172 1.69125 67.529 1.69125 60.0043C1.69125 53.8302 3.319 49.3926 6.77796 46.3056C10.2369 43.2185 15.1202 40.5174 21.6312 38.2021C28.5491 35.6939 32.6185 33.9574 34.0427 32.9927C36.4844 31.0633 37.7052 28.3622 37.7052 25.0822C37.7052 22.1881 36.8913 19.6799 35.0601 17.5575C33.2289 15.6281 30.5838 14.4705 27.1248 14.4705C23.4624 14.4705 20.8173 15.6281 19.1895 17.7505C17.7653 19.8728 16.9514 22.1881 16.7479 24.3104C16.341 27.9763 12.882 31.0633 8.60918 31.0633ZM20.2069 107.275C18.5791 105.731 17.5618 103.802 17.3583 101.486C16.9514 98.2064 18.5791 94.7335 21.2242 92.6112C22.6485 91.6465 24.2763 91.0676 25.904 90.8747C29.363 90.4888 33.0254 91.8394 35.2635 94.3476C36.6878 96.0841 37.5017 98.0135 37.5017 100.329C37.5017 103.03 36.4844 105.345 34.4497 107.082C32.415 109.011 30.1768 109.976 27.3283 109.976C24.6832 110.169 22.2416 109.204 20.2069 107.275Z" fill="#F2F2F2"/>
</svg>
