<svg width="61" height="61" viewBox="0 0 61 61" fill="none" xmlns="http://www.w3.org/2000/svg">
<path d="M30.5 16.2031C31.0264 16.2031 31.4531 15.7764 31.4531 15.25C31.4531 14.7236 31.0264 14.2969 30.5 14.2969C29.9736 14.2969 29.5469 14.7236 29.5469 15.25C29.5469 15.7764 29.9736 16.2031 30.5 16.2031Z" fill="#FCD500"/>
<path d="M36.2188 16.2031C36.7451 16.2031 37.1719 15.7764 37.1719 15.25C37.1719 14.7236 36.7451 14.2969 36.2188 14.2969C35.6924 14.2969 35.2656 14.7236 35.2656 15.25C35.2656 15.7764 35.6924 16.2031 36.2188 16.2031Z" fill="#FCD500"/>
<path d="M36.9707 18.7365L37.0708 18.5354L35.3657 17.6824L35.2656 17.8844C34.9025 18.6107 34.1724 19.0625 33.3593 19.0625C32.5463 19.0625 31.8162 18.6107 31.4531 17.8844L31.353 17.6833L29.6479 18.5364L29.748 18.7365C30.4361 20.1138 31.82 20.9687 33.3593 20.9687C34.8986 20.9687 36.2826 20.1138 36.9707 18.7365Z" fill="#FCD500"/>
<path d="M56.2344 7.625C54.1318 7.625 52.4219 9.33491 52.4219 11.4375V11.6005C51.3124 11.9941 50.5156 13.054 50.5156 14.2969V14.4599C50.5156 15.2233 50.814 15.942 51.3534 16.4824L52.4219 17.5508V24.2913C51.9015 24.0054 51.3134 23.8281 50.6796 23.8281C49.7045 23.8281 48.7886 24.2075 48.0995 24.8975L47.2617 25.7344H37.9153L37.3863 23.6194C38.7541 22.7635 39.832 21.4901 40.4382 19.9746C42.8725 19.764 44.7969 17.7386 44.7969 15.25C44.7969 14.3588 44.5472 13.5048 44.0715 12.749C44.5472 11.6729 44.7969 10.5158 44.7969 9.37017C44.7969 4.72845 41.0206 0.953125 36.3798 0.953125H30.3389C25.6982 0.953125 21.9219 4.72845 21.9219 9.37017C21.9219 10.5158 22.1716 11.6729 22.6472 12.749C22.1716 13.5048 21.9219 14.3588 21.9219 15.25C21.9219 17.7386 23.8462 19.764 26.2805 19.9746C26.8857 21.4901 27.9637 22.7635 29.3324 23.6194L28.8034 25.7344H14.2969V17.5508L15.3653 16.4824C15.9058 15.9429 16.2031 15.2243 16.2031 14.4599V14.2969C16.2031 14.0024 16.1488 13.7136 16.0611 13.4362C17.2964 12.5746 18.1094 11.1477 18.1094 9.53125C18.1094 6.90348 15.9715 4.76562 13.3438 4.76562C10.716 4.76562 8.57812 6.90348 8.57812 9.53125V10.0898L1.82428 16.8436C1.26194 17.405 0.953125 18.1523 0.953125 18.9472C0.953125 20.5875 2.2875 21.9219 3.92783 21.9219C4.7113 21.9219 5.47761 21.6045 6.03137 21.0507L6.67188 20.4102V29.5469C6.67188 32.7008 9.23673 35.2656 12.3906 35.2656H20.0156V43.9629C18.8118 45.5918 18.1094 47.5962 18.1094 49.7407C18.1094 52.339 19.1216 54.7818 20.9583 56.6185L21.5368 57.197C23.3744 59.0347 25.8173 60.0469 28.4155 60.0469C31.5227 60.0469 34.3411 58.5819 36.1377 56.2344H46.7031V36.6133L48.0508 35.2656H54.3281C57.482 35.2656 60.0469 32.7008 60.0469 29.5469V11.4375C60.0469 9.33491 58.337 7.625 56.2344 7.625ZM49.4472 26.2443C49.7722 25.9202 50.2202 25.7344 50.6796 25.7344C51.6403 25.7344 52.4219 26.5159 52.4219 27.4776C52.4219 27.9428 52.2408 28.3812 51.912 28.71L49.5625 31.0585L47.0977 28.5938L49.4472 26.2443ZM36.2188 44.4023L33.754 41.9375L45.75 29.9415L48.2148 32.4062L36.2188 44.4023ZM34.7366 36.3465C35.0836 35.828 35.2656 35.2237 35.2656 34.6013C35.2656 32.9819 34.0332 31.6609 32.4596 31.4884L33.3594 30.7678L38.287 34.71L34.465 38.532C34.2077 37.8381 34.2791 37.0327 34.7366 36.3465ZM38.9085 34.0876L40.7509 27.6406H45.3564L38.9085 34.0876ZM38.7674 27.6406L37.6017 31.72L34.9149 29.5707L37.4883 27.6406H38.7674ZM42.8906 9.37017C42.8906 10.4015 42.6257 11.4489 42.1234 12.4002L41.8279 12.9596L42.2301 13.4486C42.5313 13.8165 42.8906 14.4265 42.8906 15.25C42.8906 16.5062 42.0709 17.5632 40.9434 17.9464C40.9701 17.6871 40.9844 17.4231 40.9844 17.1562V13.1207C40.9844 11.6815 39.9073 10.4615 38.4796 10.2833L35.8642 9.95634C34.4364 9.77811 33.3594 8.55811 33.3594 7.11889V2.85938H36.3798C39.9702 2.85938 42.8906 5.77975 42.8906 9.37017ZM23.8281 15.25C23.8281 14.4265 24.1875 13.8165 24.4877 13.4495L24.8899 12.9606L24.5944 12.4011C24.0931 11.4489 23.8281 10.4015 23.8281 9.37017C23.8281 5.77975 26.7485 2.85938 30.3389 2.85938H31.4531V7.11889C31.4531 7.45534 31.4884 7.78417 31.5551 8.10252L28.4994 8.97653C26.8715 9.43975 25.7344 10.9476 25.7344 12.6413V17.1562C25.7344 17.4231 25.7487 17.6871 25.7754 17.9464C24.6478 17.5632 23.8281 16.5062 23.8281 15.25ZM27.6406 17.1562V12.6413C27.6406 11.7949 28.2096 11.041 29.0227 10.8084L32.3262 9.86484C33.0773 10.9276 34.2544 11.6767 35.6278 11.8483L38.2432 12.1752C38.7188 12.2343 39.0781 12.6403 39.0781 13.1207V17.1562C39.0781 20.3101 36.5133 22.875 33.3594 22.875C30.2055 22.875 27.6406 20.3101 27.6406 17.1562ZM33.3594 24.7812C34.1486 24.7812 34.9101 24.6602 35.6269 24.4372L36.0939 26.3053L33.3594 28.3555L30.6249 26.3053L31.0919 24.4372C31.8086 24.6602 32.5702 24.7812 33.3594 24.7812ZM29.2295 27.6406L31.8029 29.5707L29.1161 31.72L27.9513 27.6406H29.2295ZM13.3438 6.67188C14.9202 6.67188 16.2031 7.95478 16.2031 9.53125C16.2031 11.1077 14.9202 12.3906 13.3438 12.3906H12.7852L10.4844 10.0898V9.53125C10.4844 7.95478 11.7673 6.67188 13.3438 6.67188ZM4.68366 19.703C4.48445 19.9013 4.209 20.0156 3.92783 20.0156C3.3388 20.0156 2.85938 19.5362 2.85938 18.9472C2.85938 18.6612 2.96994 18.3934 3.172 18.1913L9.53125 11.8321L11.0429 13.3438L4.68366 19.703ZM8.57812 29.5469V18.504L12.7852 14.2969H13.3438C13.664 14.2969 13.9757 14.2626 14.2778 14.2025C14.2816 14.2368 14.2969 14.2597 14.2969 14.2969V14.4599C14.2969 14.7143 14.1978 14.9545 14.0176 15.1347L12.3906 16.7617V27.6406H16.2031V33.3594H12.3906C10.288 33.3594 8.57812 31.6495 8.57812 29.5469ZM18.1094 33.3594V27.6406H25.9679L28.0705 34.9988L28.6976 34.4974L26.9553 39.1429C26.8657 39.3822 26.7285 39.5957 26.5483 39.7758C26.3215 40.0027 26.0356 40.1647 25.7229 40.2428L25.477 40.3038C24.1531 40.6346 22.9532 41.2293 21.9219 42.0185V33.3594H18.1094ZM28.4155 58.1406C26.3272 58.1406 24.3628 57.3267 22.8855 55.8503L22.3069 55.2717C20.8296 53.7944 20.0166 51.8309 20.0166 49.7417C20.0166 46.1465 22.4528 43.0269 25.9403 42.1548L26.1871 42.0938C26.8352 41.9318 27.4271 41.5963 27.8989 41.1245C28.2725 40.7499 28.5556 40.3096 28.7424 39.8139L30.8603 34.1667C31.0385 33.6834 31.5065 33.3594 32.0212 33.3594H32.1184C32.8028 33.3594 33.3594 33.916 33.3594 34.6013C33.3594 34.8472 33.2869 35.0855 33.1087 35.3533C32.1727 36.7573 32.188 38.5577 33.0515 39.9455L31.0585 41.9375L32.9648 43.8438L28.1172 48.6913L26.4082 46.9824L25.0605 48.3301L26.7695 50.0391L25.2578 51.5507L23.5489 49.8418L22.2011 51.1895L23.9101 52.8984L22.6777 54.1308L24.0254 55.4785L25.2578 54.2462L26.9668 55.9551L28.3145 54.6074L26.6055 52.8984L28.1172 51.3868L29.8261 53.0957L31.1739 51.748L29.4649 50.0391L34.3125 45.1915L36.2188 47.0977L38.2117 45.1047C39.5995 45.9664 41.4085 45.9778 42.8658 45.0056C43.0708 44.8693 43.309 44.7969 43.555 44.7969C44.2402 44.7969 44.7969 45.3535 44.7969 46.0388C44.7969 46.6116 44.4366 47.1311 43.9009 47.3312L38.3442 49.4157C37.8476 49.6016 37.4073 49.8866 37.0337 50.2602C36.5619 50.7329 36.2254 51.3239 36.0643 51.971L36.0033 52.217C35.1303 55.7044 32.0107 58.1406 28.4155 58.1406ZM37.2758 54.3281C37.5121 53.8039 37.7075 53.254 37.8515 52.6802L37.9125 52.4343C37.9906 52.1216 38.1526 51.8367 38.3814 51.6079C38.5606 51.4278 38.7731 51.2905 39.0133 51.2009L44.5691 49.1164C44.6482 49.0869 44.7206 49.0459 44.7959 49.0106V54.3281H37.2758ZM44.7969 43.148C44.4156 42.9831 43.9962 42.8906 43.555 42.8906C42.9316 42.8906 42.3273 43.0736 41.7459 43.4615C41.1035 43.8905 40.3124 43.9534 39.6243 43.6932L44.7969 38.5196V43.148ZM58.1406 29.5469C58.1406 31.6495 56.4307 33.3594 54.3281 33.3594H49.9571L53.2597 30.0568C53.9097 29.4068 54.2719 28.5528 54.3119 27.6406H54.3281V16.7617L52.7011 15.1347C52.521 14.9545 52.4219 14.7143 52.4219 14.4599V14.2969C52.4219 13.7717 52.8489 13.3438 53.375 13.3438H54.3281V11.4375C54.3281 10.3862 55.1831 9.53125 56.2344 9.53125C57.2857 9.53125 58.1406 10.3862 58.1406 11.4375V29.5469Z" fill="#FCD500"/>
</svg>
