<svg width="21" height="23" viewBox="0 0 21 23" fill="none" xmlns="http://www.w3.org/2000/svg">
<path fill-rule="evenodd" clip-rule="evenodd" d="M6.70005 5.69995H10.8249C12.1711 5.69995 13.2907 6.03891 14.0791 6.69689C14.8744 7.3606 15.3 8.32203 15.3 9.49086C15.3 10.653 14.874 11.6108 14.0788 12.2724C13.2905 12.9283 12.1711 13.2672 10.8249 13.2672H8.38034V14.8H12.2V16.2H8.38034V18.3H6.70005V16.2H5.80005V14.8H6.70005V5.69995ZM8.38034 7.23086V11.7218H10.7957C11.7772 11.7218 12.4805 11.4977 12.9334 11.1247C13.3774 10.7591 13.6198 10.2185 13.6198 9.49086C13.6198 8.74697 13.3763 8.19925 12.9325 7.83076C12.4799 7.45498 11.7773 7.23086 10.7957 7.23086H8.38034Z" fill="#FCD500"/>
<path fill-rule="evenodd" clip-rule="evenodd" d="M21 11.5C21 17.299 16.299 22 10.5 22C4.70101 22 0 17.299 0 11.5C0 5.70101 4.70101 1 10.5 1C16.299 1 21 5.70101 21 11.5ZM19 11.5C19 16.1944 15.1944 20 10.5 20C5.80558 20 2 16.1944 2 11.5C2 6.80558 5.80558 3 10.5 3C15.1944 3 19 6.80558 19 11.5Z" fill="#FCD500"/>
</svg>
