<svg width="17" height="21" viewBox="0 0 17 21" fill="none" xmlns="http://www.w3.org/2000/svg">
<path d="M10.7037 12.6875C14.3406 12.6875 17.1694 9.1875 16.3611 5.03125C15.957 1.96875 13.3303 0 10.5016 0H5.04619C4.23798 0 3.83387 0.65625 3.83387 1.3125V14.2188C3.83387 14.2188 4.03592 14.2188 2.0154 14.2188C-0.0051319 14.2188 -0.0051319 17.5 2.0154 17.5C3.83387 17.5 3.83387 17.5 3.83387 17.5V19.4688C3.83387 20.3438 4.44003 21 5.24824 21C6.05645 21 6.66261 20.3438 6.66261 19.4688V17.5H11.7139C12.5221 17.5 13.3303 16.8438 13.3303 15.9688C13.3303 15.0938 12.7242 14.4375 11.916 14.4375H6.86466V12.6875H10.7037ZM6.86466 3.28125H10.9057C12.5221 3.28125 13.7345 4.59375 13.7345 6.34375C13.7345 8.09375 12.3201 9.40625 10.7037 9.40625H6.66261V3.28125H6.86466Z" fill="#FCD500"/>
</svg>
