<svg width="78" height="61" viewBox="0 0 78 61" fill="none" xmlns="http://www.w3.org/2000/svg">
<path d="M77.6885 23.6147C76.8642 21.5486 74.5033 20.5363 72.4217 21.3545C72.31 21.3961 72.2122 21.4377 72.1004 21.4931L69.0828 22.9907L62.9359 14.8511C62.8661 14.754 62.7683 14.6569 62.6565 14.5876L55.9508 10.1503C55.8111 10.0671 55.6574 9.99777 55.5038 9.9839L40.9747 7.76526C40.6255 7.70979 40.2622 7.82072 40.0108 8.07032L31.6845 16.307C30.9301 17.0558 30.5809 18.0542 30.6367 19.0387C29.8404 19.011 29.0441 19.2467 28.4015 19.7321L26.6971 18.2484C24.881 16.6676 22.1149 16.8478 20.5223 18.6505L15.7165 24.1C14.1239 25.9027 14.3055 28.6483 16.1217 30.229L25.6633 38.5351C26.4876 39.2562 27.5214 39.6167 28.5412 39.6167C29.7566 39.6167 30.972 39.1175 31.8382 38.133L36.6439 32.6834C37.4123 31.8098 37.8035 30.6866 37.7196 29.5357C37.6498 28.3709 37.1189 27.3171 36.2388 26.5544L33.6683 24.3219C34.0036 23.7118 34.1433 23.0462 34.1014 22.3806C34.9815 22.4083 35.8616 22.1171 36.5741 21.507L43.3217 15.6414L49.3149 17.347L44.2996 28.2877L36.602 39.1868L27.4655 47.3542C25.803 48.7686 25.6074 51.2646 27.0464 52.9147C28.4713 54.5648 30.986 54.7589 32.6484 53.3307L42.721 45.1494L48.7422 39.173L56.3839 44.8582L54.6795 56.6309C54.5258 57.7264 54.8472 58.8496 55.5876 59.6816C56.342 60.5413 57.4316 61.0266 58.5772 60.9989C60.4772 60.9989 62.1117 59.6677 62.4609 57.8096L65.3807 42.3623C65.4506 41.974 65.3109 41.5857 65.0175 41.3223L56.6493 34.0562L60.2117 24.3358L66.7917 31.796C67.113 32.1565 67.6299 32.2813 68.077 32.0733L75.6209 28.7592C77.6186 27.8995 78.5267 25.5976 77.6885 23.6147ZM30.1617 36.677C29.3794 37.5644 28.0243 37.6476 27.1442 36.8711L17.5885 28.5651C16.6944 27.7885 16.6106 26.4435 17.3929 25.5699L22.1987 20.1203C22.4222 19.8707 22.6877 19.6905 22.9671 19.5657L24.406 27.4419C24.6156 28.6067 25.5516 29.4941 26.739 29.6466L35.2749 30.756C35.191 30.9224 35.0932 31.0749 34.9675 31.2274L30.1617 36.677ZM35.0234 28.4957L27.0324 27.4557C26.8229 27.428 26.6412 27.2616 26.6133 27.0536L25.328 20.0094L34.7719 28.2323C34.8557 28.3155 34.9396 28.4125 35.0234 28.4957ZM30.2037 21.3129C30.5948 21.2158 31.0139 21.2851 31.3492 21.5486C31.7264 21.8398 31.908 22.3113 31.8521 22.755L30.2037 21.3129ZM74.7268 26.7347L67.9373 29.716L60.6588 21.4515C60.2536 20.9939 59.5412 20.9385 59.0801 21.3545C58.9404 21.4793 58.8287 21.6318 58.7728 21.8121L54.3023 34.0146C54.1486 34.4445 54.2744 34.9298 54.6097 35.2349L63.0756 42.5841L60.2676 57.4352C60.1 58.2533 59.3595 58.8357 58.5213 58.808C57.6272 58.808 56.8868 58.0869 56.8868 57.1856C56.8868 57.1162 56.8868 57.033 56.9008 56.9637L58.689 44.5393C58.7449 44.1372 58.5772 43.735 58.2559 43.4993L49.3149 36.8434C48.8679 36.5106 48.2532 36.5522 47.8481 36.9404L41.2122 43.5132L31.2235 51.6251C30.4831 52.2352 29.3934 52.1243 28.7787 51.4032C28.178 50.6822 28.2618 49.6283 28.9603 49.0182L38.1946 40.7676C38.2645 40.7121 38.3204 40.6428 38.3623 40.5735L46.1856 29.4802C46.2275 29.4248 46.2555 29.3693 46.2834 29.3L51.8715 17.0974C52.123 16.5428 51.8715 15.8772 51.3127 15.6276C51.2568 15.5998 51.2149 15.586 51.159 15.5721L43.3357 13.3535C42.9725 13.2425 42.5813 13.3396 42.2879 13.5892L35.0793 19.8569C34.5344 20.3561 33.6822 20.3283 33.1793 19.7875C32.6764 19.2467 32.7043 18.4009 33.2492 17.9017L41.1843 10.0532L54.903 12.1471L61.2455 16.3486L67.8395 25.0707C68.1608 25.5006 68.7475 25.6392 69.2365 25.4035L73.0783 23.4899C73.5254 23.268 74.0562 23.2403 74.5312 23.4206C75.0341 23.6147 75.4393 24.0168 75.6209 24.5299C75.9841 25.3758 75.579 26.3603 74.7268 26.7347Z" fill="#FCD500"/>
<path d="M32.9837 6.65594H18.4547V8.87458H32.9837V6.65594Z" fill="#FCD500"/>
<path d="M16.2194 6.65594H13.9842V8.87458H16.2194V6.65594Z" fill="#FCD500"/>
<path d="M28.3177 12.6185H26.0824V14.8372H28.3177V12.6185Z" fill="#FCD500"/>
<path d="M17.3371 14.2687H8.39611V16.4873H17.3371V14.2687Z" fill="#FCD500"/>
<path d="M11.1762 24.4051H0V26.6237H11.1762V24.4051Z" fill="#FCD500"/>
<path d="M15.1018 33.2797H2.24921V35.4983H15.1018V33.2797Z" fill="#FCD500"/>
<path d="M25.1604 42.1543H16.2194V44.3729H25.1604V42.1543Z" fill="#FCD500"/>
<path d="M13.9842 42.1543H11.749V44.3729H13.9842V42.1543Z" fill="#FCD500"/>
<path d="M21.8075 51.0288H13.9842V53.2475H21.8075V51.0288Z" fill="#FCD500"/>
<path d="M62.6006 12.2025C65.9954 12.2025 68.7475 9.47084 68.7475 6.10127V1.10932C68.7475 0.499195 68.2446 0 67.6299 0H62.6006C59.2059 0 56.4537 2.73171 56.4537 6.10127C56.4537 9.47084 59.2059 12.2025 62.6006 12.2025ZM66.5123 6.10127C66.5263 8.23672 64.78 9.97004 62.6286 9.9839C61.4271 9.9839 60.2816 9.44311 59.5412 8.50018C61.3992 6.6698 63.8999 5.62981 66.5123 5.56048V6.10127ZM62.6006 2.21865H66.5123V3.34183C63.6484 3.3973 60.8963 4.42342 58.7029 6.25381C58.7029 6.19834 58.689 6.15674 58.689 6.10127C58.689 3.95196 60.4353 2.21865 62.6006 2.21865Z" fill="#FCD500"/>
</svg>
