<svg width="25" height="25" viewBox="0 0 25 25" fill="none" xmlns="http://www.w3.org/2000/svg">
<circle cx="12.5" cy="12.5" r="11.5" stroke="#FCD500" stroke-width="2"/>
<path d="M7.63449 10.5C6.87346 10.5 6.21402 10.0934 5.86261 9.49413L4.13739 10.5059C4.83771 11.7 6.14404 12.5 7.63449 12.5V10.5ZM9.40637 9.49413C9.05496 10.0934 8.39551 10.5 7.63449 10.5V12.5C9.12494 12.5 10.4313 11.7 11.1316 10.5059L9.40637 9.49413ZM17.3655 10.5C16.6045 10.5 15.945 10.0934 15.5936 9.49413L13.8684 10.5059C14.5687 11.7 15.8751 12.5 17.3655 12.5V10.5ZM19.1374 9.49413C18.786 10.0934 18.1265 10.5 17.3655 10.5V12.5C18.856 12.5 20.1623 11.7 20.8626 10.5059L19.1374 9.49413ZM12.5 17C11.645 17 10.7317 16.6081 10.0451 16.1616L8.95489 17.8384C9.80624 18.3919 11.1035 19 12.5 19V17ZM15.0528 16.1056C13.9746 16.6447 13.3374 17 12.5 17V19C13.914 19 15.0254 18.3553 15.9472 17.8944L15.0528 16.1056Z" fill="#FCD500"/>
</svg>
