<svg width="35" height="35" viewBox="0 0 35 35" fill="none" xmlns="http://www.w3.org/2000/svg">
<path d="M17.5 0C7.82895 0 0 7.82895 0 17.5C0 27.1711 7.82895 35 17.5 35C27.1711 35 35 27.1711 35 17.5C35 7.82895 27.1292 0 17.5 0ZM12.0574 17.1232H6.6567C6.07057 17.1232 5.61005 16.6627 5.61005 16.0766C5.61005 14.0251 7.28469 12.3086 9.37799 12.3086C11.4713 12.3086 13.1459 13.9833 13.1459 16.0766C13.1041 16.6627 12.6435 17.1232 12.0574 17.1232ZM17.7931 27.0455C15.1555 27.0455 12.9785 24.9103 12.9785 22.2309C12.9785 21.6447 13.439 21.1842 14.0251 21.1842H21.561C22.1471 21.1842 22.6077 21.6447 22.6077 22.2309C22.6077 24.9103 20.4725 27.0455 17.7931 27.0455ZM28.9713 17.1232H23.5287C22.9426 17.1232 22.4821 16.6627 22.4821 16.0766C22.4821 14.0251 24.1567 12.3086 26.25 12.3086C28.3433 12.3086 30.0179 13.9833 30.0179 16.0766C30.0179 16.6627 29.5155 17.1232 28.9713 17.1232Z" fill="#D8D8D8"/>
</svg>
