<svg width="21" height="22" viewBox="0 0 21 22" fill="none" xmlns="http://www.w3.org/2000/svg">
<path fill-rule="evenodd" clip-rule="evenodd" d="M10.5 2C5.64702 2 2 5.31381 2 9.075C2 10.414 2.44802 11.6746 3.24457 12.7575L3.49284 13.095L3.14422 15.2645L5.16766 14.6647L5.49676 14.8031L5.49791 14.8036L5.50366 14.806L5.52915 14.8165C5.55222 14.826 5.58724 14.8404 5.63305 14.8589C5.72471 14.8959 5.85932 14.9493 6.02765 15.0137C6.36494 15.1429 6.83438 15.3148 7.36275 15.4864C8.45634 15.8414 9.67151 16.15 10.5 16.15C15.353 16.15 19 12.8362 19 9.075C19 5.31381 15.353 2 10.5 2ZM4.42694 16.9703L0.6653 18.0855L1.38752 13.5908C0.510093 12.269 0 10.727 0 9.075C0 3.9168 4.85957 0 10.5 0C16.1404 0 21 3.9168 21 9.075C21 11.0882 20.2598 12.9122 19.0218 14.3881C19.0033 14.8888 18.9473 15.4368 18.836 15.9735C18.7253 16.507 18.5506 17.075 18.2713 17.5815L18.8177 21.0948L15.4867 20.0746C15.4681 20.082 15.4489 20.0897 15.429 20.0975C15.1833 20.1947 14.8404 20.3245 14.4519 20.4548C13.7132 20.7026 12.6736 21 11.8249 21C10.0706 21 8.31887 20.5738 6.91741 19.7371C5.82331 19.0838 4.91065 18.1565 4.42694 16.9703ZM15.0388 18.0962L15.377 17.9492L16.3508 18.2475L16.1756 17.1208L16.4116 16.7893C16.4771 16.6973 16.5391 16.5881 16.5968 16.4633C14.8583 17.5319 12.7407 18.15 10.5 18.15C9.51168 18.15 8.3057 17.8635 7.29182 17.5595C7.48747 17.7241 7.70479 17.8778 7.94266 18.0198C8.98695 18.6433 10.3724 19 11.8249 19C12.3175 19 13.0841 18.8041 13.816 18.5586C14.1628 18.4423 14.4715 18.3255 14.6934 18.2377C14.804 18.1939 14.8923 18.1577 14.952 18.1328C14.9818 18.1204 15.0045 18.1108 15.0192 18.1046L15.0351 18.0977L15.0388 18.0962Z" fill="#FCD500"/>
</svg>
