<svg width="21" height="22" viewBox="0 0 21 22" fill="none" xmlns="http://www.w3.org/2000/svg">
<g clip-path="url(#clip0_2_20)">
<path fill-rule="evenodd" clip-rule="evenodd" d="M14.3364 5.63547L11.9967 0.924646C11.3823 -0.308215 9.61769 -0.308215 9.00335 0.924646L6.66361 5.63547L1.43513 6.38817C0.0626537 6.58283 -0.486336 8.25692 0.507074 9.21726L4.28465 12.8769L3.39581 18.0549C3.16053 19.4176 4.58529 20.4428 5.81398 19.8069L10.4935 17.3671L15.173 19.8069C16.3886 20.4428 17.8264 19.4046 17.5911 18.0549L16.7023 12.8769L20.4929 9.21726C21.4863 8.25692 20.9373 6.58283 19.5649 6.38817L14.3364 5.63547ZM5.48176 17.7246L10.4935 15.1116L15.5052 17.7246L14.5522 12.1727L18.5954 8.26922L13.0122 7.46546L10.5 2.40741L7.9878 7.46546L2.40307 8.26944L6.4344 12.1749L5.48176 17.7246Z" fill="#FCD500"/>
</g>
<defs>
<clipPath id="clip0_2_20">
<rect width="21" height="22" fill="white"/>
</clipPath>
</defs>
</svg>
