<svg width="346" height="332" viewBox="0 0 346 332" fill="none" xmlns="http://www.w3.org/2000/svg">
<path fill-rule="evenodd" clip-rule="evenodd" d="M236.209 93.5488L197.659 15.3491C187.537 -5.11637 158.463 -5.11637 148.341 15.3491L109.791 93.5488L23.6455 106.044C1.0323 109.275 -8.01297 137.065 8.35465 153.006L70.5947 213.757L55.95 299.712C52.0734 322.331 75.548 339.35 95.7922 328.794L172.892 288.294L249.992 328.794C270.021 339.35 293.711 322.116 289.835 299.712L275.19 213.757L337.645 153.006C354.013 137.065 344.968 109.275 322.355 106.044L236.209 93.5488ZM332.067 147.272L332.064 147.276L266.597 210.954L281.948 301.055L281.952 301.076C284.702 316.971 267.847 329.161 253.722 321.717L253.713 321.712L172.892 279.258L92.0934 321.701C92.0886 321.703 92.0837 321.706 92.0789 321.708C77.6932 329.195 61.0797 317.141 63.835 301.063L79.1859 210.963L13.9364 147.276C2.31914 135.961 8.74779 116.254 24.7772 113.963L24.7855 113.962L115.105 100.862L155.512 18.8958C162.697 4.36808 183.303 4.36808 190.488 18.8958L230.895 100.862L321.215 113.962L321.223 113.963C337.25 116.253 343.679 135.956 332.067 147.272Z" fill="#FCD500"/>
</svg>
