<svg width="25" height="25" viewBox="0 0 25 25" fill="none" xmlns="http://www.w3.org/2000/svg">
<path d="M12.4928 21.1038L17.618 23.7876C18.9494 24.4871 20.5242 23.345 20.2665 21.8604L12.4928 21.1038ZM12.4928 21.1038L7.36769 23.7876M12.4928 21.1038L4.71922 21.8604M7.36769 23.7876C6.02198 24.4871 4.46153 23.3593 4.71922 21.8604M7.36769 23.7876L6.9038 22.9017L6.90523 22.9009M7.36769 23.7876L6.90648 22.9003L12.029 20.2179L12.4928 19.975L12.9567 20.2179L18.0819 22.9017L18.0831 22.9023C18.6827 23.2174 19.3965 22.6956 19.2812 22.0314L19.2808 22.0289L18.3073 16.3331L18.2185 15.8136L18.5968 15.4467L22.748 11.4215L6.90523 22.9009M4.71922 21.8604L5.69271 16.1646M4.71922 21.8604L5.69271 16.1646M6.90523 22.9009C6.2855 23.2219 5.58877 22.7045 5.70476 22.0299L5.70492 22.0289L6.67842 16.3331L6.76702 15.8146L6.39007 15.4479L2.25273 11.4223L2.25196 11.4215C1.76255 10.9463 2.02912 10.1144 2.71283 10.017L2.71491 10.0167L8.44133 9.18873L8.9616 9.11351L9.19462 8.6423L11.7566 3.46156C11.7567 3.46137 11.7568 3.46119 11.7569 3.461C12.0624 2.84633 12.9376 2.84633 13.2431 3.46102C13.2432 3.4612 13.2433 3.46138 13.2434 3.46156L15.8054 8.6423L16.0384 9.11351L16.5587 9.18873L22.2851 10.0167L22.2872 10.017C22.9707 10.1144 23.2373 10.9458 22.7485 11.4211L6.90523 22.9009ZM5.69271 16.1646L1.55537 12.139M5.69271 16.1646L1.55537 12.139M1.55537 12.139C0.467346 11.0826 1.06862 9.24111 2.57181 9.02698L1.55537 12.139Z" stroke="#FCD500" stroke-width="2"/>
</svg>
