<svg width="59" height="59" viewBox="0 0 59 59" fill="none" xmlns="http://www.w3.org/2000/svg">
<path d="M22.2709 35.7512C23.2739 35.5884 23.9551 34.6433 23.7923 33.6402C23.6295 32.6371 22.6844 31.956 21.6813 32.1187C20.6782 32.2815 19.9971 33.2267 20.1598 34.2298C20.3226 35.2328 21.2678 35.914 22.2709 35.7512Z" fill="#FFDA00"/>
<path d="M38.6261 34.633C39.015 33.6941 38.5691 32.6178 37.6303 32.2289C36.6914 31.84 35.615 32.2858 35.2262 33.2247C34.8373 34.1635 35.2831 35.2399 36.2219 35.6288C37.1608 36.0177 38.2372 35.5718 38.6261 34.633Z" fill="#FFDA00"/>
<path d="M29.6056 40.2986C28.3839 40.2986 27.3735 39.3032 27.3735 38.0665H25.5637C25.5637 40.2986 27.3735 42.1084 29.6056 42.1084C31.8377 42.1084 33.6475 40.2986 33.6475 38.0665H31.8377C31.8226 39.3032 30.8272 40.2986 29.6056 40.2986Z" fill="#FFDA00"/>
<path d="M29.5 0C13.2117 0 0 13.2117 0 29.5C0 45.7883 13.2117 59 29.5 59C45.7883 59 59 45.7883 59 29.5C59 13.2117 45.7883 0 29.5 0ZM29.6056 45.2303C22.1401 45.2303 16.0772 39.1825 16.0772 31.7019C16.0772 30.1485 16.3487 28.6403 16.8313 27.2528L24.4476 30.4803L25.4128 30.8875L26.4233 30.601L41.9877 26.2876C42.7117 27.9466 43.1189 29.7715 43.1189 31.7019C43.1189 39.1825 37.0711 45.2303 29.6056 45.2303ZM50.3129 20.8581L25.624 27.6902L8.77761 20.5716C7.93303 20.2096 8.00843 18.9729 8.89826 18.7316L33.6022 12.0051L50.4185 19.0181C51.2781 19.3801 51.2027 20.6168 50.3129 20.8581Z" fill="#FFDA00"/>
</svg>
