<?xml version="1.0" encoding="utf-8"?>
<!-- Generator: Adobe Illustrator 24.0.0, SVG Export Plug-In . SVG Version: 6.00 Build 0)  -->
<svg version="1.1" id="Слой_1" xmlns="http://www.w3.org/2000/svg" xmlns:xlink="http://www.w3.org/1999/xlink" x="0px" y="0px"
	 viewBox="0 0 50 50.1" style="enable-background:new 0 0 50 50.1;" xml:space="preserve">
<style type="text/css">
	.st0{fill-rule:evenodd;clip-rule:evenodd;fill:#FFFFFF;}
	.st1{fill-rule:evenodd;clip-rule:evenodd;fill:#FDD500;}
</style>
<g>
	<circle class="st0" cx="25" cy="25" r="18.9"/>
	<path class="st1" d="M25,0.1C11.2,0.1,0,11.3,0,25c0,13.5,10.7,24.4,24,25v0h1h0h0h22l-5.1-6.6c5-4.6,8.1-11.1,8.1-18.4
		C50,11.3,38.8,0.1,25,0.1z M34,14.5v-4.2H15.8v4.2h6.6v17.7h4.9V14.5H34z M12.2,34.7h25.5v2.5H12.2V34.7z M34.8,39.7H15v2.5h19.8
		V39.7z"/>
</g>
</svg>
