<svg width="60" height="60" viewBox="0 0 60 60" fill="none" xmlns="http://www.w3.org/2000/svg">
<path d="M34.3933 2.875H42.5938V0.9375H33.875C33.7156 0.937476 33.5586 0.97681 33.418 1.05201C33.2774 1.12721 33.1575 1.23596 33.069 1.36859L31.1315 4.27484L32.7435 5.35016L34.3933 2.875Z" fill="#FCD500"/>
<path d="M25.6067 57.125H17.4062V59.0625H26.125C26.2844 59.0625 26.4414 59.0232 26.582 58.948C26.7226 58.8728 26.8425 58.764 26.931 58.6314L28.8685 55.7251L27.2565 54.6498L25.6067 57.125Z" fill="#FCD500"/>
<path d="M40.6562 22.25C37.2852 22.2456 33.9793 23.178 31.1073 24.9431L30.6045 24.2388C30.8165 23.795 31.0044 23.34 31.1673 22.8758L35.0036 22.2364C35.2296 22.1986 35.4349 22.0819 35.583 21.907C35.7311 21.7321 35.8124 21.5104 35.8125 21.2812V15.4688C35.8124 15.2396 35.7311 15.0179 35.583 14.843C35.4349 14.6681 35.2296 14.5514 35.0036 14.5136L31.1673 13.8742C31.0044 13.41 30.8165 12.955 30.6045 12.5112L32.8636 9.34819C32.9968 9.16157 33.0594 8.93378 33.0405 8.70532C33.0215 8.47685 32.9221 8.26253 32.76 8.10044L28.6496 3.99003C28.4875 3.82791 28.2731 3.72852 28.0447 3.70954C27.8162 3.69057 27.5884 3.75322 27.4018 3.88638L24.2388 6.1455C23.7949 5.93512 23.3399 5.74885 22.8758 5.5875L22.2364 1.75125C22.1997 1.52434 22.0834 1.3179 21.9084 1.16882C21.7334 1.01975 21.5111 0.937757 21.2812 0.9375H15.4688C15.2396 0.937567 15.0179 1.01887 14.843 1.16698C14.6681 1.31508 14.5514 1.52038 14.5136 1.74641L13.8742 5.58266C13.41 5.74559 12.955 5.93348 12.5112 6.1455L9.34819 3.88638C9.16157 3.75322 8.93378 3.69057 8.70532 3.70954C8.47685 3.72852 8.26253 3.82791 8.10044 3.99003L3.99003 8.10044C3.82791 8.26253 3.72852 8.47685 3.70954 8.70532C3.69057 8.93378 3.75322 9.16157 3.88638 9.34819L6.15616 12.5257C5.94583 12.9634 5.7605 13.4126 5.60106 13.8713L1.74641 14.5136C1.52038 14.5514 1.31508 14.6681 1.16698 14.843C1.01887 15.0179 0.937567 15.2396 0.9375 15.4688V21.2812C0.937567 21.5104 1.01887 21.7321 1.16698 21.907C1.31508 22.0819 1.52038 22.1986 1.74641 22.2364L5.60009 22.8787C5.75879 23.3398 5.94083 23.7924 6.1455 24.235L3.88638 27.4018C3.75322 27.5884 3.69057 27.8162 3.70954 28.0447C3.72852 28.2731 3.82791 28.4875 3.99003 28.6496L8.10044 32.76C8.26253 32.9221 8.47685 33.0215 8.70532 33.0405C8.93378 33.0594 9.16157 32.9968 9.34819 32.8636L12.5112 30.6045C12.955 30.8165 13.41 31.0044 13.8742 31.1673L14.5136 35.0036C14.5514 35.2296 14.6681 35.4349 14.843 35.583C15.0179 35.7311 15.2396 35.8124 15.4688 35.8125H21.2812C21.5104 35.8124 21.7321 35.7311 21.907 35.583C22.0819 35.4349 22.1986 35.2296 22.2364 35.0036L22.8758 31.1673C23.34 31.0044 23.795 30.8165 24.2388 30.6045L24.9431 31.1073C23.178 33.9793 22.2456 37.2852 22.25 40.6562C22.25 44.2967 23.3295 47.8553 25.352 50.8822C27.3745 53.9091 30.2492 56.2683 33.6125 57.6614C36.9758 59.0545 40.6767 59.419 44.2471 58.7088C47.8176 57.9986 51.0973 56.2456 53.6714 53.6714C56.2456 51.0973 57.9986 47.8176 58.7088 44.2471C59.419 40.6767 59.0545 36.9758 57.6614 33.6125C56.2683 30.2492 53.9091 27.3745 50.8822 25.352C47.8553 23.3295 44.2967 22.25 40.6562 22.25ZM23.8659 28.6215C23.1865 28.9848 22.4725 29.2794 21.7346 29.5011C21.5611 29.5529 21.4055 29.6524 21.2857 29.7882C21.1658 29.924 21.0864 30.0907 21.0565 30.2693L20.4607 33.875H16.2893L15.6887 30.2693C15.6587 30.0907 15.5793 29.924 15.4595 29.7882C15.3396 29.6524 15.1841 29.5529 15.0105 29.5011C14.2726 29.2794 13.5587 28.9848 12.8793 28.6215C12.72 28.5359 12.5399 28.4967 12.3595 28.5081C12.179 28.5196 12.0054 28.5813 11.8582 28.6864L8.88416 30.8099L5.94012 27.861L8.06362 24.8869C8.16865 24.7398 8.2304 24.5661 8.24187 24.3857C8.25334 24.2052 8.21408 24.0252 8.12853 23.8659C7.76584 23.1692 7.46658 22.4413 7.23438 21.691C7.17635 21.5286 7.07598 21.3845 6.94365 21.2738C6.81132 21.1631 6.65183 21.0898 6.48166 21.0613L2.875 20.4607V16.2893L6.48069 15.6887C6.65086 15.6602 6.81035 15.5869 6.94268 15.4762C7.07501 15.3655 7.17538 15.2214 7.23341 15.059C7.48287 14.2977 7.78954 13.5565 8.15081 12.8415C8.22482 12.6854 8.25576 12.5124 8.24043 12.3404C8.2251 12.1684 8.16406 12.0036 8.06362 11.8631L5.94012 8.889L8.889 5.94012L11.8631 8.06362C12.0102 8.16865 12.1839 8.2304 12.3643 8.24187C12.5448 8.25334 12.7248 8.21408 12.8841 8.12853C13.5635 7.76523 14.2775 7.47056 15.0154 7.24891C15.1889 7.19706 15.3445 7.09759 15.4643 6.9618C15.5842 6.826 15.6636 6.65933 15.6935 6.48069L16.2893 2.875H20.4607L21.0613 6.48069C21.0913 6.65933 21.1707 6.826 21.2905 6.9618C21.4104 7.09759 21.5659 7.19706 21.7395 7.24891C22.4774 7.47056 23.1913 7.76523 23.8707 8.12853C24.03 8.21408 24.2101 8.25334 24.3905 8.24187C24.571 8.2304 24.7446 8.16865 24.8918 8.06362L27.8658 5.94012L30.8147 8.889L28.6912 11.8631C28.5862 12.0102 28.5244 12.1839 28.513 12.3643C28.5015 12.5448 28.5408 12.7248 28.6263 12.8841C28.9896 13.5635 29.2843 14.2775 29.5059 15.0154C29.5578 15.1889 29.6573 15.3445 29.793 15.4643C29.9288 15.5842 30.0955 15.6636 30.2742 15.6935L33.8798 16.2941V20.4656L30.2742 21.0662C30.0955 21.0961 29.9288 21.1755 29.793 21.2954C29.6573 21.4152 29.5578 21.5708 29.5059 21.7443C29.2843 22.4822 28.9896 23.1961 28.6263 23.8756C28.5408 24.0349 28.5015 24.2149 28.513 24.3954C28.5244 24.5758 28.5862 24.7494 28.6912 24.8966L30.8147 27.8707L27.8658 30.8196L24.8918 28.6961C24.745 28.5886 24.571 28.5245 24.3895 28.5114C24.2081 28.4982 24.0266 28.5363 23.8659 28.6215ZM41.625 57.0756V54.2188H39.6875V57.0756C35.6683 56.8352 31.8765 55.1302 29.0294 52.2831C26.1823 49.436 24.4773 45.6442 24.2369 41.625H27.0938V39.6875H24.2233C24.372 37.0534 25.1607 34.4953 26.5212 32.2349L27.4018 32.8636C27.5884 32.9968 27.8162 33.0594 28.0447 33.0405C28.2731 33.0215 28.4875 32.9221 28.6496 32.76L32.76 28.6496C32.9221 28.4875 33.0215 28.2731 33.0405 28.0447C33.0594 27.8162 32.9968 27.5884 32.8636 27.4018L32.2349 26.5212C34.4953 25.1607 37.0534 24.372 39.6875 24.2233V27.0938H41.625V24.2369C45.6442 24.4773 49.436 26.1823 52.2831 29.0294C55.1302 31.8765 56.8352 35.6683 57.0756 39.6875H54.2188V41.625H57.0756C56.8352 45.6442 55.1302 49.436 52.2831 52.2831C49.436 55.1302 45.6442 56.8352 41.625 57.0756Z" fill="#FCD500"/>
<path d="M41.625 29.0312H39.6875V40.6562C39.6875 40.9132 39.7896 41.1596 39.9712 41.3413C40.1529 41.5229 40.3993 41.625 40.6562 41.625H48.4062V39.6875H41.625V29.0312Z" fill="#FCD500"/>
<path d="M23.2188 15.4687H19.3438V9.65622C19.3437 9.43504 19.2678 9.22057 19.1289 9.04844C18.99 8.87631 18.7964 8.7569 18.5803 8.71005C18.3641 8.66319 18.1384 8.69172 17.9407 8.79089C17.743 8.89005 17.5852 9.05389 17.4935 9.25516L12.6497 19.9114C12.5826 20.059 12.5536 20.221 12.5654 20.3826C12.5771 20.5443 12.6292 20.7004 12.7169 20.8367C12.8047 20.973 12.9252 21.0852 13.0674 21.1628C13.2097 21.2405 13.3692 21.2812 13.5313 21.2812H17.4063V27.0937C17.4061 27.3151 17.4818 27.5299 17.6207 27.7022C17.7596 27.8746 17.9533 27.9942 18.1697 28.0412C18.2372 28.0554 18.306 28.0625 18.375 28.0625C18.561 28.0624 18.743 28.0089 18.8993 27.9082C19.0556 27.8075 19.1796 27.664 19.2566 27.4948L24.1004 16.8385C24.1675 16.691 24.1965 16.529 24.1847 16.3673C24.173 16.2056 24.1209 16.0495 24.0332 15.9132C23.9454 15.7769 23.8249 15.6648 23.6826 15.5871C23.5404 15.5095 23.3809 15.4688 23.2188 15.4687ZM19.3438 22.621V20.3125C19.3438 20.0555 19.2417 19.8091 19.0601 19.6275C18.8784 19.4458 18.632 19.3437 18.375 19.3437H15.0358L17.4063 14.1289V16.4375C17.4063 16.6944 17.5084 16.9408 17.69 17.1225C17.8717 17.3042 18.1181 17.4062 18.375 17.4062H21.7143L19.3438 22.621Z" fill="#FCD500"/>
<path d="M19.3438 4.8125H17.4062V6.75H19.3438V4.8125Z" fill="#FCD500"/>
<path d="M9.47007 8.10022L8.10005 9.47024L9.47007 10.8403L10.8401 9.47024L9.47007 8.10022Z" fill="#FCD500"/>
<path d="M6.75 17.4062H4.8125V19.3438H6.75V17.4062Z" fill="#FCD500"/>
<path d="M9.46948 25.9092L8.09946 27.2792L9.46948 28.6492L10.8395 27.2792L9.46948 25.9092Z" fill="#FCD500"/>
<path d="M19.3438 30H17.4062V31.9375H19.3438V30Z" fill="#FCD500"/>
<path d="M27.2795 25.9097L25.9094 27.2798L27.2795 28.6498L28.6495 27.2798L27.2795 25.9097Z" fill="#FCD500"/>
<path d="M31.9375 17.4062H30V19.3438H31.9375V17.4062Z" fill="#FCD500"/>
<path d="M27.2801 8.10075L25.91 9.47077L27.2801 10.8408L28.6501 9.47077L27.2801 8.10075Z" fill="#FCD500"/>
<path d="M50.3437 5.78125C49.5773 5.78125 48.8281 6.00851 48.1909 6.43431C47.5536 6.8601 47.057 7.46529 46.7637 8.17335C46.4704 8.88141 46.3937 9.66055 46.5432 10.4122C46.6927 11.1639 47.0618 11.8544 47.6037 12.3963C48.1456 12.9382 48.8361 13.3073 49.5877 13.4568C50.3394 13.6063 51.1186 13.5296 51.8266 13.2363C52.5347 12.943 53.1399 12.4463 53.5657 11.8091C53.9915 11.1718 54.2187 10.4227 54.2187 9.65625C54.2187 8.62854 53.8105 7.64291 53.0838 6.91621C52.3571 6.18951 51.3714 5.78125 50.3437 5.78125ZM50.3437 11.5938C49.9605 11.5938 49.5859 11.4801 49.2673 11.2672C48.9487 11.0543 48.7004 10.7517 48.5537 10.3977C48.4071 10.0437 48.3687 9.6541 48.4435 9.27826C48.5182 8.90242 48.7027 8.5572 48.9737 8.28623C49.2447 8.01527 49.5899 7.83074 49.9657 7.75598C50.3416 7.68122 50.7311 7.71959 51.0852 7.86623C51.4392 8.01288 51.7418 8.26121 51.9547 8.57983C52.1676 8.89845 52.2812 9.27305 52.2812 9.65625C52.2812 10.1701 52.0771 10.6629 51.7137 11.0263C51.3504 11.3896 50.8576 11.5938 50.3437 11.5938Z" fill="#FCD500"/>
<path d="M58.3292 6.77906L57.6811 6.61728L58.025 6.04475C58.1361 5.85939 58.1821 5.64217 58.1556 5.42766C58.1291 5.21315 58.0316 5.01366 57.8787 4.86094L55.1391 2.12131C54.9863 1.96836 54.7869 1.87088 54.5723 1.84437C54.3578 1.81786 54.1406 1.86386 53.9552 1.97503L53.3827 2.31894L53.2209 1.67084C53.1685 1.46135 53.0475 1.27541 52.8772 1.14254C52.707 1.00967 52.4972 0.937506 52.2812 0.9375H48.4062C48.1903 0.937506 47.9805 1.00967 47.8103 1.14254C47.64 1.27541 47.519 1.46135 47.4666 1.67084L47.3048 2.31894L46.7323 1.97503C46.5469 1.86386 46.3297 1.81786 46.1152 1.84437C45.9006 1.87088 45.7012 1.96836 45.5484 2.12131L42.8088 4.86094C42.6559 5.01366 42.5584 5.21315 42.5319 5.42766C42.5054 5.64217 42.5514 5.85939 42.6625 6.04475L43.0064 6.61728L42.3583 6.77906C42.1489 6.83154 41.9629 6.95252 41.83 7.12277C41.6972 7.29302 41.625 7.50279 41.625 7.71875V11.5938C41.625 11.8097 41.6972 12.0195 41.83 12.1897C41.9629 12.36 42.1489 12.481 42.3583 12.5334L43.0064 12.6952L42.6625 13.2677C42.5514 13.4531 42.5054 13.6703 42.5319 13.8848C42.5584 14.0994 42.6559 14.2988 42.8088 14.4516L45.5484 17.1912C45.7012 17.3441 45.9006 17.4416 46.1152 17.4681C46.3297 17.4946 46.5469 17.4486 46.7323 17.3375L47.3048 16.9936L47.4666 17.6417C47.519 17.8511 47.64 18.0371 47.8103 18.17C47.9805 18.3028 48.1903 18.375 48.4062 18.375H52.2812C52.4972 18.375 52.707 18.3028 52.8772 18.17C53.0475 18.0371 53.1685 17.8511 53.2209 17.6417L53.3827 16.9936L53.9552 17.3375C54.1406 17.4486 54.3578 17.4946 54.5723 17.4681C54.7869 17.4416 54.9863 17.3441 55.1391 17.1912L57.8787 14.4516C58.0316 14.2988 58.1291 14.0994 58.1556 13.8848C58.1821 13.6703 58.1361 13.4531 58.025 13.2677L57.6811 12.6952L58.3292 12.5334C58.5386 12.481 58.7246 12.36 58.8575 12.1897C58.9903 12.0195 59.0625 11.8097 59.0625 11.5938V7.71875C59.0625 7.50279 58.9903 7.29302 58.8575 7.12277C58.7246 6.95252 58.5386 6.83154 58.3292 6.77906ZM57.125 10.8372L55.9422 11.1278C55.7954 11.1646 55.6592 11.2353 55.5447 11.3342C55.4301 11.4331 55.3403 11.5574 55.2825 11.6973C55.2247 11.8372 55.2004 11.9886 55.2117 12.1395C55.2229 12.2905 55.2694 12.4366 55.3473 12.5664L55.9741 13.6117L54.304 15.2818L53.2587 14.655C53.129 14.5771 52.9828 14.5306 52.8319 14.5193C52.681 14.5081 52.5295 14.5323 52.3896 14.5901C52.2498 14.648 52.1254 14.7378 52.0265 14.8523C51.9276 14.9669 51.8569 15.103 51.8201 15.2498L51.5247 16.4375H49.1628L48.8722 15.2547C48.8354 15.1079 48.7647 14.9717 48.6658 14.8572C48.5669 14.7426 48.4426 14.6528 48.3027 14.595C48.1628 14.5372 48.0114 14.5129 47.8605 14.5242C47.7095 14.5354 47.5634 14.5819 47.4336 14.6598L46.3883 15.2866L44.7182 13.6165L45.345 12.5712C45.4229 12.4415 45.4694 12.2953 45.4807 12.1444C45.4919 11.9935 45.4677 11.842 45.4099 11.7021C45.352 11.5623 45.2622 11.4379 45.1477 11.339C45.0331 11.2401 44.897 11.1694 44.7502 11.1326L43.5625 10.8372V8.47534L44.7453 8.18472C44.8921 8.14792 45.0283 8.07723 45.1428 7.97833C45.2574 7.87943 45.3472 7.75506 45.405 7.6152C45.4628 7.47535 45.4871 7.32388 45.4758 7.17296C45.4646 7.02204 45.4181 6.87585 45.3402 6.74612L44.7134 5.70084L46.3835 4.03072L47.4288 4.6575C47.5586 4.73544 47.7048 4.78187 47.8558 4.79308C48.0068 4.80428 48.1583 4.77994 48.2982 4.72201C48.438 4.66408 48.5624 4.57418 48.6612 4.45951C48.7601 4.34484 48.8307 4.2086 48.8674 4.06172L49.158 2.87984H51.5198L51.8104 4.06172C51.8471 4.2086 51.9177 4.34484 52.0166 4.45951C52.1154 4.57418 52.2398 4.66408 52.3797 4.72201C52.5195 4.77994 52.671 4.80428 52.822 4.79308C52.973 4.78187 53.1192 4.73544 53.249 4.6575L54.2943 4.03072L55.9644 5.70084L55.3377 6.74612C55.2597 6.87585 55.2132 7.02204 55.202 7.17296C55.1907 7.32388 55.215 7.47535 55.2728 7.6152C55.3306 7.75506 55.4204 7.87943 55.535 7.97833C55.6495 8.07723 55.7857 8.14792 55.9325 8.18472L57.1153 8.47534L57.125 10.8372Z" fill="#FCD500"/>
<path d="M9.65624 46.4688C8.88983 46.4688 8.14064 46.696 7.5034 47.1218C6.86616 47.5476 6.36949 48.1528 6.0762 48.8609C5.78291 49.5689 5.70618 50.348 5.85569 51.0997C6.00521 51.8514 6.37427 52.5419 6.9162 53.0838C7.45813 53.6257 8.14858 53.9948 8.90026 54.1443C9.65194 54.2938 10.4311 54.2171 11.1391 53.9238C11.8472 53.6305 12.4524 53.1338 12.8782 52.4966C13.304 51.8593 13.5312 51.1102 13.5312 50.3438C13.5312 49.316 13.123 48.3304 12.3963 47.6037C11.6696 46.877 10.684 46.4688 9.65624 46.4688ZM9.65624 52.2813C9.27304 52.2813 8.89844 52.1676 8.57982 51.9547C8.2612 51.7418 8.01286 51.4392 7.86622 51.0852C7.71957 50.7312 7.68121 50.3416 7.75596 49.9658C7.83072 49.5899 8.01525 49.2447 8.28622 48.9737C8.55718 48.7028 8.90241 48.5182 9.27825 48.4435C9.65409 48.3687 10.0437 48.4071 10.3977 48.5537C10.7517 48.7004 11.0543 48.9487 11.2672 49.2673C11.4801 49.586 11.5937 49.9606 11.5937 50.3438C11.5937 50.8576 11.3896 51.3504 11.0263 51.7138C10.6629 52.0771 10.1701 52.2813 9.65624 52.2813Z" fill="#FCD500"/>
<path d="M17.3375 53.9552L16.9936 53.3827L17.6417 53.2209C17.8511 53.1685 18.0371 53.0475 18.17 52.8772C18.3028 52.707 18.375 52.4972 18.375 52.2812V48.4062C18.375 48.1903 18.3028 47.9805 18.17 47.8103C18.0371 47.64 17.8511 47.519 17.6417 47.4666L16.9936 47.3048L17.3375 46.7323C17.4486 46.5469 17.4946 46.3297 17.4681 46.1152C17.4416 45.9006 17.3441 45.7012 17.1912 45.5484L14.4516 42.8088C14.2988 42.6559 14.0994 42.5584 13.8848 42.5319C13.6703 42.5054 13.4531 42.5514 13.2677 42.6625L12.6952 43.0064L12.5334 42.3583C12.481 42.1489 12.36 41.9629 12.1897 41.83C12.0195 41.6972 11.8097 41.625 11.5938 41.625H7.71875C7.50279 41.625 7.29302 41.6972 7.12277 41.83C6.95252 41.9629 6.83154 42.1489 6.77906 42.3583L6.61728 43.0064L6.04475 42.6625C5.85939 42.5514 5.64217 42.5054 5.42766 42.5319C5.21315 42.5584 5.01366 42.6559 4.86094 42.8088L2.12131 45.5484C1.96836 45.7012 1.87088 45.9006 1.84437 46.1152C1.81786 46.3297 1.86386 46.5469 1.97503 46.7323L2.31894 47.3048L1.67084 47.4666C1.46135 47.519 1.27541 47.64 1.14254 47.8103C1.00967 47.9805 0.937506 48.1903 0.9375 48.4062V52.2812C0.937506 52.4972 1.00967 52.707 1.14254 52.8772C1.27541 53.0475 1.46135 53.1685 1.67084 53.2209L2.31894 53.3827L1.97503 53.9552C1.86386 54.1406 1.81786 54.3578 1.84437 54.5723C1.87088 54.7869 1.96836 54.9863 2.12131 55.1391L4.86094 57.8787C5.01366 58.0316 5.21315 58.1291 5.42766 58.1556C5.64217 58.1821 5.85939 58.1361 6.04475 58.025L6.61728 57.6811L6.77906 58.3292C6.83154 58.5386 6.95252 58.7246 7.12277 58.8575C7.29302 58.9903 7.50279 59.0625 7.71875 59.0625H11.5938C11.8097 59.0625 12.0195 58.9903 12.1897 58.8575C12.36 58.7246 12.481 58.5386 12.5334 58.3292L12.6952 57.6811L13.2677 58.025C13.4531 58.1361 13.6703 58.1821 13.8848 58.1556C14.0994 58.1291 14.2988 58.0316 14.4516 57.8787L17.1912 55.1391C17.3441 54.9863 17.4416 54.7869 17.4681 54.5723C17.4946 54.3578 17.4486 54.1406 17.3375 53.9552ZM16.4375 51.5247L15.2547 51.8153C15.1079 51.8521 14.9717 51.9228 14.8572 52.0217C14.7426 52.1206 14.6528 52.2449 14.595 52.3848C14.5372 52.5247 14.5129 52.6761 14.5242 52.827C14.5354 52.978 14.5819 53.1241 14.6598 53.2539L15.2866 54.2992L13.6165 55.9693L12.5712 55.3425C12.4415 55.2646 12.2953 55.2181 12.1444 55.2068C11.9935 55.1956 11.842 55.2198 11.7021 55.2776C11.5623 55.3355 11.4379 55.4253 11.339 55.5398C11.2401 55.6544 11.1694 55.7905 11.1326 55.9373L10.8372 57.125H8.47534L8.18472 55.9422C8.14792 55.7954 8.07723 55.6592 7.97833 55.5447C7.87943 55.4301 7.75506 55.3403 7.6152 55.2825C7.47535 55.2247 7.32388 55.2004 7.17296 55.2117C7.02204 55.2229 6.87585 55.2694 6.74612 55.3473L5.70084 55.9741L4.02588 54.304L4.65266 53.2587C4.7306 53.129 4.77707 52.9828 4.78833 52.8319C4.79959 52.681 4.77534 52.5295 4.71751 52.3896C4.65968 52.2498 4.56989 52.1254 4.45533 52.0265C4.34078 51.9276 4.20464 51.8569 4.05784 51.8201L2.875 51.5247V49.1628L4.05784 48.8722C4.20464 48.8354 4.34078 48.7647 4.45533 48.6658C4.56989 48.5669 4.65968 48.4426 4.71751 48.3027C4.77534 48.1628 4.79959 48.0114 4.78833 47.8605C4.77707 47.7095 4.7306 47.5634 4.65266 47.4336L4.02588 46.3883L5.696 44.7182L6.74128 45.345C6.87107 45.4229 7.01733 45.4694 7.16831 45.4806C7.31929 45.4918 7.47079 45.4674 7.61066 45.4095C7.75054 45.3516 7.87489 45.2617 7.97374 45.147C8.07259 45.0323 8.14319 44.8961 8.17987 44.7492L8.4705 43.5673H10.8323L11.1229 44.7492C11.1596 44.8961 11.2302 45.0323 11.3291 45.147C11.4279 45.2617 11.5523 45.3516 11.6921 45.4095C11.832 45.4674 11.9835 45.4918 12.1345 45.4806C12.2855 45.4694 12.4317 45.4229 12.5615 45.345L13.6068 44.7182L15.2769 46.3883L14.6502 47.4336C14.5722 47.5634 14.5257 47.7095 14.5145 47.8605C14.5032 48.0114 14.5275 48.1628 14.5853 48.3027C14.6431 48.4426 14.7329 48.5669 14.8475 48.6658C14.962 48.7647 15.0982 48.8354 15.245 48.8722L16.4278 49.1628L16.4375 51.5247Z" fill="#FCD500"/>
</svg>
