<svg width="23" height="22" viewBox="0 0 23 22" fill="none" xmlns="http://www.w3.org/2000/svg">
<path d="M10.7986 0.0202884C5.21578 0.360875 0.743254 4.89687 0.508681 10.4237C0.43049 12.4053 0.883997 14.2785 1.72846 15.904L0.805807 20.7187C0.665063 21.4927 1.35314 22.143 2.13505 21.9727L6.98289 20.827C8.37469 21.4463 9.92288 21.8024 11.5649 21.7869C17.4448 21.7559 22.3083 17.0496 22.496 11.2287C22.668 4.83495 17.2885 -0.366742 10.7986 0.0202884ZM15.4588 11.6622L9.26607 15.1919C8.75001 15.486 8.10884 15.1145 8.10884 14.5417V7.45127C8.10884 6.86299 8.75001 6.50692 9.26607 6.80106L15.4588 10.3463C15.9749 10.6404 15.9749 11.368 15.4588 11.6622Z" fill="#FCD500"/>
</svg>
