<svg width="25" height="25" viewBox="0 0 25 25" fill="none" xmlns="http://www.w3.org/2000/svg">
<g id="vk">
<path id="Oval" fill-rule="evenodd" clip-rule="evenodd" d="M12.5 25C19.4036 25 25 19.4036 25 12.5C25 5.59644 19.4036 0 12.5 0C5.59644 0 0 5.59644 0 12.5C0 19.4036 5.59644 25 12.5 25Z" fill="#FCD500"/>
<path id="Combined Shape" d="M17.5276 14.0379C18.0311 14.4978 18.5625 14.9305 19.0141 15.4367C19.2136 15.6617 19.4024 15.8938 19.5469 16.1549C19.7516 16.5261 19.5662 16.9345 19.2105 16.9566L16.9992 16.9557C16.4289 17 15.974 16.7852 15.5914 16.4204C15.2852 16.1287 15.0017 15.8182 14.7073 15.5166C14.5867 15.3933 14.4603 15.2774 14.3094 15.1857C14.0076 15.0024 13.7455 15.0585 13.573 15.353C13.3973 15.6526 13.3575 15.9843 13.3402 16.3182C13.3166 16.8053 13.1592 16.9333 12.6361 16.9556C11.5183 17.005 10.4575 16.8468 9.47199 16.3192C8.60315 15.8542 7.9294 15.1977 7.34297 14.4544C6.20119 13.0072 5.32681 11.4169 4.54095 9.78201C4.36406 9.41367 4.49342 9.21595 4.92785 9.20895C5.64922 9.19584 6.3705 9.19678 7.09272 9.20802C7.38591 9.21203 7.58001 9.36935 7.69321 9.62847C8.0835 10.5262 8.56106 11.3804 9.1605 12.1721C9.32014 12.3829 9.48291 12.5937 9.71471 12.742C9.97115 12.9063 10.1664 12.8519 10.287 12.5846C10.3636 12.4152 10.3971 12.2327 10.4143 12.0512C10.4715 11.4268 10.479 10.8035 10.3788 10.1813C10.3172 9.79302 10.0835 9.54164 9.66928 9.46816C9.45793 9.4307 9.4894 9.35713 9.59173 9.24427C9.76947 9.04963 9.93664 8.92847 10.2699 8.92847H12.7689C13.1624 9.00111 13.2497 9.16645 13.3036 9.53679L13.3057 12.1337C13.3014 12.2771 13.3823 12.7025 13.6583 12.7974C13.8792 12.865 14.0249 12.6996 14.1574 12.5686C14.7558 11.9745 15.1828 11.2724 15.5643 10.5454C15.7336 10.2257 15.8792 9.8937 16.0203 9.56198C16.1248 9.31584 16.2888 9.19472 16.5852 9.20009L18.9904 9.20209C19.0617 9.20209 19.1339 9.20307 19.203 9.21413C19.6083 9.27875 19.7193 9.44185 19.5942 9.8121C19.3969 10.393 19.0132 10.8771 18.6379 11.3634C18.2368 11.8826 17.8078 12.384 17.4101 12.9063C17.0446 13.3833 17.0736 13.6237 17.5276 14.0379Z" fill="white"/>
</g>
</svg>
