<svg xmlns="http://www.w3.org/2000/svg" width="22" height="17" viewBox="0 0 22 17">
    <g fill="#FCD500" fill-rule="nonzero">
        <path d="M6.386 11.814c.617 0 1.214-.041 1.78-.119V5.248a13.164 13.164 0 0 0-1.78-.119C2.859 5.129 0 6.479 0 8.145v.654c0 1.665 2.859 3.015 6.386 3.015zM6.386 15.181c.617 0 1.214-.042 1.78-.119v-1.89c-.566.078-1.163.12-1.78.12-3.079 0-5.648-1.03-6.252-2.398-.088.2-.134.406-.134.617v.654c0 1.666 2.859 3.016 6.386 3.016zM15.593.022c-3.527 0-6.386 1.35-6.386 3.015v.654c0 1.666 2.859 3.016 6.386 3.016 3.526 0 6.385-1.35 6.385-3.016v-.654c0-1.665-2.859-3.015-6.385-3.015z"/>
        <path d="M15.593 8.184c-3.079 0-5.648-1.028-6.252-2.398-.087.2-.134.406-.134.618v.654c0 1.665 2.859 3.016 6.386 3.016 3.526 0 6.385-1.35 6.385-3.016v-.654c0-.212-.046-.418-.134-.618-.604 1.37-3.173 2.398-6.251 2.398z"/>
        <path d="M15.593 11.551c-3.079 0-5.648-1.029-6.252-2.398-.087.2-.134.406-.134.618v.654c0 1.665 2.859 3.015 6.386 3.015 3.526 0 6.385-1.35 6.385-3.015V9.77c0-.212-.046-.419-.134-.618-.604 1.37-3.173 2.398-6.251 2.398z"/>
        <path d="M15.593 15.1c-3.079 0-5.648-1.03-6.252-2.398-.087.2-.134.406-.134.617v.654c0 1.666 2.859 3.016 6.386 3.016 3.526 0 6.385-1.35 6.385-3.016v-.654a1.52 1.52 0 0 0-.134-.617C21.24 14.07 18.67 15.1 15.593 15.1z"/>
    </g>
</svg>
