<svg xmlns="http://www.w3.org/2000/svg" width="25" height="25" viewBox="0 0 25 25">
    <g fill="none" fill-rule="evenodd">
        <circle cx="12.5" cy="12.5" r="12.5" fill="#FCD500"/>
        <path fill="#FFF" fill-rule="nonzero" d="M15.472 6.431L13.93 6.43c-1.732 0-2.851 1.173-2.851 2.988v1.378h-1.55a.245.245 0 0 0-.243.248v1.996c0 .137.108.247.242.247h1.55v5.038c0 .137.109.247.243.247h2.023c.134 0 .242-.11.242-.247v-5.038H15.4c.134 0 .242-.11.242-.247l.001-1.996a.25.25 0 0 0-.071-.176.24.24 0 0 0-.172-.072h-1.813V9.627c0-.562.131-.847.847-.847h1.039c.134 0 .242-.11.242-.248V6.68a.245.245 0 0 0-.242-.248z"/>
    </g>
</svg>
