<?xml version="1.0" encoding="utf-8"?>
<!-- Generator: Adobe Illustrator 22.1.0, SVG Export Plug-In . SVG Version: 6.00 Build 0)  -->
<svg version="1.1" id="Слой_1" xmlns="http://www.w3.org/2000/svg" xmlns:xlink="http://www.w3.org/1999/xlink" x="0px" y="0px"
	 viewBox="0 0 80 80" style="enable-background:new 0 0 80 80;" xml:space="preserve">
<style type="text/css">
	.st0{fill:#373737;}
	.st1{fill:#FCD500;}
</style>
<g>
	<circle class="st0" cx="40" cy="40" r="40"/>
	<g>
		<g>
			<g>
				<path class="st1" d="M43.8,26.7c-0.4,0-0.8,0.3-0.8,0.8s0.3,0.8,0.8,0.8s0.8-0.3,0.8-0.8S44.3,26.7,43.8,26.7z"/>
			</g>
		</g>
		<g>
			<g>
				<path class="st1" d="M36.2,26.7c-0.4,0-0.8,0.3-0.8,0.8s0.3,0.8,0.8,0.8s0.8-0.3,0.8-0.8S36.6,26.7,36.2,26.7z"/>
			</g>
		</g>
		<g>
			<g>
				<path class="st1" d="M56.7,43.3c0.7-1,1-2.2,1-3.3c0-1.6-0.7-3.1-1.9-4.1c0.3-0.7,0.4-1.3,0.4-2c0-2.1-1.2-4.1-3.1-5.1
					c0.3-2.3-1.2-4.5-3.5-5c-0.9-2-2.8-3.4-4.9-3.4c-1.9,0-3.7,1.1-4.6,2.8c-1-1.6-2.7-2.8-4.6-2.8c-2.1,0-4,1.4-4.9,3.4
					c-2.3,0.5-3.8,2.7-3.5,5c-1.9,0.9-3.1,2.9-3.1,5.1c0,0.7,0.1,1.4,0.4,2c-1.2,1-1.9,2.5-1.9,4.1c0,1.1,0.3,2.3,1,3.3
					c-0.6,0.9-1,2-1,3.1c0,1.4,0.6,2.8,1.6,3.8c-0.5,3.2,2,6.4,5.3,6.4c0,0,0,0,0.1,0c1.1,1.9,3.1,3.1,5.3,3.1
					c2.3,0,4.3-1.4,5.4-3.3c1.1,2,3.1,3.3,5.4,3.3c2.2,0,4.2-1.2,5.3-3.1c0,0,0,0,0.1,0c2.9,0,5.4-2.6,5.4-5.6c0-0.3,0-0.5-0.1-0.8
					c1-1,1.6-2.4,1.6-3.8C57.7,45.3,57.3,44.2,56.7,43.3z M39.2,32c-0.5-0.3-1-0.4-1.5-0.4c-0.4,0-0.8,0.3-0.8,0.8
					c0,0.4,0.3,0.8,0.8,0.8c0.8,0,1.5,0.7,1.5,1.5v14.6c-1.1-1.3-2.8-2.1-4.6-2.1c-0.4,0-0.8,0.3-0.8,0.8s0.3,0.8,0.8,0.8
					c2.5,0,4.6,2.1,4.6,4.6c0,2.6-2.1,4.8-4.6,4.8c-1.8,0-3.4-1.1-4.2-2.7C30.3,55.1,30,55,29.7,55c-0.1,0-0.1,0-0.2,0
					c-2.2,0.3-4.6-2.2-4-4.9c0.1-0.3,0-0.6-0.3-0.8c-0.9-0.7-1.4-1.8-1.4-2.9c0-0.7,0.2-1.4,0.6-2c0.9,0.8,2.1,1.2,3.3,1.2
					c0.4,0,0.8-0.3,0.8-0.8s-0.3-0.8-0.8-0.8c-2.1,0-3.8-1.9-3.8-4.1c0-1.3,0.7-2.5,1.8-3.2c0.3-0.2,0.5-0.7,0.3-1
					c-0.3-0.6-0.5-1.2-0.5-1.9c0-2.1,1.7-4.1,3.8-4.1c2,0,3.8,1.9,3.8,4.1c0,0.4,0.3,0.8,0.8,0.8s0.8-0.3,0.8-0.8
					c0-3-2.5-5.6-5.4-5.6c-0.3,0-0.5,0-0.8,0.1c0,0,0,0,0-0.1c0-1.7,1.4-3.1,3.1-3.1c0.8,0,1.6,0.3,2.2,0.9c0.3,0.3,0.8,0.3,1.1,0
					c0.3-0.3,0.3-0.8,0-1.1c-0.7-0.7-1.6-1.1-2.5-1.3c0.7-1,1.8-1.8,3.1-1.8c2,0,3.8,1.9,3.8,4.1V32z M52.3,45.6
					c1.2,0,2.4-0.5,3.3-1.2c0.4,0.6,0.6,1.3,0.6,2c0,1.1-0.5,2.2-1.4,2.9c-0.2,0.2-0.3,0.5-0.3,0.8c0.1,0.3,0.1,0.6,0.1,0.9
					c0,2.4-2.2,4.3-4.1,4c-0.1,0-0.1,0-0.2,0c-0.3,0-0.6,0.1-0.8,0.4c-0.8,1.6-2.4,2.7-4.2,2.7c-2.5,0-4.6-2.2-4.6-4.8
					c0-2.5,2.1-4.6,4.6-4.6c0.4,0,0.8-0.3,0.8-0.8s-0.3-0.8-0.8-0.8c-1.8,0-3.5,0.8-4.6,2.1V34.6c0-0.8,0.7-1.5,1.5-1.5
					c0.4,0,0.8-0.3,0.8-0.8c0-0.4-0.3-0.8-0.8-0.8c-0.6,0-1.1,0.2-1.5,0.4v-6c0-2.2,1.8-4.1,3.8-4.1c1.3,0,2.5,0.8,3.1,1.8
					c-1,0.1-1.8,0.6-2.5,1.3c-0.3,0.3-0.3,0.8,0,1.1c0.3,0.3,0.8,0.3,1.1,0c0.6-0.6,1.4-0.9,2.2-0.9c1.7,0,3.1,1.4,3.1,3.1
					c0,0,0,0,0,0.1c-0.3,0-0.5-0.1-0.8-0.1c-2.9,0-5.4,2.6-5.4,5.6c0,0.4,0.3,0.8,0.8,0.8c0.4,0,0.8-0.3,0.8-0.8
					c0-2.2,1.8-4.1,3.8-4.1c2.1,0,3.8,2,3.8,4.1c0,0.6-0.2,1.3-0.5,1.9c-0.2,0.4-0.1,0.8,0.3,1c1.1,0.7,1.8,1.9,1.8,3.2
					c0,2.2-1.8,4.1-3.8,4.1c-0.4,0-0.8,0.3-0.8,0.8S51.9,45.6,52.3,45.6z"/>
			</g>
		</g>
		<g>
			<g>
				<path class="st1" d="M37.5,36.8c-0.3-0.3-0.8-0.3-1.1-0.1C34,38.9,30,37.2,30,33.9c0-0.4-0.3-0.8-0.8-0.8s-0.8,0.3-0.8,0.8
					c0,2.7,2,4.9,4.5,5.3c-0.3,0.9-1.2,1.6-2.2,1.6c-0.4,0-0.8,0.3-0.8,0.8s0.3,0.8,0.8,0.8c1.9,0,3.4-1.3,3.8-3.1
					c1.1-0.1,2.1-0.6,2.9-1.3C37.8,37.6,37.8,37.1,37.5,36.8z"/>
			</g>
		</g>
		<g>
			<g>
				<path class="st1" d="M29.2,50.2c-0.4,0-0.8,0.3-0.8,0.8s0.3,0.8,0.8,0.8c2,0,3.8,1.9,3.8,4.1c0,0.4,0.3,0.8,0.8,0.8
					s0.8-0.3,0.8-0.8C34.6,52.8,32.2,50.2,29.2,50.2z"/>
			</g>
		</g>
		<g>
			<g>
				<path class="st1" d="M35.4,44.1c-2.6,0-4.8,1.4-6,3.5c-0.2,0.4-0.1,0.8,0.3,1c0.4,0.2,0.8,0.1,1-0.3c0.9-1.6,2.7-2.7,4.7-2.7
					c0.4,0,0.8-0.3,0.8-0.8S35.8,44.1,35.4,44.1z"/>
			</g>
		</g>
		<g>
			<g>
				<path class="st1" d="M49.2,40.8c-1,0-1.9-0.7-2.2-1.6c2.5-0.4,4.5-2.6,4.5-5.3c0-0.4-0.3-0.8-0.8-0.8c-0.4,0-0.8,0.3-0.8,0.8
					c0,2.1-1.7,3.8-3.8,3.8c-0.9,0-1.9-0.3-2.6-1c-0.3-0.3-0.8-0.3-1.1,0.1c-0.3,0.3-0.3,0.8,0.1,1.1c0.8,0.7,1.8,1.2,2.9,1.3
					c0.3,1.8,1.9,3.1,3.8,3.1c0.4,0,0.8-0.3,0.8-0.8S49.6,40.8,49.2,40.8z"/>
			</g>
		</g>
		<g>
			<g>
				<path class="st1" d="M50.8,50.2c-2.9,0-5.4,2.6-5.4,5.6c0,0.4,0.3,0.8,0.8,0.8c0.4,0,0.8-0.3,0.8-0.8c0-2.2,1.8-4.1,3.8-4.1
					c0.4,0,0.8-0.3,0.8-0.8S51.2,50.2,50.8,50.2z"/>
			</g>
		</g>
		<g>
			<g>
				<path class="st1" d="M50.6,47.6c-1.2-2.1-3.4-3.5-6-3.5c-0.4,0-0.8,0.3-0.8,0.8s0.3,0.8,0.8,0.8c2,0,3.8,1.1,4.7,2.7
					c0.2,0.4,0.7,0.5,1,0.3C50.7,48.4,50.8,47.9,50.6,47.6z"/>
			</g>
		</g>
	</g>
</g>
</svg>
