<svg xmlns="http://www.w3.org/2000/svg" width="80" height="80" viewBox="0 0 80 80">
    <g fill="none" fill-rule="evenodd">
        <circle cx="40" cy="40" r="40" fill="#FCD500"/>
        <g fill="#373737" fill-rule="nonzero">
            <path d="M57.073 31.51H18.658a.654.654 0 0 0-.658.649V50.367c0 .359.294.65.657.65h26.122a.654.654 0 0 0 .659-.65.654.654 0 0 0-.659-.65H19.317V32.811h37.096v1.625c0 .359.294.65.657.65h.002c.363 0 .658-.29.658-.648V32.16a.654.654 0 0 0-.657-.65zM52.607 28.492l-30.731-6.828a.654.654 0 0 0-.787.493l-1.537 6.828a.65.65 0 0 0 .5.776.659.659 0 0 0 .786-.494l1.393-6.191 30.087 6.684a.654.654 0 0 0 .802-.635.652.652 0 0 0-.513-.633zM48.875 24.73l-18.438-7.587a.664.664 0 0 0-.845.31l-1.537 3.035a.648.648 0 0 0 .267.884.665.665 0 0 0 .915-.301v.001l1.26-2.491 17.87 7.352a.663.663 0 0 0 .863-.35.649.649 0 0 0-.355-.853z"/>
            <path d="M49.34 34.545h-6.097a.654.654 0 0 0-.658.65c0 .359.294.65.658.65h6.098a.654.654 0 0 0 .658-.65.654.654 0 0 0-.658-.65zM37.097 34.588c-3.734 0-6.76 2.989-6.76 6.676.003 3.685 3.028 6.672 6.76 6.676 3.734 0 6.76-2.99 6.76-6.676 0-3.687-3.026-6.676-6.76-6.676zm0 12.138c-3.055 0-5.532-2.446-5.532-5.462.004-3.015 2.478-5.459 5.532-5.462 3.055 0 5.531 2.445 5.531 5.462 0 3.016-2.476 5.462-5.531 5.462zM55.535 36.712c-4.072 0-8.45.95-8.45 3.035v18.206c0 2.085 4.378 3.035 8.45 3.035 4.072 0 8.451-.95 8.451-3.035V39.747c0-2.085-4.379-3.035-8.45-3.035zm6.915 21.23c-.116.421-2.42 1.529-6.915 1.529-4.494 0-6.798-1.108-6.914-1.518v-1.192c1.635.813 4.335 1.192 6.914 1.192 2.58 0 5.28-.383 6.915-1.193v1.182zm0-3.034c-.116.42-2.42 1.528-6.915 1.528-4.494 0-6.798-1.107-6.914-1.517v-1.193c1.635.814 4.335 1.193 6.914 1.193 2.58 0 5.28-.383 6.915-1.193v1.182zm0-3.035c-.116.421-2.42 1.529-6.915 1.529-4.494 0-6.798-1.108-6.914-1.517v-1.193c1.635.813 4.335 1.193 6.914 1.193 2.58 0 5.28-.384 6.915-1.194v1.182zm0-3.034c-.116.42-2.42 1.528-6.915 1.528-4.494 0-6.798-1.107-6.914-1.517v-1.193c1.635.814 4.335 1.193 6.914 1.193 2.58 0 5.28-.383 6.915-1.193v1.182zm0-3.035c-.116.421-2.42 1.529-6.915 1.529-4.494 0-6.798-1.108-6.914-1.517v-1.193c1.635.81 4.335 1.193 6.914 1.193 2.58 0 5.28-.384 6.915-1.194v1.182zm0-3.034c-.116.42-2.42 1.528-6.915 1.528-4.494 0-6.798-1.107-6.914-1.517V41.59c1.635.809 4.335 1.192 6.914 1.192 2.58 0 5.28-.383 6.915-1.193v1.182zm-6.915-1.506c-4.487 0-6.79-1.105-6.914-1.504v-.004c.124-.423 2.427-1.527 6.914-1.527 4.456 0 6.761 1.088 6.915 1.518-.154.429-2.459 1.517-6.915 1.517z"/>
            <path d="M30.95 46.682h-5.807l-2.753-2.974v-4.93l3.04-2.933h5.52a.654.654 0 0 0 .66-.65.654.654 0 0 0-.66-.65h-5.787a.663.663 0 0 0-.46.184l-3.432 3.305a.809.809 0 0 0-.199.531v5.396c0 .162.062.318.172.438l3.122 3.372a.662.662 0 0 0 .486.211h6.099a.654.654 0 0 0 .658-.65.654.654 0 0 0-.658-.65zM37.481 40.505h-.768c-.24 0-.384-.132-.384-.19 0-.057.145-.19.384-.19h1.92c.425 0 .769-.339.769-.758a.764.764 0 0 0-.769-.758h-.768a.764.764 0 0 0-.768-.759.764.764 0 0 0-.768.759v.034a1.775 1.775 0 0 0-1.537 1.669 1.826 1.826 0 0 0 1.92 1.71h.769c.239 0 .384.132.384.19 0 .058-.145.19-.384.19h-1.92a.764.764 0 0 0-.769.758c0 .42.344.759.768.759h.769c0 .419.344.759.768.759.424 0 .768-.34.768-.759v-.034a1.775 1.775 0 0 0 1.537-1.67 1.826 1.826 0 0 0-1.921-1.71z"/>
        </g>
    </g>
</svg>
