<svg xmlns="http://www.w3.org/2000/svg" width="80" height="80" viewBox="0 0 80 80">
    <g fill="none" fill-rule="evenodd">
        <circle cx="40" cy="40" r="40" fill="#373737"/>
        <g fill="#FCD500" fill-rule="nonzero">
            <path d="M59.257 27.058a.665.665 0 0 0 .665-.665v-4.657a4.65 4.65 0 0 0-4.642-4.655c-.006 0-.01-.003-.015-.003H32.642a4.663 4.663 0 0 0-4.658 4.657v7.449l-7.696 5.311c-.017.012-.026.03-.041.042a.645.645 0 0 0-.085.084c-.012.014-.028.021-.039.037-.003.004-.003.01-.006.014a.637.637 0 0 0-.033.065.64.64 0 0 0-.044.107.676.676 0 0 0-.025.068.65.65 0 0 0-.003.074c-.002.02-.012.037-.012.057v19.96c.001.422.137.833.387 1.172.003.003.003.007.005.01.007.01.017.016.025.025.374.496.958.788 1.58.79h35.929a1.984 1.984 0 0 0 1.516-.713.658.658 0 0 0 .088-.101c.002-.004.002-.008.005-.011.25-.34.386-.75.387-1.171V35.043c0-.02-.01-.038-.012-.058a.667.667 0 0 0-.003-.073.655.655 0 0 0-.025-.068.631.631 0 0 0-.044-.107.637.637 0 0 0-.033-.065c-.003-.004-.003-.01-.006-.015-.01-.015-.027-.022-.039-.036a.648.648 0 0 0-.085-.084c-.015-.013-.024-.03-.04-.042l-7.697-5.31v-2.127h7.319zm-4.093-8.65a3.253 3.253 0 0 1 2.418.939 3.303 3.303 0 0 1 1.01 2.389v3.992h-6.654v-3.826a3.442 3.442 0 0 1 3.226-3.493zm-27.18 12.393v8.628l-6.159-4.378 6.16-4.25zm-6.653 23.955V36.332l13.344 9.485-13.344 8.939zm1.028.913l17.207-11.525a.727.727 0 0 1 .783-.005l17.214 11.53H22.36zm29.579-24.868l6.159 4.25-6.16 4.378V30.8zm6.653 5.531v18.424l-13.344-8.939 13.344-9.485zm-7.984-14.43v18.473l-6.543 4.65-2.98-1.996a2.058 2.058 0 0 0-2.252.004l-2.974 1.992-6.543-4.65v-18.64a3.33 3.33 0 0 1 3.327-3.326h19.434a4.9 4.9 0 0 0-1.47 3.493z"/>
            <path d="M37.3 33.047a5.988 5.988 0 1 0-5.989-5.989 5.995 5.995 0 0 0 5.989 5.989zm1.996-1.787a4.598 4.598 0 0 1-3.993 0v-.595a1.837 1.837 0 0 1 1.997-1.61c.53-.01 1.045.174 1.449.517.337.263.538.665.547 1.093v.595zm-3.327-4.867a1.33 1.33 0 1 1 2.661 0 1.33 1.33 0 0 1-2.661 0zm-2.973-1.117A4.655 4.655 0 0 1 37.3 22.4a4.655 4.655 0 0 1 3.29 7.95 2.775 2.775 0 0 0-.976-1.79 3.219 3.219 0 0 0-.42-.303 2.662 2.662 0 1 0-3.792-.003 2.89 2.89 0 0 0-1.393 2.096 4.655 4.655 0 0 1-1.013-5.075zM32.642 35.708a.665.665 0 1 0 0 1.33h10.646a.665.665 0 1 0 0-1.33H32.642zM47.28 35.708h-1.33a.665.665 0 1 0 0 1.331h1.33a.665.665 0 1 0 0-1.33zM36.634 39.035h-3.992a.665.665 0 1 0 0 1.33h3.992a.665.665 0 1 0 0-1.33zM47.28 39.035h-7.984a.665.665 0 1 0 0 1.33h7.984a.665.665 0 1 0 0-1.33z"/>
        </g>
    </g>
</svg>
