<svg xmlns="http://www.w3.org/2000/svg" width="80" height="80" viewBox="0 0 80 80">
    <g fill="none" fill-rule="evenodd">
        <circle cx="40" cy="40" r="40" fill="#373737"/>
        <g stroke="#FCD500" stroke-width="1.592">
            <path d="M53.373 40.616c-8.37-3.478-14.73-6.08-19.075-7.805-2.282-.905-4.007-1.567-5.172-1.986-.167-.06-.321-.115-.464-.164.05.142.104.297.164.463.42 1.166 1.082 2.891 1.987 5.173 1.724 4.347 4.325 10.706 7.803 19.077l4.225-5.911.664.664 7.92 7.92a.534.534 0 0 0 .756 0l3.865-3.865a.535.535 0 0 0 0-.756l-8.584-8.584 5.91-4.226z"/>
            <path stroke-linecap="square" d="M30.035 20.398v4.775M18.398 33.133h4.775M20.388 23.98l3.377 3.376M24.56 38.306l-3.376 3.377M39.683 23.98l-3.377 3.376"/>
        </g>
    </g>
</svg>
