<svg xmlns="http://www.w3.org/2000/svg" width="83" height="83" viewBox="0 0 83 83">
    <g fill="none" fill-rule="nonzero">
        <g transform="translate(-10 -9)">
            <circle cx="51" cy="51" r="40" stroke="#000" opacity=".2"/>
            <path stroke="#FCD500" stroke-dasharray="45.21599960327148,251.1999969482422" stroke-width="4" d="M51 11c22.091 0 40 17.909 40 40S73.091 91 51 91 11 73.091 11 51s17.909-40 40-40z"/>
            <path stroke="#FFE766" stroke-dasharray="30.13999938964844,251.1999969482422" stroke-width="4" d="M89.042 63.36c6.827-21.01-4.671-43.576-25.681-50.402-21.01-6.827-43.577 4.671-50.403 25.681-6.827 21.01 4.671 43.577 25.681 50.403 21.01 6.827 43.577-4.671 50.403-25.681z"/>
        </g>
        <g fill="#FCD500">
            <path d="M35.433 49.5c-2.923 0-5.3 2.355-5.3 5.25S32.51 60 35.433 60s5.3-2.355 5.3-5.25-2.377-5.25-5.3-5.25zm0 8.75c-1.948 0-3.533-1.57-3.533-3.5s1.585-3.5 3.533-3.5c1.949 0 3.534 1.57 3.534 3.5s-1.585 3.5-3.534 3.5zM35.433 25c-2.923 0-5.3 2.355-5.3 5.25s2.377 5.25 5.3 5.25 5.3-2.355 5.3-5.25-2.377-5.25-5.3-5.25zm0 8.75c-1.948 0-3.533-1.57-3.533-3.5s1.585-3.5 3.533-3.5c1.949 0 3.534 1.57 3.534 3.5s-1.585 3.5-3.534 3.5zM21.3 49.5c-2.923 0-5.3 2.355-5.3 5.25S18.377 60 21.3 60s5.3-2.355 5.3-5.25-2.377-5.25-5.3-5.25zm0 8.75c-1.949 0-3.533-1.57-3.533-3.5s1.584-3.5 3.533-3.5c1.949 0 3.533 1.57 3.533 3.5s-1.584 3.5-3.533 3.5zM21.3 25c-2.923 0-5.3 2.355-5.3 5.25s2.377 5.25 5.3 5.25 5.3-2.355 5.3-5.25S24.223 25 21.3 25zm0 8.75c-1.949 0-3.533-1.57-3.533-3.5s1.584-3.5 3.533-3.5c1.949 0 3.533 1.57 3.533 3.5s-1.584 3.5-3.533 3.5zM49.567 37.25c-2.923 0-5.3 2.355-5.3 5.25s2.377 5.25 5.3 5.25 5.3-2.355 5.3-5.25-2.377-5.25-5.3-5.25zm0 8.75c-1.949 0-3.534-1.57-3.534-3.5s1.585-3.5 3.534-3.5c1.948 0 3.533 1.57 3.533 3.5S51.515 46 49.567 46zM49.567 49.5c-2.923 0-5.3 2.355-5.3 5.25s2.377 5.25 5.3 5.25 5.3-2.355 5.3-5.25-2.377-5.25-5.3-5.25zm0 8.75c-1.949 0-3.534-1.57-3.534-3.5s1.585-3.5 3.534-3.5c1.948 0 3.533 1.57 3.533 3.5s-1.585 3.5-3.533 3.5z"/>
            <path d="M66.35 44.085v-18.21a.873.873 0 0 0-.402-.734.893.893 0 0 0-.84-.066l-7.95 3.5a.873.873 0 0 0 0 1.6l7.425 3.269v10.01a5.347 5.347 0 0 0-.883-.079c-1.11 0-2.141.341-2.994.922l-6.573-11.395c.463-.78.734-1.684.734-2.652 0-2.895-2.377-5.25-5.3-5.25s-5.3 2.355-5.3 5.25c0 .872.219 1.692.6 2.416l-6.833 5.264a5.31 5.31 0 0 0-2.6-.68c-2.622 0-4.798 1.896-5.221 4.375H26.52c-.422-2.479-2.598-4.375-5.22-4.375-2.923 0-5.3 2.355-5.3 5.25s2.377 5.25 5.3 5.25c2.62 0 4.797-1.896 5.22-4.375h3.694c.422 2.479 2.598 4.375 5.22 4.375 2.923 0 5.3-2.355 5.3-5.25a5.195 5.195 0 0 0-1.298-3.433l6.498-5.006a5.298 5.298 0 0 0 3.633 1.439 5.303 5.303 0 0 0 3.347-1.184l6.485 11.243.012-.007a5.19 5.19 0 0 0-1.011 3.073c0 2.895 2.377 5.25 5.3 5.25s5.3-2.355 5.3-5.25c0-1.938-1.069-3.63-2.65-4.54zM21.3 46c-1.949 0-3.533-1.57-3.533-3.5S19.35 39 21.3 39c1.949 0 3.533 1.57 3.533 3.5S23.25 46 21.3 46zm14.133 0c-1.948 0-3.533-1.57-3.533-3.5s1.585-3.5 3.533-3.5c1.949 0 3.534 1.57 3.534 3.5S37.382 46 35.433 46zm14.134-12.25c-1.949 0-3.534-1.57-3.534-3.5s1.585-3.5 3.534-3.5c1.948 0 3.533 1.57 3.533 3.5s-1.585 3.5-3.533 3.5zm10.124-4.375l4.892-2.153v4.306l-4.892-2.153zm4.009 22.75c-1.949 0-3.533-1.57-3.533-3.5s1.584-3.5 3.533-3.5c.307 0 .599.05.883.124v3.376h1.767v-2.29c.543.614.883 1.41.883 2.29 0 1.93-1.584 3.5-3.533 3.5zM59.283 55.625h1.767v1.75h-1.767zM62.817 55.625h1.767v1.75h-1.767zM66.35 55.625h1.767v1.75H66.35z"/>
        </g>
    </g>
</svg>
