<?xml version="1.0" encoding="utf-8"?>
<!-- Generator: Adobe Illustrator 24.0.0, SVG Export Plug-In . SVG Version: 6.00 Build 0)  -->
<svg version="1.1" id="Слой_1" xmlns="http://www.w3.org/2000/svg" xmlns:xlink="http://www.w3.org/1999/xlink" x="0px" y="0px"
	 viewBox="0 0 84 84" style="enable-background:new 0 0 84 84;" xml:space="preserve">
<style type="text/css">
	.st0{opacity:0.2;fill:none;stroke:#010202;enable-background:new    ;}
	.st1{fill:none;stroke:#FDD500;stroke-width:4;stroke-dasharray:45.22,251.2;}
	.st2{fill:none;stroke:#FDD500;stroke-width:4;stroke-dasharray:30.14,251.2;}
	.st3{fill:none;stroke:#FDD500;stroke-width:4;stroke-dasharray:85.41,251.2;}
	.st4{fill:none;stroke:#FFE867;stroke-width:4;stroke-dasharray:45.22,251.2;}
	.st5{fill:#FFFFFF;stroke:#FDD500;stroke-width:1.6;}
	.st6{fill:#FFFFFF;}
	.st7{fill:none;stroke:#FDD500;stroke-width:1.6;}
	.st8{fill:none;stroke:#FFFFFF;stroke-width:1.6;}
</style>
<g>
	<path class="st0" d="M41.9,81.9c22.1,0,40-17.9,40-40s-17.9-40-40-40s-40,17.9-40,40S19.8,81.9,41.9,81.9z"/>
	<path class="st1" d="M42.1,2.1c22.1,0,40,17.9,40,40s-17.9,40-40,40s-40-17.9-40-40S20,2.1,42.1,2.1z"/>
	<path class="st2" d="M80.2,54.5c6.8-21-4.7-43.6-25.7-50.4c-21-6.8-43.6,4.7-50.4,25.7c-6.8,21,4.7,43.6,25.7,50.4
		C50.8,87,73.4,75.5,80.2,54.5z"/>
	<path class="st3" d="M11,67.3C25,84.5,50.1,87.1,67.3,73.2C84.5,59.3,87.1,34.1,73.2,17C59.3-0.2,34.1-2.9,17,11
		C-0.2,25-2.9,50.1,11,67.3z"/>
	<path class="st4" d="M11,67.3C-2.9,50.1-0.2,25,17,11C34.1-2.9,59.3-0.2,73.2,17c13.9,17.2,11.3,42.4-5.9,56.3
		C50.1,87.1,25,84.5,11,67.3z"/>
	<path class="st5" d="M40.2,52.7l-0.4-0.2l-0.4,0.2l-9.7,5.1l1.9-10.8l0.1-0.4l-0.3-0.3l-7.9-7.7L34.4,37l0.4-0.1l0.2-0.4l4.9-9.9
		l4.9,9.9l0.2,0.4l0.4,0.1l10.9,1.6l-7.9,7.7l-0.3,0.3l0.1,0.4L50,57.8L40.2,52.7z"/>
	<path class="st6" d="M49.2,57.7l-0.4-0.2l-0.4,0.2l-3.9,2l0.7-4.3l0.1-0.4l-0.3-0.3l-3.1-3l4.3-0.6l0.4-0.1l0.2-0.4l1.9-3.9
		l1.9,3.9L51,51l0.4,0.1l4.3,0.6l-3.1,3L52.3,55l0.1,0.4l0.7,4.3L49.2,57.7z"/>
	<path class="st7" d="M49.2,57.7l-0.4-0.2l-0.4,0.2l-3.9,2l0.7-4.3l0.1-0.4l-0.3-0.3l-3.1-3l4.3-0.6l0.4-0.1l0.2-0.4l1.9-3.9
		l1.9,3.9L51,51l0.4,0.1l4.3,0.6l-3.1,3L52.3,55l0.1,0.4l0.7,4.3L49.2,57.7z"/>
	<path class="st8" d="M49.2,57.7l-0.4-0.2l-0.4,0.2l-3.9,2l0.7-4.3l0.1-0.4l-0.3-0.3l-3.1-3l4.3-0.6l0.4-0.1l0.2-0.4l1.9-3.9
		l1.9,3.9L51,51l0.4,0.1l4.3,0.6l-3.1,3L52.3,55l0.1,0.4l0.7,4.3L49.2,57.7z"/>
</g>
</svg>
