<?xml version="1.0" encoding="utf-8"?>
<!-- Generator: Adobe Illustrator 24.0.0, SVG Export Plug-In . SVG Version: 6.00 Build 0)  -->
<svg version="1.1" id="Слой_1" xmlns="http://www.w3.org/2000/svg" xmlns:xlink="http://www.w3.org/1999/xlink" x="0px" y="0px"
	 viewBox="0 0 84 84" style="enable-background:new 0 0 84 84;" xml:space="preserve">
<style type="text/css">
	.st0{opacity:0.2;fill:none;stroke:#010202;enable-background:new    ;}
	.st1{fill:none;stroke:#FDD500;stroke-width:4;stroke-dasharray:45.22,251.2;}
	.st2{fill:none;stroke:#FDD500;stroke-width:1.6;}
	.st3{fill:#FFFFFF;}
</style>
<g>
	<path class="st0" d="M42,82c22.1,0,40-17.9,40-40S64.1,2,42,2S2,19.9,2,42S19.9,82,42,82z"/>
	<path class="st1" d="M42,2c22.1,0,40,17.9,40,40S64.1,82,42,82S2,64.1,2,42S19.9,2,42,2z"/>
	<g>
		<path class="st2" d="M50,24.4c9.9,0,17.9,6.2,17.9,13.9c0,3.8-1.9,7.2-5.1,9.7c0.2,2.6,0.7,4.8,2.5,6.5c1.8,1.7-7-1.4-9.3-3.1
			c-1.9,0.5-3.9,0.8-6,0.8C40.1,52.2,32,46,32,38.3C32,30.6,40.1,24.4,50,24.4z"/>
		<path class="st3" d="M21.9,53.9l0-0.4l-0.3-0.3c-3-2.4-4.8-5.6-4.8-9.1c0-7.1,7.5-13.1,17.1-13.1c9.7,0,17.1,6,17.1,13.1
			c0,7.1-7.5,13.1-17.1,13.1c-2,0-4-0.3-5.8-0.8l-0.4-0.1l-0.3,0.2C26.9,57,26,57.5,24.9,58c-1.1,0.5-2.3,1-3.4,1.3
			c-0.5,0.2-0.9,0.3-1.3,0.4C21.3,58,21.7,56,21.9,53.9z"/>
	</g>
</g>
</svg>
