<?xml version="1.0" encoding="utf-8"?>
<!-- Generator: Adobe Illustrator 24.0.0, SVG Export Plug-In . SVG Version: 6.00 Build 0)  -->
<svg version="1.1" id="Слой_1" xmlns="http://www.w3.org/2000/svg" xmlns:xlink="http://www.w3.org/1999/xlink" x="0px" y="0px"
	 viewBox="0 0 84 84" style="enable-background:new 0 0 84 84;" xml:space="preserve">
<style type="text/css">
	.st0{opacity:0.2;fill:none;stroke:#010202;enable-background:new    ;}
	.st1{fill:none;stroke:#FFE867;stroke-width:4;}
	.st2{fill:none;stroke:#FDD500;stroke-width:4;stroke-dasharray:205.98,251.2;}
	.st3{fill-rule:evenodd;clip-rule:evenodd;fill:#FDD500;}
	.st4{fill:#FFFFFF;}
	.st5{fill:none;stroke:#FDD500;stroke-width:1.6;}
	.st6{fill:none;stroke:#FFFFFF;stroke-width:1.6;}
	.st7{fill:#FDD500;}
</style>
<g>
	<path class="st0" d="M42,82c22.1,0,40-17.9,40-40S64.1,2,42,2S2,19.9,2,42S19.9,82,42,82z"/>
	<path class="st1" d="M42,2c22.1,0,40,17.9,40,40S64.1,82,42,82S2,64.1,2,42S19.9,2,42,2z"/>
	<path class="st2" d="M42,2c22.1,0,40,17.9,40,40S64.1,82,42,82S2,64.1,2,42S19.9,2,42,2z"/>
	<path class="st3" d="M17,55.1v-3.6c0-0.2,0.1-0.4,0.2-0.5c0.1-0.1,0.3-0.2,0.5-0.2h6.5V22.7c0-0.2,0.1-0.4,0.2-0.5
		c0.1-0.1,0.3-0.2,0.5-0.2h28.8c0.2,0,0.4,0.1,0.5,0.2c0.1,0.1,0.2,0.3,0.2,0.5v3.6H58c0.2,0,0.4,0.1,0.5,0.2
		c0.1,0.1,0.2,0.3,0.2,0.5v37.4c0,0.2-0.1,0.4-0.2,0.5c-0.1,0.1-0.3,0.2-0.5,0.2H30c-0.2,0-0.4-0.1-0.5-0.2
		c-0.1-0.1-0.2-0.3-0.2-0.5v-3.6h-6.5C19.6,60.9,17,58.3,17,55.1z M57.3,27.8h-2.9v27.4c0,3.2-2.6,5.8-5.8,5.8h-18v2.9h26.6V27.8z
		 M25.6,23.4H53v31.7c0,2.4-1.9,4.3-4.3,4.3s-4.3-1.9-4.3-4.3v-3.6c0-0.2-0.1-0.4-0.2-0.5c-0.1-0.1-0.3-0.2-0.5-0.2h-18V23.4z
		 M42.9,52.2H18.4v2.9c0,2.4,1.9,4.3,4.3,4.3h22.1c-1.2-1.1-2-2.7-2-4.3V52.2z M34.3,29.9h2.2v1.4h-2.2V29.9z M40.8,29.9h-2.9v1.4
		h2.9V29.9z M42.2,29.9H48v1.4h-5.8V29.9z M37.9,33.5h-7.2V35h7.2V33.5z M39.3,33.5h3.6V35h-3.6V33.5z M48,33.5h-3.6V35H48V33.5z
		 M30.7,44.3h5.8v1.4h-5.8V44.3z M41.5,44.3h-3.6v1.4h3.6V44.3z M42.9,44.3h5v1.4h-5V44.3z M35.7,37.1h-5v1.4h5V37.1z M37.2,37.1H48
		v1.4H37.2V37.1z M32.8,40.7h-2.2v1.4h2.2V40.7z M38.6,40.7v1.4h-4.3v-1.4H38.6z M48,40.7H40v1.4H48V40.7z"/>
	<path class="st4" d="M64.2,27c0,4.5-3.7,8.2-8.2,8.2s-8.2-3.7-8.2-8.2s3.7-8.2,8.2-8.2S64.2,22.5,64.2,27z"/>
	<path class="st5" d="M64.2,27c0,4.5-3.7,8.2-8.2,8.2s-8.2-3.7-8.2-8.2s3.7-8.2,8.2-8.2S64.2,22.5,64.2,27z"/>
	<path class="st6" d="M64.2,27c0,4.5-3.7,8.2-8.2,8.2s-8.2-3.7-8.2-8.2s3.7-8.2,8.2-8.2S64.2,22.5,64.2,27z"/>
	<path class="st7" d="M56.8,26.5c0.1-0.1,0.2-0.2,0.4-0.3s0.3-0.2,0.5-0.3c0.2-0.1,0.3-0.2,0.5-0.3c0.2-0.1,0.3-0.2,0.4-0.2l0.4-0.1
		l0.6,1.9l-0.4,0.1c-0.1,0-0.3,0.1-0.5,0.1c-0.2,0-0.4,0-0.6,0c-0.2,0-0.4,0-0.6,0h-0.5l0.3,0.2c0,0,0.1,0.1,0.1,0.1
		c0.2,0.1,0.3,0.2,0.5,0.3c0.2,0.1,0.3,0.2,0.4,0.4c0.1,0.1,0.2,0.2,0.3,0.4l0.3,0.3l-1.7,1.2L57.1,30c-0.1-0.1-0.2-0.2-0.2-0.4
		c-0.1-0.2-0.2-0.3-0.2-0.5c-0.1-0.2-0.1-0.4-0.2-0.5L56.3,28l-0.1,0.5C56.1,28.7,56,28.8,56,29c-0.1,0.2-0.1,0.4-0.2,0.5
		c-0.1,0.1-0.1,0.2-0.2,0.3l-0.3,0.4l-1.7-1.2l0.3-0.3c0.1-0.1,0.2-0.2,0.3-0.4c0.1-0.1,0.3-0.2,0.4-0.4c0.2-0.1,0.3-0.2,0.5-0.3
		s0.3-0.2,0.4-0.3H55c-0.2,0-0.4,0-0.6,0c-0.2,0-0.4,0-0.6,0c-0.2,0-0.3-0.1-0.5-0.1L53,27.1l0.6-1.9l0.4,0.1c0.1,0,0.3,0.1,0.4,0.2
		c0.2,0.1,0.3,0.2,0.5,0.3c0.2,0.1,0.3,0.2,0.5,0.3l0.3,0.2c0,0,0.1,0.1,0.1,0.1c-0.1-0.1-0.1-0.3-0.2-0.5c-0.1-0.2-0.1-0.4-0.2-0.6
		c-0.1-0.2-0.1-0.4-0.1-0.6c0-0.2-0.1-0.3-0.1-0.5V24h2v0.4c0,0.1,0,0.3-0.1,0.5c0,0.2-0.1,0.4-0.1,0.6C57.1,25.6,57,25.8,57,26
		l-0.1,0.3C56.8,26.4,56.8,26.4,56.8,26.5z"/>
</g>
</svg>
