<svg xmlns="http://www.w3.org/2000/svg" width="83" height="84" viewBox="0 0 83 84">
    <g fill="none" fill-rule="nonzero">
        <g transform="translate(-16 -15)">
            <circle cx="57" cy="57" r="40" stroke="#000" opacity=".2"/>
            <path stroke="#FCD500" stroke-dasharray="45.21599960327148,251.1999969482422" stroke-width="4" d="M57 17c22.091 0 40 17.909 40 40S79.091 97 57 97 17 79.091 17 57s17.909-40 40-40z"/>
            <path stroke="#FCD500" stroke-dasharray="30.13999938964844,251.1999969482422" stroke-width="4" d="M95.042 69.36c6.827-21.01-4.671-43.576-25.681-50.402-21.01-6.827-43.577 4.671-50.403 25.681-6.827 21.01 4.671 43.577 25.681 50.403 21.01 6.827 43.577-4.671 50.403-25.681z"/>
            <path stroke="#FFE766" stroke-dasharray="85.40799713134766,251.1999969482422" stroke-width="4" d="M25.914 82.173c13.903 17.168 39.09 19.815 56.259 5.913 17.168-13.903 19.815-39.09 5.913-56.259-13.903-17.168-39.09-19.815-56.259-5.913-17.168 13.903-19.815 39.09-5.913 56.259z"/>
        </g>
        <g fill="#FCD500">
            <path d="M67.536 42.452l-2.4-2.3c-.95-.91-2.605-.91-3.555 0l-12.96 12.422-1.787 6.278-.437.42a.782.782 0 0 0-.005 1.133l-.004.016.016-.004a.86.86 0 0 0 .588.233c.216 0 .432-.08.596-.237l.438-.42 6.55-1.711 12.96-12.422c.98-.94.98-2.469 0-3.408zm-16.971 10.54l8.625-8.266 3.573 3.424-8.625 8.267-3.573-3.424zm-.76 1.555l2.712 2.6-3.73.974 1.018-3.574zm16.54-9.83l-2.39 2.292-3.574-3.425 2.39-2.291a.875.875 0 0 1 1.174 0l2.4 2.3a.773.773 0 0 1 0 1.125zM27.008 44.989h21.895c.465 0 .842-.346.842-.774 0-.428-.377-.774-.842-.774H27.008c-.464 0-.842.346-.842.774 0 .428.378.774.842.774zM45.535 48.284H27.008c-.464 0-.842.346-.842.774 0 .427.378.773.842.773h18.527c.465 0 .842-.346.842-.773 0-.428-.377-.774-.842-.774zM27.008 30.46h10.948c.465 0 .842-.345.842-.773 0-.428-.377-.773-.842-.773H27.008c-.464 0-.842.345-.842.773 0 .428.378.774.842.774zM37.956 54.674c.465 0 .842-.346.842-.774 0-.428-.377-.773-.842-.773H27.008c-.464 0-.842.345-.842.773 0 .428.378.774.842.774h10.948zM51.43 33.756H27.007c-.464 0-.842.346-.842.774 0 .428.378.773.842.773H51.43c.465 0 .843-.345.843-.773 0-.428-.377-.774-.843-.774zM27.008 40.146h11.79c.465 0 .842-.346.842-.774 0-.427-.377-.773-.842-.773h-11.79c-.464 0-.842.346-.842.773 0 .428.378.774.842.774zM49.872 39.372c0-.427-.378-.773-.843-.773h-5.894c-.465 0-.842.346-.842.773 0 .428.377.774.842.774h5.894c.466 0 .843-.346.843-.774z"/>
            <path d="M55.766 64.372H22.798V22.457h5.895v1.614c0 .446.377.807.842.807h19.368c.465 0 .842-.36.842-.807v-1.614h5.895v17.756c0 .446.377.807.842.807.465 0 .842-.36.842-.807V21.65c0-.447-.377-.807-.842-.807h-6.737v-1.615c0-.446-.377-.807-.842-.807h-5.052v-1.614c0-.446-.378-.807-.843-.807H35.43c-.464 0-.842.36-.842.807v1.614h-5.052c-.465 0-.842.361-.842.807v1.615h-6.737c-.465 0-.842.36-.842.807v43.53c0 .446.377.807.842.807h33.81c.465 0 .842-.361.842-.808 0-.446-.376-.807-.842-.807zM36.272 17.614h5.894v3.229h-5.894v-3.229zm-5.895 2.422h4.21v1.614c0 .446.378.807.842.807h7.58c.464 0 .842-.361.842-.807v-1.614h4.21v3.228H30.377v-3.228z"/>
        </g>
    </g>
</svg>
