<svg xmlns="http://www.w3.org/2000/svg" width="25" height="25" viewBox="0 0 25 25">
    <g fill="none" fill-rule="evenodd">
        <circle cx="12.5" cy="12.5" r="12.5" fill="#FCD500"/>
        <path fill="#FFF" fill-rule="nonzero" d="M17.528 14.038c.503.46 1.035.893 1.486 1.399.2.225.388.457.533.718.205.371.02.78-.337.802L17 16.956c-.571.044-1.026-.17-1.409-.536-.306-.291-.59-.602-.884-.903a2.055 2.055 0 0 0-.398-.331c-.301-.184-.563-.127-.736.167-.176.3-.216.631-.233.965-.023.487-.18.615-.704.638-1.118.05-2.179-.11-3.164-.637-.869-.465-1.543-1.121-2.129-1.864-1.142-1.448-2.016-3.038-2.802-4.673-.177-.368-.048-.566.387-.573a64.152 64.152 0 0 1 2.165 0c.293.003.487.16.6.42.39.897.868 1.751 1.467 2.543.16.211.323.422.555.57.256.164.451.11.572-.157.077-.17.11-.352.127-.534.057-.624.065-1.247-.035-1.87-.062-.388-.296-.64-.71-.713-.211-.037-.18-.11-.077-.224.177-.194.345-.315.678-.315h2.499c.393.072.48.238.535.608l.002 2.597c-.005.143.076.569.352.664.221.067.367-.098.5-.23.598-.593 1.025-1.296 1.406-2.023.17-.32.315-.651.456-.983.105-.246.269-.367.565-.362l2.405.002c.072 0 .144.001.213.012.405.065.516.228.391.598-.197.581-.58 1.065-.956 1.552-.401.519-.83 1.02-1.228 1.542-.365.477-.336.718.118 1.132z"/>
    </g>
</svg>
