<svg width="84" height="84" viewBox="0 0 84 84" fill="none" xmlns="http://www.w3.org/2000/svg">
<path opacity="0.2" fill-rule="evenodd" clip-rule="evenodd" d="M1.5 42C1.5 19.6325 19.6325 1.5 42 1.5C64.3675 1.5 82.5 19.6325 82.5 42C82.5 64.3675 64.3675 82.5 42 82.5C19.6325 82.5 1.5 64.3675 1.5 42ZM42 2.5C20.1848 2.5 2.5 20.1848 2.5 42C2.5 63.8152 20.1848 81.5 42 81.5C63.8152 81.5 81.5 63.8152 81.5 42C81.5 20.1848 63.8152 2.5 42 2.5Z" fill="black"/>
<path fill-rule="evenodd" clip-rule="evenodd" d="M36.9795 0.297165C38.6264 0.100885 40.3018 0 42 0C43.6982 0 45.3736 0.100885 47.0205 0.297165L46.5472 4.26906C45.057 4.09146 43.5396 4 42 4C40.4604 4 38.943 4.09146 37.4528 4.26906L36.9795 0.297165ZM0 42C0 40.3018 0.100885 38.6264 0.297165 36.9795L4.26906 37.4528C4.09146 38.943 4 40.4604 4 42C4 43.5396 4.09146 45.057 4.26906 46.5472L0.297165 47.0205C0.100885 45.3736 0 43.6982 0 42ZM83.7028 36.9795C83.8991 38.6264 84 40.3018 84 42C84 43.6982 83.8991 45.3736 83.7028 47.0205L79.7309 46.5472C79.9085 45.057 80 43.5396 80 42C80 40.4604 79.9085 38.943 79.7309 37.4528L83.7028 36.9795ZM42 84C40.3018 84 38.6264 83.8991 36.9795 83.7028L37.4528 79.7309C38.943 79.9085 40.4604 80 42 80C43.5396 80 45.057 79.9085 46.5472 79.7309L47.0205 83.7028C45.3736 83.8991 43.6982 84 42 84Z" fill="#FCD500"/>
<path fill-rule="evenodd" clip-rule="evenodd" d="M53.7426 5.85988C52.7177 5.52685 51.6893 5.23982 50.6596 4.99757L51.5757 1.10388C52.7131 1.37148 53.8483 1.68835 54.9787 2.05565C56.1091 2.42295 57.2138 2.83383 58.2912 3.28589L56.7437 6.9744C55.7683 6.56516 54.7676 6.1929 53.7426 5.85988ZM6.97437 27.2563C6.56513 28.2317 6.19287 29.2324 5.85985 30.2574C5.52682 31.2823 5.23979 32.3107 4.99754 33.3404L1.10385 32.4243C1.37145 31.2869 1.68832 30.1517 2.05562 29.0213C2.42292 27.8909 2.8338 26.7863 3.28586 25.7088L6.97437 27.2563ZM78.1401 53.7427C78.4732 52.7177 78.7602 51.6893 79.0024 50.6597L82.8961 51.5757C82.6285 52.7131 82.3117 53.8483 81.9444 54.9787C81.5771 56.1092 81.1662 57.2138 80.7141 58.2913L77.0256 56.7437C77.4349 55.7683 77.8071 54.7676 78.1401 53.7427ZM27.2563 77.0256C28.2317 77.4349 29.2324 77.8071 30.2573 78.1402C31.2823 78.4732 32.3107 78.7602 33.3404 79.0025L32.4243 82.8962C31.2869 82.6286 30.1517 82.3117 29.0213 81.9444C27.8908 81.5771 26.7862 81.1662 25.7088 80.7142L27.2563 77.0256Z" fill="#FCD500"/>
<path fill-rule="evenodd" clip-rule="evenodd" d="M24.4044 8.31044C22.2075 9.46101 20.09 10.8455 18.0858 12.4685C16.0817 14.0914 14.2872 15.8747 12.705 17.7845L9.62476 15.2326C11.3748 13.1202 13.3577 11.1502 15.5685 9.35988C17.7794 7.56954 20.1187 6.03959 22.5487 4.76697L24.4044 8.31044ZM71.5316 18.0858C69.9086 16.0817 68.1253 14.2872 66.2155 12.705L68.7674 9.62476C70.8798 11.3748 72.8498 13.3577 74.6401 15.5685C76.4305 17.7794 77.9604 20.1187 79.233 22.5487L75.6896 24.4044C74.539 22.2075 73.1545 20.09 71.5316 18.0858ZM8.31044 59.5956C9.46101 61.7925 10.8455 63.91 12.4685 65.9142C14.0914 67.9183 15.8747 69.7128 17.7845 71.295L15.2326 74.3753C13.1202 72.6252 11.1502 70.6423 9.35988 68.4315C7.56954 66.2206 6.03959 63.8813 4.76697 61.4513L8.31044 59.5956ZM65.9142 71.5316C67.9183 69.9086 69.7128 68.1253 71.295 66.2155L74.3753 68.7674C72.6252 70.8798 70.6423 72.8498 68.4315 74.6401C66.2206 76.4305 63.8813 77.9604 61.4513 79.233L59.5956 75.6896C61.7925 74.539 63.91 73.1545 65.9142 71.5316Z" fill="#FFE766"/>
<path fill-rule="evenodd" clip-rule="evenodd" d="M66.1364 40.1517L68.5356 42.4519C69.5158 43.3914 69.5158 44.9192 68.5356 45.8595L55.5756 58.2816L49.0257 59.9935L48.5878 60.4132C48.4236 60.5706 48.208 60.6497 47.9924 60.6497C47.7794 60.6497 47.5671 60.5706 47.4038 60.4172L47.3878 60.4213L47.392 60.4051C47.0695 60.0895 47.0703 59.5843 47.397 59.2711L47.8341 58.8523L49.6202 52.5738L62.581 40.1517C63.5309 39.2421 65.1865 39.2421 66.1364 40.1517ZM60.1903 44.7255L51.5646 52.9927L55.1377 56.4172L63.7634 48.1501L60.1903 44.7255ZM50.805 54.5472L53.5166 57.146L49.7878 58.121L50.805 54.5472ZM64.9541 47.0088L67.3448 44.7175C67.6682 44.4075 67.6682 43.9023 67.3448 43.5932L64.9448 41.2929C64.6316 40.9919 64.085 40.9919 63.7718 41.2929L61.381 43.5843L64.9541 47.0088Z" fill="#FCD500"/>
<path d="M28.0084 44.9886H49.9031C50.368 44.9886 50.7453 44.6428 50.7453 44.2151C50.7453 43.7873 50.368 43.4415 49.9031 43.4415H28.0084C27.5436 43.4415 27.1663 43.7873 27.1663 44.2151C27.1663 44.6428 27.5436 44.9886 28.0084 44.9886Z" fill="#FCD500"/>
<path d="M46.5347 48.2841H28.0084C27.5436 48.2841 27.1663 48.6298 27.1663 49.0576C27.1663 49.4854 27.5436 49.8311 28.0084 49.8311H46.5347C46.9996 49.8311 47.3768 49.4854 47.3768 49.0576C47.3768 48.6298 47.0004 48.2841 46.5347 48.2841Z" fill="#FCD500"/>
<path d="M28.0084 30.4608H38.9558C39.4206 30.4608 39.7979 30.115 39.7979 29.6872C39.7979 29.2595 39.4206 28.9137 38.9558 28.9137H28.0084C27.5436 28.9137 27.1663 29.2595 27.1663 29.6872C27.1663 30.115 27.5436 30.4608 28.0084 30.4608Z" fill="#FCD500"/>
<path d="M38.9558 54.6738C39.4206 54.6738 39.7979 54.328 39.7979 53.9002C39.7979 53.4725 39.4206 53.1267 38.9558 53.1267H28.0084C27.5436 53.1267 27.1663 53.4725 27.1663 53.9002C27.1663 54.328 27.5436 54.6738 28.0084 54.6738H38.9558Z" fill="#FCD500"/>
<path d="M52.4295 33.7562H28.0084C27.5436 33.7562 27.1663 34.102 27.1663 34.5298C27.1663 34.9575 27.5436 35.3033 28.0084 35.3033H52.4295C52.8943 35.3033 53.2716 34.9575 53.2716 34.5298C53.2716 34.102 52.8951 33.7562 52.4295 33.7562Z" fill="#FCD500"/>
<path d="M28.0084 40.146H39.7979C40.2627 40.146 40.64 39.8002 40.64 39.3724C40.64 38.9446 40.2627 38.5989 39.7979 38.5989H28.0084C27.5436 38.5989 27.1663 38.9446 27.1663 39.3724C27.1663 39.8002 27.5436 40.146 28.0084 40.146Z" fill="#FCD500"/>
<path d="M50.8716 39.3724C50.8716 38.9446 50.4943 38.5989 50.0295 38.5989H44.1347C43.6699 38.5989 43.2926 38.9446 43.2926 39.3724C43.2926 39.8002 43.6699 40.146 44.1347 40.146H50.0295C50.4952 40.146 50.8716 39.8002 50.8716 39.3724Z" fill="#FCD500"/>
<path fill-rule="evenodd" clip-rule="evenodd" d="M56.7663 64.3723H23.7979V22.4568H29.6926V24.071C29.6926 24.5174 30.0699 24.8781 30.5347 24.8781H49.9032C50.368 24.8781 50.7453 24.5174 50.7453 24.071V22.4568H56.64V40.2131C56.64 40.6594 57.0173 41.0202 57.4821 41.0202C57.9469 41.0202 58.3242 40.6594 58.3242 40.2131V21.6497C58.3242 21.2034 57.9469 20.8426 57.4821 20.8426H50.7453V19.2284C50.7453 18.7821 50.368 18.4213 49.9032 18.4213H44.8505V16.8071C44.8505 16.3608 44.4733 16 44.0084 16H36.4295C35.9646 16 35.5874 16.3608 35.5874 16.8071V18.4213H30.5347C30.0699 18.4213 29.6926 18.7821 29.6926 19.2284V20.8426H22.9558C22.4909 20.8426 22.1137 21.2034 22.1137 21.6497V65.1794C22.1137 65.6258 22.4909 65.9865 22.9558 65.9865H56.7663C57.2312 65.9865 57.6084 65.6258 57.6084 65.1794C57.6084 64.7331 57.232 64.3723 56.7663 64.3723ZM37.2716 17.6142H43.1663V19.2284V20.8426H37.2716V19.2284V17.6142ZM35.5874 20.0355H31.3768V21.6497V23.2639H49.061V21.6497V20.0355H44.8505V21.6497C44.8505 22.096 44.4733 22.4568 44.0084 22.4568H36.4295C35.9646 22.4568 35.5874 22.096 35.5874 21.6497V20.0355Z" fill="#FCD500"/>
</svg>
