<svg width="84" height="84" viewBox="0 0 84 84" fill="none" xmlns="http://www.w3.org/2000/svg">
<g id="progress_bar_5">
<g id="Progress_bar">
<path id="Oval 7" opacity="0.2" d="M42 82C64.0914 82 82 64.0914 82 42C82 19.9086 64.0914 2 42 2C19.9086 2 2 19.9086 2 42C2 64.0914 19.9086 82 42 82Z" stroke="black"/>
<path id="Oval 7_2" d="M42 2C64.0914 2 82 19.9086 82 42C82 64.0914 64.0914 82 42 82C19.9086 82 2 64.0914 2 42C2 19.9086 19.9086 2 42 2Z" stroke="#FFE766" stroke-width="4"/>
</g>
<g id="resume">
<path id="Shape" fill-rule="evenodd" clip-rule="evenodd" d="M45.1216 36.1337C45.1216 40.2677 41.7703 43.6191 37.6363 43.6191C33.5041 43.6146 30.1554 40.2659 30.1509 36.1337C30.1509 31.9997 33.5022 28.6483 37.6363 28.6483C41.7703 28.6483 45.1216 31.9997 45.1216 36.1337ZM35.1411 40.6415V41.3857C36.7177 42.1456 38.5548 42.1456 40.1314 41.3857V40.6415C40.1204 40.1064 39.8696 39.6047 39.4483 39.2745C38.9427 38.8464 38.2986 38.6169 37.6363 38.6288C36.3963 38.512 35.2894 39.4049 35.1411 40.6415ZM35.9728 35.3019C35.9728 34.3832 36.7175 33.6385 37.6363 33.6385C38.555 33.6385 39.2997 34.3832 39.2997 35.3019C39.2997 36.2206 38.555 36.9654 37.6363 36.9654C36.718 36.9642 35.974 36.2201 35.9728 35.3019ZM37.6363 30.3117C35.2811 30.3105 33.1575 31.729 32.2567 33.905C31.3559 36.0812 31.8557 38.5855 33.5227 40.2493C33.6726 39.1556 34.3143 38.1905 35.2648 37.6291C33.9805 36.3237 33.9926 34.2257 35.2919 32.9352C36.5912 31.6446 38.6892 31.6466 39.986 32.9396C41.2828 34.2326 41.2908 36.3306 40.0041 37.6336C40.189 37.7451 40.3647 37.8712 40.5294 38.0107C41.2058 38.5749 41.642 39.3754 41.7495 40.2496C43.4167 38.5859 43.9166 36.0815 43.0159 33.9052C42.1152 31.7291 39.9914 30.3104 37.6363 30.3117Z" fill="#FCD500"/>
<path id="Shape_2" d="M39.2996 46.9459H35.9728C35.5134 46.9459 35.1411 47.3182 35.1411 47.7776C35.1411 48.237 35.5135 48.6093 35.9728 48.6093H39.2996C39.759 48.6093 40.1313 48.237 40.1313 47.7776C40.1313 47.3182 39.759 46.9459 39.2996 46.9459Z" fill="#FCD500"/>
<path id="Shape_3" d="M30.1509 51.9362H38.4679C38.9273 51.9362 39.2996 51.5639 39.2996 51.1045C39.2996 50.6451 38.9273 50.2728 38.4679 50.2728H30.1509C29.6915 50.2728 29.3192 50.6451 29.3192 51.1045C29.3192 51.5639 29.6915 51.9362 30.1509 51.9362Z" fill="#FCD500"/>
<path id="Shape_4" d="M41.7948 50.2728C41.3355 50.2728 40.9632 50.6451 40.9632 51.1045C40.9632 51.5639 41.3356 51.9362 41.7948 51.9362H45.1216C45.581 51.9362 45.9533 51.5639 45.9533 51.1045C45.9533 50.6451 45.581 50.2728 45.1216 50.2728H41.7948Z" fill="#FCD500"/>
<path id="Shape_5" d="M30.1509 58.5899H38.4679C38.9273 58.5899 39.2996 58.2175 39.2996 57.7582C39.2996 57.2988 38.9273 56.9265 38.4679 56.9265H30.1509C29.6915 56.9265 29.3192 57.2988 29.3192 57.7582C29.3192 58.2175 29.6915 58.5899 30.1509 58.5899Z" fill="#FCD500"/>
<path id="Shape_6" d="M45.1216 56.9264H41.7948C41.3355 56.9264 40.9632 57.2987 40.9632 57.7581C40.9632 58.2174 41.3356 58.5897 41.7948 58.5897H45.1216C45.581 58.5897 45.9533 58.2174 45.9533 57.7581C45.9533 57.2987 45.581 56.9264 45.1216 56.9264Z" fill="#FCD500"/>
<path id="Shape_7" d="M45.1216 53.5996H36.8046C36.3452 53.5996 35.9729 53.9719 35.9729 54.4313C35.9729 54.8906 36.3452 55.263 36.8046 55.263H45.1216C45.581 55.263 45.9533 54.8906 45.9533 54.4313C45.9533 53.9719 45.581 53.5996 45.1216 53.5996Z" fill="#FCD500"/>
<path id="Shape_8" d="M30.1509 55.263H33.4777C33.937 55.263 34.3094 54.8906 34.3094 54.4313C34.3094 53.9719 33.937 53.5996 33.4777 53.5996H30.1509C29.6915 53.5996 29.3192 53.9719 29.3192 54.4313C29.3192 54.8906 29.6915 55.263 30.1509 55.263Z" fill="#FCD500"/>
<path id="Shape_9" fill-rule="evenodd" clip-rule="evenodd" d="M58.4289 17.0044C63.3943 17.0021 67.8879 19.9459 69.8691 24.4989C71.8502 29.0519 70.9412 34.3464 67.5551 37.978C64.1689 41.6097 58.9508 42.8862 54.2705 41.2279V65.2435C54.2693 66.1617 53.5252 66.9058 52.607 66.907H22.6655C21.7473 66.9057 21.0032 66.1617 21.002 65.2435V22.8264C21.0032 21.9082 21.7473 21.1642 22.6655 21.1631H32.0457C32.3405 20.6503 32.8862 20.3335 33.4777 20.3314H34.3086C34.3098 20.0875 34.3355 19.8442 34.385 19.6053C34.7543 17.9479 36.3117 16.8342 37.9994 17.0204C39.6871 17.2067 40.9641 18.6334 40.9631 20.3313H41.7947C42.3863 20.3333 42.9319 20.6502 43.2267 21.163H49.1563C51.5137 18.5193 54.8868 17.0065 58.4289 17.0044ZM47.894 22.8264H43.4582H43.4581V24.4898H47.002C47.2568 23.9135 47.555 23.3575 47.894 22.8264ZM33.4777 21.9947H35.2905C35.5654 21.9947 35.8225 21.8589 35.9775 21.6319C36.1325 21.4049 36.1654 21.116 36.0654 20.8601C35.9609 20.5691 35.9423 20.2541 36.0118 19.9529C36.203 19.1277 36.9832 18.5775 37.8247 18.6744C38.6661 18.7713 39.3009 19.4844 39.2996 20.3313C39.301 20.5132 39.2691 20.6938 39.2054 20.8642C39.107 21.12 39.1409 21.4079 39.2961 21.6338C39.4513 21.8597 39.7078 21.9947 39.9819 21.9948L41.7947 21.9972V25.3216H33.4777V21.9947ZM41.7947 26.9849H33.4777C32.8862 26.983 32.3405 26.666 32.0457 26.1533H25.9923V61.9167H49.2802V37.9334C46.3297 34.7785 45.2439 30.3104 46.4174 26.1533H43.2267C42.9319 26.666 42.3863 26.9829 41.7947 26.9849ZM52.607 65.2435H22.6655V22.8264H31.8143V24.4898H25.9923C25.0741 24.491 24.3301 25.235 24.3288 26.1533V61.9167C24.33 62.8349 25.0741 63.5789 25.9923 63.5802H49.2801C50.1983 63.579 50.9423 62.8349 50.9436 61.9167V39.4371C51.4689 39.8367 52.0251 40.194 52.607 40.5057V65.2435ZM47.6168 29.4801C47.6168 35.4514 52.4575 40.2923 58.4289 40.2923C64.3976 40.2854 69.2343 35.4487 69.2411 29.4801C69.2411 23.5087 64.4004 18.6679 58.4289 18.6679C52.4575 18.6679 47.6168 23.5087 47.6168 29.4801Z" fill="#FCD500"/>
<path id="Path 2" d="M63.2474 24.3416L64.7526 25.6586L57.0487 34.463L52.2929 29.7072L53.7071 28.293L56.9513 31.5371L63.2474 24.3416Z" fill="#FCD500"/>
</g>
</g>
</svg>
