<svg width="84" height="84" viewBox="0 0 84 84" fill="none" xmlns="http://www.w3.org/2000/svg">
<path opacity="0.2" fill-rule="evenodd" clip-rule="evenodd" d="M1.5 42C1.5 19.6325 19.6325 1.5 42 1.5C64.3675 1.5 82.5 19.6325 82.5 42C82.5 64.3675 64.3675 82.5 42 82.5C19.6325 82.5 1.5 64.3675 1.5 42ZM42 2.5C20.1848 2.5 2.5 20.1848 2.5 42C2.5 63.8152 20.1848 81.5 42 81.5C63.8152 81.5 81.5 63.8152 81.5 42C81.5 20.1848 63.8152 2.5 42 2.5Z" fill="black"/>
<path fill-rule="evenodd" clip-rule="evenodd" d="M36.9795 0.297165C38.6264 0.100885 40.3018 0 42 0C43.6982 0 45.3736 0.100885 47.0205 0.297165L46.5472 4.26906C45.057 4.09146 43.5396 4 42 4C40.4604 4 38.943 4.09146 37.4528 4.26906L36.9795 0.297165ZM0 42C0 40.3018 0.100885 38.6264 0.297165 36.9795L4.26906 37.4528C4.09146 38.943 4 40.4604 4 42C4 43.5396 4.09146 45.057 4.26906 46.5472L0.297165 47.0205C0.100885 45.3736 0 43.6982 0 42ZM83.7028 36.9795C83.8991 38.6264 84 40.3018 84 42C84 43.6982 83.8991 45.3736 83.7028 47.0205L79.7309 46.5472C79.9085 45.057 80 43.5396 80 42C80 40.4604 79.9085 38.943 79.7309 37.4528L83.7028 36.9795ZM42 84C40.3018 84 38.6264 83.8991 36.9795 83.7028L37.4528 79.7309C38.943 79.9085 40.4604 80 42 80C43.5396 80 45.057 79.9085 46.5472 79.7309L47.0205 83.7028C45.3736 83.8991 43.6982 84 42 84Z" fill="#FCD500"/>
<path fill-rule="evenodd" clip-rule="evenodd" d="M53.7426 5.85988C52.7177 5.52685 51.6893 5.23982 50.6596 4.99757L51.5757 1.10388C52.7131 1.37148 53.8483 1.68835 54.9787 2.05565C56.1091 2.42295 57.2138 2.83383 58.2912 3.28589L56.7437 6.9744C55.7683 6.56516 54.7676 6.1929 53.7426 5.85988ZM6.97437 27.2563C6.56513 28.2317 6.19287 29.2324 5.85985 30.2574C5.52682 31.2823 5.23979 32.3107 4.99754 33.3404L1.10385 32.4243C1.37145 31.2869 1.68832 30.1517 2.05562 29.0213C2.42292 27.8909 2.8338 26.7863 3.28586 25.7088L6.97437 27.2563ZM78.1401 53.7427C78.4732 52.7177 78.7602 51.6893 79.0024 50.6597L82.8961 51.5757C82.6285 52.7131 82.3117 53.8483 81.9444 54.9787C81.5771 56.1092 81.1662 57.2138 80.7141 58.2913L77.0256 56.7437C77.4349 55.7683 77.8071 54.7676 78.1401 53.7427ZM27.2563 77.0256C28.2317 77.4349 29.2324 77.8071 30.2573 78.1402C31.2823 78.4732 32.3107 78.7602 33.3404 79.0025L32.4243 82.8962C31.2869 82.6286 30.1517 82.3117 29.0213 81.9444C27.8908 81.5771 26.7862 81.1662 25.7088 80.7142L27.2563 77.0256Z" fill="#FFE766"/>
<path fill-rule="evenodd" clip-rule="evenodd" d="M31.1333 54.75C31.1333 51.8546 33.5104 49.5 36.4333 49.5C39.3563 49.5 41.7333 51.8546 41.7333 54.75C41.7333 57.6454 39.3563 60 36.4333 60C33.5104 60 31.1333 57.6454 31.1333 54.75ZM32.9 54.75C32.9 56.6803 34.4847 58.25 36.4333 58.25C38.382 58.25 39.9667 56.6803 39.9667 54.75C39.9667 52.8197 38.382 51.25 36.4333 51.25C34.4847 51.25 32.9 52.8197 32.9 54.75Z" fill="#FCD500"/>
<path fill-rule="evenodd" clip-rule="evenodd" d="M31.1333 30.25C31.1333 27.3546 33.5104 25 36.4333 25C39.3563 25 41.7333 27.3546 41.7333 30.25C41.7333 33.1454 39.3563 35.5 36.4333 35.5C33.5104 35.5 31.1333 33.1454 31.1333 30.25ZM32.9 30.25C32.9 32.1803 34.4847 33.75 36.4333 33.75C38.382 33.75 39.9667 32.1803 39.9667 30.25C39.9667 28.3197 38.382 26.75 36.4333 26.75C34.4847 26.75 32.9 28.3197 32.9 30.25Z" fill="#FCD500"/>
<path fill-rule="evenodd" clip-rule="evenodd" d="M17 54.75C17 51.8546 19.3771 49.5 22.3 49.5C25.2229 49.5 27.6 51.8546 27.6 54.75C27.6 57.6454 25.2229 60 22.3 60C19.3771 60 17 57.6454 17 54.75ZM18.7667 54.75C18.7667 56.6803 20.3514 58.25 22.3 58.25C24.2486 58.25 25.8333 56.6803 25.8333 54.75C25.8333 52.8197 24.2486 51.25 22.3 51.25C20.3514 51.25 18.7667 52.8197 18.7667 54.75Z" fill="#FCD500"/>
<path fill-rule="evenodd" clip-rule="evenodd" d="M17 30.25C17 27.3546 19.3771 25 22.3 25C25.2229 25 27.6 27.3546 27.6 30.25C27.6 33.1454 25.2229 35.5 22.3 35.5C19.3771 35.5 17 33.1454 17 30.25ZM18.7667 30.25C18.7667 32.1803 20.3514 33.75 22.3 33.75C24.2486 33.75 25.8333 32.1803 25.8333 30.25C25.8333 28.3197 24.2486 26.75 22.3 26.75C20.3514 26.75 18.7667 28.3197 18.7667 30.25Z" fill="#FCD500"/>
<path fill-rule="evenodd" clip-rule="evenodd" d="M45.2667 42.5C45.2667 39.6046 47.6437 37.25 50.5667 37.25C53.4896 37.25 55.8667 39.6046 55.8667 42.5C55.8667 45.3954 53.4896 47.75 50.5667 47.75C47.6437 47.75 45.2667 45.3954 45.2667 42.5ZM47.0333 42.5C47.0333 44.4303 48.618 46 50.5667 46C52.5153 46 54.1 44.4303 54.1 42.5C54.1 40.5697 52.5153 39 50.5667 39C48.618 39 47.0333 40.5697 47.0333 42.5Z" fill="#FCD500"/>
<path fill-rule="evenodd" clip-rule="evenodd" d="M45.2667 54.75C45.2667 51.8546 47.6437 49.5 50.5667 49.5C53.4896 49.5 55.8667 51.8546 55.8667 54.75C55.8667 57.6454 53.4896 60 50.5667 60C47.6437 60 45.2667 57.6454 45.2667 54.75ZM47.0333 54.75C47.0333 56.6803 48.618 58.25 50.5667 58.25C52.5153 58.25 54.1 56.6803 54.1 54.75C54.1 52.8197 52.5153 51.25 50.5667 51.25C48.618 51.25 47.0333 52.8197 47.0333 54.75Z" fill="#FCD500"/>
<path fill-rule="evenodd" clip-rule="evenodd" d="M67.35 32.875V44.0855C68.9312 44.9946 70 46.6869 70 48.625C70 51.5204 67.623 53.875 64.7 53.875C61.7771 53.875 59.4 51.5204 59.4 48.625C59.4 47.477 59.7781 46.4174 60.4105 45.552L60.3991 45.559L53.9136 34.3161C53.0002 35.0555 51.8351 35.5 50.5667 35.5C49.1595 35.5 47.8822 34.9505 46.9335 34.0615L40.4357 39.0674C41.2422 39.9888 41.7342 41.1875 41.7342 42.5C41.7342 45.3954 39.3572 47.75 36.4342 47.75C33.8125 47.75 31.636 45.8539 31.2137 43.375H27.5205C27.0974 45.8539 24.9209 47.75 22.3 47.75C19.3771 47.75 17 45.3954 17 42.5C17 39.6046 19.3771 37.25 22.3 37.25C24.9217 37.25 27.0983 39.1461 27.5205 41.625H31.2128C31.636 39.1461 33.8125 37.25 36.4333 37.25C37.3785 37.25 38.2645 37.4994 39.0339 37.9299L45.8664 32.6659C45.4857 31.9422 45.2667 31.1215 45.2667 30.25C45.2667 27.3546 47.6437 25 50.5667 25C53.4896 25 55.8667 27.3546 55.8667 30.25C55.8667 31.2178 55.5964 32.1225 55.1335 32.9021L61.7064 44.2973C62.5588 43.7163 63.5896 43.375 64.7 43.375C65.0012 43.375 65.2954 43.4056 65.5833 43.4538V33.4438L58.158 30.1747C57.8383 30.0339 57.6333 29.7215 57.6333 29.375C57.6333 29.0285 57.8383 28.7161 58.158 28.5752L66.108 25.0752C66.381 24.9554 66.6972 24.9799 66.9481 25.1409C67.1989 25.3027 67.35 25.5784 67.35 25.875V26.75V32.875ZM18.7667 42.5C18.7667 44.4303 20.3514 46 22.3 46C24.2486 46 25.8333 44.4303 25.8333 42.5C25.8333 40.5697 24.2486 39 22.3 39C20.3514 39 18.7667 40.5697 18.7667 42.5ZM36.4333 46C34.4847 46 32.9 44.4303 32.9 42.5C32.9 40.5697 34.4847 39 36.4333 39C38.382 39 39.9667 40.5697 39.9667 42.5C39.9667 44.4303 38.382 46 36.4333 46ZM47.0333 30.25C47.0333 32.1803 48.618 33.75 50.5667 33.75C52.5153 33.75 54.1 32.1803 54.1 30.25C54.1 28.3197 52.5153 26.75 50.5667 26.75C48.618 26.75 47.0333 28.3197 47.0333 30.25ZM60.6914 29.375L65.5833 27.2216V31.5284L60.6914 29.375ZM61.1667 48.625C61.1667 50.5553 62.7514 52.125 64.7 52.125C66.6486 52.125 68.2333 50.5553 68.2333 48.625C68.2333 47.7448 67.8932 46.9494 67.35 46.3342V48.625H65.5833V45.2493C65.2989 45.1758 65.0065 45.125 64.7 45.125C62.7514 45.125 61.1667 46.6947 61.1667 48.625Z" fill="#FCD500"/>
<path d="M60.2833 55.625H62.05V57.375H60.2833V55.625Z" fill="#FCD500"/>
<path d="M63.8167 55.625H65.5833V57.375H63.8167V55.625Z" fill="#FCD500"/>
<path d="M67.35 55.625H69.1167V57.375H67.35V55.625Z" fill="#FCD500"/>
</svg>
