<svg width="85" height="85" viewBox="0 0 85 85" fill="none" xmlns="http://www.w3.org/2000/svg">
<path opacity="0.2" fill-rule="evenodd" clip-rule="evenodd" d="M1.5 42C1.5 19.6325 19.6325 1.5 42 1.5C64.3675 1.5 82.5 19.6325 82.5 42C82.5 64.3675 64.3675 82.5 42 82.5C19.6325 82.5 1.5 64.3675 1.5 42ZM42 2.5C20.1848 2.5 2.5 20.1848 2.5 42C2.5 63.8152 20.1848 81.5 42 81.5C63.8152 81.5 81.5 63.8152 81.5 42C81.5 20.1848 63.8152 2.5 42 2.5Z" fill="black"/>
<path fill-rule="evenodd" clip-rule="evenodd" d="M37.2381 0.555832C38.8851 0.359552 40.5605 0.258667 42.2587 0.258667C43.9568 0.258667 45.6323 0.359552 47.2792 0.555832L46.8058 4.52772C45.3156 4.35012 43.7983 4.25867 42.2587 4.25867C40.7191 4.25867 39.2017 4.35012 37.7115 4.52772L37.2381 0.555832ZM0.258667 42.2587C0.258667 40.5605 0.359552 38.8851 0.555832 37.2381L4.52772 37.7115C4.35012 39.2017 4.25867 40.7191 4.25867 42.2587C4.25867 43.7983 4.35012 45.3156 4.52772 46.8058L0.555832 47.2792C0.359552 45.6323 0.258667 43.9568 0.258667 42.2587ZM83.9615 37.2381C84.1578 38.8851 84.2587 40.5605 84.2587 42.2587C84.2587 43.9568 84.1578 45.6323 83.9615 47.2792L79.9896 46.8058C80.1672 45.3156 80.2587 43.7983 80.2587 42.2587C80.2587 40.7191 80.1672 39.2017 79.9896 37.7115L83.9615 37.2381ZM42.2587 84.2587C40.5605 84.2587 38.8851 84.1578 37.2381 83.9615L37.7115 79.9896C39.2017 80.1672 40.7191 80.2587 42.2587 80.2587C43.7983 80.2587 45.3156 80.1672 46.8058 79.9896L47.2792 83.9615C45.6323 84.1578 43.9568 84.2587 42.2587 84.2587Z" fill="#FCD500"/>
<path fill-rule="evenodd" clip-rule="evenodd" d="M54.0013 6.11854C52.9764 5.78552 51.948 5.49849 50.9183 5.25624L51.8344 1.36255C52.9718 1.63015 54.107 1.94701 55.2374 2.31432C56.3678 2.68162 57.4725 3.0925 58.5499 3.54456L57.0024 7.23307C56.027 6.82383 55.0263 6.45156 54.0013 6.11854ZM7.23307 27.515C6.82383 28.4904 6.45156 29.4911 6.11854 30.516C5.78552 31.541 5.49849 32.5694 5.25624 33.5991L1.36255 32.683C1.63015 31.5456 1.94701 30.4104 2.31432 29.28C2.68162 28.1495 3.0925 27.0449 3.54456 25.9675L7.23307 27.515ZM78.3988 54.0013C78.7319 52.9764 79.0189 51.948 79.2611 50.9183L83.1548 51.8344C82.8872 52.9718 82.5704 54.107 82.2031 55.2374C81.8358 56.3678 81.4249 57.4725 80.9728 58.5499L77.2843 57.0024C77.6936 56.027 78.0658 55.0263 78.3988 54.0013ZM27.515 77.2843C28.4904 77.6936 29.4911 78.0658 30.516 78.3988C31.541 78.7319 32.5694 79.0189 33.5991 79.2611L32.683 83.1548C31.5456 82.8872 30.4104 82.5704 29.28 82.2031C28.1495 81.8358 27.0449 81.4249 25.9675 80.9728L27.515 77.2843Z" fill="#FCD500"/>
<path fill-rule="evenodd" clip-rule="evenodd" d="M24.6631 8.56911C22.4661 9.71968 20.3486 11.1042 18.3445 12.7271C16.3403 14.3501 14.5458 16.1334 12.9636 18.0431L9.88342 15.4912C11.6335 13.3789 13.6163 11.4089 15.8272 9.61854C18.0381 7.82821 20.3773 6.29826 22.8074 5.02563L24.6631 8.56911ZM71.7902 18.3445C70.1673 16.3403 68.3839 14.5458 66.4742 12.9636L69.0261 9.88342C71.1385 11.6335 73.1085 13.6163 74.8988 15.8272C76.6891 18.0381 78.2191 20.3773 79.4917 22.8074L75.9482 24.6631C74.7977 22.4661 73.4131 20.3486 71.7902 18.3445ZM8.56911 59.8542C9.71968 62.0512 11.1042 64.1687 12.7271 66.1728C14.3501 68.177 16.1334 69.9715 18.0431 71.5537L15.4912 74.6339C13.3789 72.8839 11.4089 70.901 9.61854 68.6901C7.82821 66.4793 6.29826 64.14 5.02563 61.71L8.56911 59.8542ZM66.1728 71.7902C68.177 70.1673 69.9715 68.3839 71.5537 66.4742L74.6339 69.0261C72.8839 71.1385 70.901 73.1085 68.6901 74.8988C66.4793 76.6891 64.14 78.2191 61.71 79.4917L59.8542 75.9482C62.0512 74.7977 64.1687 73.4131 66.1728 71.7902Z" fill="#FCD500"/>
<path fill-rule="evenodd" clip-rule="evenodd" d="M22.0476 10.0746C20.7777 10.8744 19.541 11.7582 18.3445 12.7271C17.148 13.696 16.0263 14.722 14.98 15.7978L12.1125 13.009C13.2689 11.82 14.5075 10.6872 15.8272 9.61852C17.1469 8.54984 18.5125 7.57385 19.9159 6.68994L22.0476 10.0746ZM71.7902 18.3445C70.8213 17.148 69.7953 16.0263 68.7195 14.98L71.5083 12.1125C72.6973 13.2689 73.8301 14.5075 74.8988 15.8272C75.9675 17.1469 76.9435 18.5125 77.8274 19.9159L74.4427 22.0476C73.6429 20.7777 72.7591 19.541 71.7902 18.3445ZM10.0746 62.4697C10.8744 63.7396 11.7582 64.9763 12.7271 66.1728C13.696 67.3693 14.722 68.491 15.7978 69.5373L13.009 72.4048C11.82 71.2484 10.6872 70.0098 9.61852 68.6901C8.54984 67.3704 7.57385 66.0048 6.68994 64.6014L10.0746 62.4697ZM66.1728 71.7902C67.3693 70.8213 68.491 69.7953 69.5373 68.7195L72.4048 71.5083C71.2484 72.6973 70.0098 73.8301 68.6901 74.8988C67.3704 75.9675 66.0048 76.9435 64.6014 77.8274L62.4697 74.4427C63.7396 73.6429 64.9763 72.7591 66.1728 71.7902Z" fill="#FFE766"/>
<path d="M40 53.5L28.8321 59.3713L30.965 46.9357L21.9299 38.1287L34.416 36.3143L40 25L45.584 36.3143L58.0701 38.1287L49.035 46.9357L51.1679 59.3713L40 53.5Z" fill="white"/>
<path fill-rule="evenodd" clip-rule="evenodd" d="M40 51.6924L49.0429 56.4465L47.3159 46.3771L54.6317 39.2459L44.5215 37.7768L40 28.6153L35.4786 37.7768L25.3683 39.2459L32.6841 46.3771L30.9571 56.4465L40 51.6924ZM28.8321 59.3713L30.965 46.9357L21.9299 38.1287L34.416 36.3143L40 25L45.584 36.3143L58.0701 38.1287L49.035 46.9357L51.1679 59.3713L40 53.5L28.8321 59.3713Z" fill="#FCD500"/>
<path d="M49 58.5L43.7099 61.2812L44.7202 55.3906L40.4405 51.2188L46.355 50.3594L49 45L51.645 50.3594L57.5595 51.2188L53.2798 55.3906L54.2901 61.2812L49 58.5Z" fill="white"/>
<path fill-rule="evenodd" clip-rule="evenodd" d="M49 56.6924L52.1651 58.3563L51.5606 54.832L54.1212 52.336L50.5825 51.8218L49 48.6153L47.4175 51.8218L43.8788 52.336L46.4394 54.832L45.8349 58.3563L49 56.6924ZM43.7099 61.2812L44.7202 55.3906L40.4405 51.2188L46.355 50.3594L49 45L51.645 50.3594L57.5595 51.2188L53.2798 55.3906L54.2901 61.2812L49 58.5L43.7099 61.2812Z" fill="#FCD500"/>
</svg>
