<svg width="84" height="84" viewBox="0 0 84 84" fill="none" xmlns="http://www.w3.org/2000/svg">
<path opacity="0.2" fill-rule="evenodd" clip-rule="evenodd" d="M1.5 42C1.5 19.6325 19.6325 1.5 42 1.5C64.3675 1.5 82.5 19.6325 82.5 42C82.5 64.3675 64.3675 82.5 42 82.5C19.6325 82.5 1.5 64.3675 1.5 42ZM42 2.5C20.1848 2.5 2.5 20.1848 2.5 42C2.5 63.8152 20.1848 81.5 42 81.5C63.8152 81.5 81.5 63.8152 81.5 42C81.5 20.1848 63.8152 2.5 42 2.5Z" fill="black"/>
<path fill-rule="evenodd" clip-rule="evenodd" d="M0 42C0 65.196 18.804 84 42 84C65.196 84 84 65.196 84 42C84 18.804 65.196 0 42 0C18.804 0 0 18.804 0 42ZM42 80C21.0132 80 4 62.9868 4 42C4 21.0132 21.0132 4 42 4C62.9868 4 80 21.0132 80 42C80 62.9868 62.9868 80 42 80Z" fill="#FFE766"/>
<path fill-rule="evenodd" clip-rule="evenodd" d="M42 80C37.3657 80 32.9295 79.1713 28.8285 77.6558L27.442 81.4078C31.9803 83.0849 36.8855 84 42 84C47.1145 84 52.0197 83.0849 56.558 81.4078L55.1715 77.6558C51.0705 79.1713 46.6343 80 42 80ZM6.34417 55.1715C4.82867 51.0705 4 46.6343 4 42C4 37.3657 4.82867 32.9295 6.34417 28.8285L2.59216 27.442C0.915074 31.9803 0 36.8855 0 42C0 47.1145 0.915074 52.0197 2.59217 56.558L6.34417 55.1715ZM80 42C80 46.6343 79.1713 51.0705 77.6558 55.1715L81.4078 56.558C83.0849 52.0197 84 47.1145 84 42C84 36.8855 83.0849 31.9803 81.4078 27.442L77.6558 28.8285C79.1713 32.9295 80 37.3657 80 42ZM28.8285 6.34417C32.9295 4.82867 37.3657 4 42 4C46.6343 4 51.0705 4.82867 55.1715 6.34417L56.558 2.59216C52.0197 0.915077 47.1145 0 42 0C36.8855 0 31.9803 0.915077 27.442 2.59216L28.8285 6.34417Z" fill="#FCD500"/>
<path fill-rule="evenodd" clip-rule="evenodd" d="M17 55.12V51.52C17 51.329 17.0758 51.1459 17.2109 51.0109C17.3459 50.8759 17.529 50.8 17.72 50.8H24.2V22.72C24.2 22.529 24.2758 22.3459 24.4109 22.2109C24.5459 22.0758 24.729 22 24.92 22H53.72C53.911 22 54.0941 22.0758 54.2291 22.2109C54.3642 22.3459 54.44 22.529 54.44 22.72V26.32H58.04C58.231 26.32 58.4141 26.3958 58.5491 26.5309C58.6842 26.6659 58.76 26.849 58.76 27.04V64.48C58.76 64.671 58.6842 64.8541 58.5491 64.9891C58.4141 65.1242 58.231 65.2 58.04 65.2H29.96C29.769 65.2 29.5859 65.1242 29.4509 64.9891C29.3159 64.8541 29.24 64.671 29.24 64.48V60.88H22.76C19.5803 60.8764 17.0036 58.2997 17 55.12ZM57.32 27.76H54.44V55.12C54.4364 58.2997 51.8597 60.8764 48.68 60.88H30.68V63.76H57.32V27.76ZM25.64 23.44H53V55.12C53 57.5059 51.0659 59.44 48.68 59.44C46.2941 59.44 44.36 57.5059 44.36 55.12V51.52C44.36 51.329 44.2842 51.1459 44.1491 51.0109C44.0141 50.8759 43.831 50.8 43.64 50.8H25.64V23.44ZM42.92 52.24H18.44V55.12C18.4427 57.5048 20.3752 59.4373 22.76 59.44H44.874C43.6315 58.3482 42.9195 56.7741 42.92 55.12V52.24ZM34.28 29.92H36.44V31.36H34.28V29.92ZM40.76 29.92H37.88V31.36H40.76V29.92ZM42.2 29.92H47.96V31.36H42.2V29.92ZM37.88 33.52H30.68V34.96H37.88V33.52ZM39.32 33.52H42.92V34.96H39.32V33.52ZM47.96 33.52H44.36V34.96H47.96V33.52ZM30.68 44.32H36.44V45.76H30.68V44.32ZM41.48 44.32H37.88V45.76H41.48V44.32ZM42.92 44.32H47.96V45.76H42.92V44.32ZM35.72 37.12H30.68V38.56H35.72V37.12ZM37.16 37.12H47.96V38.56H37.16V37.12ZM32.84 40.72H30.68V42.16H32.84V40.72ZM38.6 40.72V42.16H34.28V40.72H38.6ZM47.96 40.72H40.04V42.16H47.96V40.72Z" fill="#FCD500"/>
<path d="M56 36C60.9706 36 65 31.9706 65 27C65 22.0294 60.9706 18 56 18C51.0294 18 47 22.0294 47 27C47 31.9706 51.0294 36 56 36Z" fill="white"/>
<path fill-rule="evenodd" clip-rule="evenodd" d="M56 34.4C60.0869 34.4 63.4 31.0869 63.4 27C63.4 22.9131 60.0869 19.6 56 19.6C51.9131 19.6 48.6 22.9131 48.6 27C48.6 31.0869 51.9131 34.4 56 34.4ZM65 27C65 31.9706 60.9706 36 56 36C51.0294 36 47 31.9706 47 27C47 22.0294 51.0294 18 56 18C60.9706 18 65 22.0294 65 27Z" fill="#FCD500"/>
<path d="M56.7982 26.454C56.9024 26.3602 57.0326 26.2586 57.1889 26.1492C57.3452 26.0398 57.5041 25.9303 57.6657 25.8209C57.8272 25.7115 57.9913 25.6125 58.158 25.524C58.3247 25.4354 58.4706 25.3703 58.5957 25.3286L58.9708 25.2035L59.596 27.1417L59.2209 27.2667C59.0854 27.3084 58.9291 27.3397 58.752 27.3605C58.5748 27.3814 58.3873 27.3944 58.1893 27.3996C57.9913 27.4048 57.7985 27.4074 57.6109 27.4074H57.1108L57.3782 27.5915C57.4257 27.6251 57.4746 27.6601 57.525 27.6966C57.6761 27.806 57.8272 27.9206 57.9783 28.0404C58.1294 28.1603 58.2726 28.2827 58.4081 28.4078C58.5436 28.5328 58.653 28.6526 58.7363 28.7673L58.9864 29.0955L57.3296 30.2678L57.0951 29.9552C57.0118 29.851 56.931 29.7155 56.8529 29.5488C56.7747 29.382 56.6992 29.2075 56.6262 29.0252C56.5533 28.8428 56.4908 28.663 56.4387 28.4859L56.298 28.0014V28.0014L56.1573 28.4859V28.4859C56.1052 28.663 56.0427 28.8428 55.9698 29.0252C55.8968 29.2075 55.8213 29.382 55.7431 29.5488C55.6845 29.6738 55.6244 29.7813 55.5629 29.8711L55.2664 30.2678L53.6096 29.0955L53.8597 28.7673C53.943 28.6526 54.0524 28.5328 54.1879 28.4078C54.3234 28.2827 54.4666 28.1603 54.6177 28.0404C54.7688 27.9206 54.9199 27.806 55.071 27.6966C55.2221 27.5872 55.3602 27.4908 55.4852 27.4074H54.9851C54.7975 27.4074 54.6047 27.4048 54.4067 27.3996C54.2087 27.3944 54.0212 27.3814 53.844 27.3605C53.6669 27.3397 53.5106 27.3084 53.3751 27.2667L53 27.1417L53.6252 25.2035L54.0003 25.3286C54.1254 25.3703 54.2713 25.4354 54.438 25.524C54.6047 25.6125 54.7688 25.7115 54.9303 25.8209C55.0919 25.9303 55.2482 26.0398 55.3993 26.1492L55.6771 26.3576C55.7194 26.3906 55.7596 26.4227 55.7978 26.454C55.7457 26.3185 55.691 26.1596 55.6337 25.9772C55.5764 25.7949 55.5217 25.6099 55.4696 25.4224C55.4175 25.2348 55.3732 25.0498 55.3367 24.8675C55.3003 24.6851 55.282 24.5262 55.282 24.3908V24H57.314V24.3908C57.314 24.5262 57.2957 24.6851 57.2593 24.8675C57.2228 25.0498 57.1785 25.2348 57.1264 25.4224C57.0743 25.6099 57.0196 25.7949 56.9623 25.9772L56.8511 26.3107C56.8332 26.361 56.8155 26.4088 56.7982 26.454Z" fill="#FCD500"/>
</svg>
