<svg width="84" height="84" viewBox="0 0 84 84" fill="none" xmlns="http://www.w3.org/2000/svg">
<path opacity="0.2" fill-rule="evenodd" clip-rule="evenodd" d="M1.5 42C1.5 19.6325 19.6325 1.5 42 1.5C64.3675 1.5 82.5 19.6325 82.5 42C82.5 64.3675 64.3675 82.5 42 82.5C19.6325 82.5 1.5 64.3675 1.5 42ZM42 2.5C20.1848 2.5 2.5 20.1848 2.5 42C2.5 63.8152 20.1848 81.5 42 81.5C63.8152 81.5 81.5 63.8152 81.5 42C81.5 20.1848 63.8152 2.5 42 2.5Z" fill="black"/>
<path fill-rule="evenodd" clip-rule="evenodd" d="M42 80C40.4604 80 38.943 79.9085 37.4528 79.7309L36.9795 83.7028C38.6264 83.8991 40.3018 84 42 84C43.6982 84 45.3736 83.8991 47.0205 83.7028L46.5472 79.7309C45.057 79.9085 43.5396 80 42 80ZM4.26906 46.5472C4.09146 45.057 4 43.5396 4 42C4 40.4604 4.09146 38.943 4.26906 37.4528L0.297165 36.9795C0.100885 38.6264 0 40.3018 0 42C0 43.6982 0.100885 45.3736 0.297165 47.0205L4.26906 46.5472ZM80 42C80 43.5396 79.9085 45.057 79.7309 46.5472L83.7028 47.0205C83.8991 45.3736 84 43.6982 84 42C84 40.3018 83.8991 38.6264 83.7028 36.9795L79.7309 37.4528C79.9085 38.943 80 40.4604 80 42ZM37.4528 4.26906C38.943 4.09145 40.4604 4 42 4C43.5396 4 45.057 4.09145 46.5472 4.26906L47.0205 0.297165C45.3736 0.100883 43.6982 0 42 0C40.3018 0 38.6264 0.100883 36.9795 0.297165L37.4528 4.26906Z" fill="#FCD500"/>
<path fill-rule="evenodd" clip-rule="evenodd" d="M68.6867 38.3122C68.6867 30.0099 60.1061 23.6024 49.968 23.6024C39.83 23.6024 31.2494 30.0099 31.2494 38.3122C31.2494 46.6174 39.8301 53.022 49.968 53.022C52.0225 53.022 53.997 52.7617 55.8467 52.2824C56.4907 52.7112 57.3855 53.1673 58.335 53.5947C59.4774 54.1091 60.7605 54.6089 61.9164 55.0004C63.0545 55.3859 64.1278 55.6865 64.8284 55.7731C65.0063 55.795 65.1943 55.8079 65.3698 55.7944C65.4998 55.7844 65.8227 55.7499 66.076 55.5035C66.2292 55.3544 66.3295 55.1529 66.3477 54.9265C66.3642 54.7209 66.3089 54.5505 66.2577 54.4383C66.1612 54.2269 66.0021 54.0549 65.871 53.9299C64.4111 52.5372 63.8548 50.6628 63.648 48.3608C66.7429 45.7605 68.6867 42.2312 68.6867 38.3122ZM49.968 25.2024C59.6232 25.2024 67.0867 31.247 67.0867 38.3122C67.0867 41.7885 65.3052 44.998 62.3181 47.382L61.9892 47.6445L62.0191 48.0642C62.1687 50.1643 62.5705 52.1983 63.748 53.8974C63.3539 53.7862 62.9087 53.6472 62.4297 53.485C61.3196 53.109 60.0846 52.6277 58.9918 52.1358C57.8817 51.636 56.9778 51.1513 56.4886 50.7771L56.1724 50.5351L55.7887 50.6415C53.9729 51.1452 52.0159 51.422 49.968 51.422C40.3128 51.422 32.8494 45.3801 32.8494 38.3122C32.8494 31.247 40.3129 25.2024 49.968 25.2024ZM65.2474 54.1991C65.2708 54.1973 65.2663 54.1951 65.2434 54.1994C65.2448 54.1993 65.2462 54.1992 65.2474 54.1991Z" fill="#FCD500"/>
<path d="M33.9187 30.2445C24.022 30.2445 16 36.4705 16 44.1543C16 47.921 17.9325 51.3456 21.0696 53.8494C20.8877 56.4032 20.3322 58.6677 18.5679 60.3508C16.8036 62.0339 25.6154 58.9904 27.8842 57.2545C29.7698 57.7775 31.7987 58.0641 33.9187 58.0641C43.8153 58.0641 51.8373 51.8408 51.8373 44.1543C51.8373 36.4705 43.8153 30.2445 33.9187 30.2445Z" fill="white"/>
<path fill-rule="evenodd" clip-rule="evenodd" d="M22.7254 53.1237L22.6656 53.9631C22.5597 55.4495 22.3278 56.9617 21.7669 58.3721C22.697 58.0397 23.6809 57.6471 24.5665 57.2484C25.6691 56.752 26.5009 56.2983 26.9119 55.9838L27.5444 55.4999L28.3119 55.7127C30.0578 56.197 31.9429 56.4641 33.9187 56.4641C43.3326 56.4641 50.2373 50.6035 50.2373 44.1543C50.2373 37.7076 43.3324 31.8445 33.9187 31.8445C24.5049 31.8445 17.6 37.7076 17.6 44.1543C17.6 47.34 19.2306 50.3345 22.0677 52.5988L22.7254 53.1237ZM20.627 60.4311C20.3824 60.5035 20.1503 60.5679 19.9343 60.623C19.5764 60.7144 19.2628 60.7803 19.0104 60.8147C18.359 60.9035 18.115 60.7829 18.5679 60.3508C18.8519 60.0799 19.1045 59.794 19.3293 59.4942C19.4387 59.3483 19.5415 59.1992 19.638 59.047C20.5766 57.5676 20.9312 55.7922 21.0696 53.8494C17.9325 51.3456 16 47.921 16 44.1543C16 36.4705 24.022 30.2445 33.9187 30.2445C43.8153 30.2445 51.8373 36.4705 51.8373 44.1543C51.8373 51.8408 43.8153 58.0641 33.9187 58.0641C31.7987 58.0641 29.7698 57.7775 27.8842 57.2545C26.5597 58.2679 23.0053 59.727 20.627 60.4311Z" fill="#FCD500"/>
</svg>
