<svg width="85" height="86" viewBox="0 0 85 86" fill="none" xmlns="http://www.w3.org/2000/svg">
<path opacity="0.2" d="M41.0007 83.0011C63.0921 83.0011 81.0007 65.0925 81.0007 43.0011C81.0007 20.9097 63.0921 3.0011 41.0007 3.0011C18.9093 3.0011 1.00073 20.9097 1.00073 43.0011C1.00073 65.0925 18.9093 83.0011 41.0007 83.0011Z" stroke="black"/>
<path d="M42 83C47.2529 83 52.4543 81.9654 57.3073 79.9552C62.1604 77.945 66.5699 74.9986 70.2843 71.2843C73.9986 67.5699 76.945 63.1604 78.9552 58.3073C80.9654 53.4543 82 48.2529 82 43C82 37.7471 80.9654 32.5457 78.9552 27.6927C76.945 22.8396 73.9986 18.4301 70.2843 14.7157C66.5699 11.0014 62.1604 8.055 57.3073 6.04482C52.4543 4.03463 47.2529 3 42 3" stroke="#FCD500" stroke-width="5"/>
<path d="M48.9688 25.4036C58.8654 25.4036 66.8875 31.6296 66.8875 39.3133C66.8875 43.0801 64.955 46.5047 61.8178 49.0085C61.9998 51.5623 62.5553 53.8268 64.3196 55.5099C66.0838 57.193 57.272 54.1495 55.0032 52.4136C53.1176 52.9366 51.0887 53.2231 48.9688 53.2231C39.0722 53.2231 31.0501 46.9999 31.0501 39.3133C31.0501 31.6296 39.0722 25.4036 48.9688 25.4036Z" stroke="#FCD500" stroke-width="1.6"/>
<path d="M20.8683 54.9075L20.8982 54.4878L20.5694 54.2253C17.5822 51.8413 15.8007 48.6318 15.8007 45.1555C15.8007 38.0903 23.2642 32.0457 32.9194 32.0457C42.5746 32.0457 50.0381 38.0903 50.0381 45.1555C50.0381 52.2234 42.5747 58.2653 32.9194 58.2653C30.8715 58.2653 28.9145 57.9885 27.0988 57.4848L26.7151 57.3784L26.3988 57.6204C25.9097 57.9946 25.0057 58.4793 23.8956 58.9791C22.8029 59.471 21.5679 59.9523 20.4578 60.3283C19.9788 60.4905 19.5335 60.6295 19.1395 60.7407C20.3169 59.0416 20.7187 57.0076 20.8683 54.9075Z" fill="white" stroke="#FCD500" stroke-width="1.6"/>
</svg>
