<svg width="1253" height="558" viewBox="0 0 1253 558" fill="none" xmlns="http://www.w3.org/2000/svg">
<path fill-rule="evenodd" clip-rule="evenodd" d="M1010.68 39.9517C978.388 13.5207 925.183 -3.02307 841.586 4.21371C764.973 10.8459 696.427 37.4967 625.032 65.2554C618.543 67.7785 612.03 70.3107 605.485 72.8378C526.972 103.156 443.965 132.71 342.539 136.717C181.685 143.071 53.4726 111.209 8.20371 94.0566C7.39167 95.2308 6.03567 96 4.5 96C2.01472 96 0 93.9853 0 91.5C0 89.0147 2.01472 87 4.5 87C6.98528 87 9 89.0147 9 91.5C9 91.7378 8.98156 91.9713 8.94602 92.1991C53.9825 109.256 181.904 141.061 342.461 134.718C443.535 130.725 526.278 101.279 604.765 70.9721C611.289 68.4527 617.784 65.9272 624.259 63.4097C694.38 36.1335 765.805 8.7664 841.414 2.22116C925.317 -5.04206 979.112 11.5281 1011.95 38.4041C1044.79 65.2882 1056.5 102.352 1056.5 135.717C1056.5 168.113 1047.38 194.976 1030.87 216.827C1014.37 238.668 990.535 255.445 961.2 267.762C902.551 292.385 821.744 299.252 732.93 292.997C462.88 273.98 313.5 267.724 245.116 275.711C191.547 281.967 149.786 302.136 122.732 331.17C95.689 360.19 83.2778 398.129 88.4924 440.094C93.7069 482.059 113.285 514.684 153.378 534.336C193.558 554.03 254.452 560.749 342.384 550.507C386.283 545.393 440.633 529.909 503.571 511.478C507.467 510.337 511.364 509.195 515.26 508.052C575.277 490.452 642.692 470.683 715.852 454.941C871.413 421.468 1053.02 406.183 1245.03 468.632C1245.86 467.635 1247.1 467 1248.5 467C1250.99 467 1253 469.015 1253 471.5C1253 473.985 1250.99 476 1248.5 476C1245.62 476 1243.46 473.202 1244.13 470.441C1052.68 408.25 871.569 423.48 716.273 456.896C643.188 472.622 575.838 492.372 515.813 509.974C511.888 511.125 507.995 512.267 504.133 513.398C441.242 531.814 386.717 547.356 342.616 552.493C254.548 562.751 193.192 556.078 152.497 536.132C111.715 516.142 91.7931 482.876 86.5076 440.341C81.2222 397.805 93.811 359.272 121.268 329.806C148.714 300.353 190.953 280.023 244.884 273.724C313.5 265.711 463.107 271.991 733.07 291.002C821.756 297.248 902.199 290.364 960.425 265.918C989.527 253.699 1013.04 237.111 1029.27 215.622C1045.5 194.144 1054.5 167.713 1054.5 135.717C1054.5 102.81 1042.96 66.3745 1010.68 39.9517ZM7 91.5C7 92.8807 5.88071 94 4.5 94C3.11929 94 2 92.8807 2 91.5C2 90.1193 3.11929 89 4.5 89C5.88071 89 7 90.1193 7 91.5ZM1248.5 474C1249.88 474 1251 472.881 1251 471.5C1251 470.119 1249.88 469 1248.5 469C1247.12 469 1246 470.119 1246 471.5C1246 472.881 1247.12 474 1248.5 474Z" fill="#FCD500"/>
</svg>
