<svg width="84" height="84" viewBox="0 0 84 84" fill="none" xmlns="http://www.w3.org/2000/svg">
<path opacity="0.2" d="M42 82C64.0914 82 82 64.0914 82 42C82 19.9086 64.0914 2 42 2C19.9086 2 2 19.9086 2 42C2 64.0914 19.9086 82 42 82Z" stroke="black"/>
<path fill-rule="evenodd" clip-rule="evenodd" d="M66.1365 40.1517L68.5357 42.452C69.5159 43.3914 69.5159 44.9193 68.5357 45.8596L55.5757 58.2817L49.0258 59.9935L48.5879 60.4132C48.4237 60.5706 48.2081 60.6497 47.9925 60.6497C47.7795 60.6497 47.5672 60.5706 47.4039 60.4173L47.3879 60.4213L47.3921 60.4052C47.0696 60.0896 47.0704 59.5843 47.3971 59.2712L47.8342 58.8523L49.6203 52.5738L62.5811 40.1517C63.531 39.2421 65.1866 39.2421 66.1365 40.1517ZM60.1904 44.7256L51.5647 52.9927L55.1378 56.4173L63.7635 48.1501L60.1904 44.7256ZM50.8051 54.5472L53.5167 57.1461L49.7879 58.1211L50.8051 54.5472ZM64.9542 47.0089L67.3449 44.7175C67.6683 44.4076 67.6683 43.9023 67.3449 43.5932L64.9449 41.293C64.6317 40.9919 64.0851 40.9919 63.7719 41.293L61.3811 43.5843L64.9542 47.0089Z" fill="#FCD500"/>
<path d="M28.0085 44.9886H49.9032C50.3681 44.9886 50.7453 44.6428 50.7453 44.215C50.7453 43.7873 50.3681 43.4415 49.9032 43.4415H28.0085C27.5437 43.4415 27.1664 43.7873 27.1664 44.215C27.1664 44.6428 27.5437 44.9886 28.0085 44.9886Z" fill="#FCD500"/>
<path d="M46.5348 48.2841H28.0085C27.5437 48.2841 27.1664 48.6299 27.1664 49.0576C27.1664 49.4854 27.5437 49.8312 28.0085 49.8312H46.5348C46.9997 49.8312 47.3769 49.4854 47.3769 49.0576C47.3769 48.6299 47.0005 48.2841 46.5348 48.2841Z" fill="#FCD500"/>
<path d="M28.0085 30.4607H38.9559C39.4207 30.4607 39.798 30.1149 39.798 29.6872C39.798 29.2594 39.4207 28.9136 38.9559 28.9136H28.0085C27.5437 28.9136 27.1664 29.2594 27.1664 29.6872C27.1664 30.1149 27.5437 30.4607 28.0085 30.4607Z" fill="#FCD500"/>
<path d="M38.9559 54.6738C39.4207 54.6738 39.798 54.328 39.798 53.9003C39.798 53.4725 39.4207 53.1267 38.9559 53.1267H28.0085C27.5437 53.1267 27.1664 53.4725 27.1664 53.9003C27.1664 54.328 27.5437 54.6738 28.0085 54.6738H38.9559Z" fill="#FCD500"/>
<path d="M52.4296 33.7563H28.0085C27.5437 33.7563 27.1664 34.102 27.1664 34.5298C27.1664 34.9576 27.5437 35.3033 28.0085 35.3033H52.4296C52.8944 35.3033 53.2717 34.9576 53.2717 34.5298C53.2717 34.102 52.8952 33.7563 52.4296 33.7563Z" fill="#FCD500"/>
<path d="M28.0085 40.1459H39.798C40.2628 40.1459 40.6401 39.8002 40.6401 39.3724C40.6401 38.9446 40.2628 38.5989 39.798 38.5989H28.0085C27.5437 38.5989 27.1664 38.9446 27.1664 39.3724C27.1664 39.8002 27.5437 40.1459 28.0085 40.1459Z" fill="#FCD500"/>
<path d="M50.8717 39.3724C50.8717 38.9446 50.4944 38.5989 50.0296 38.5989H44.1348C43.67 38.5989 43.2927 38.9446 43.2927 39.3724C43.2927 39.8002 43.67 40.1459 44.1348 40.1459H50.0296C50.4952 40.1459 50.8717 39.8002 50.8717 39.3724Z" fill="#FCD500"/>
<path fill-rule="evenodd" clip-rule="evenodd" d="M56.7664 64.3723H23.798V22.4568H29.6927V24.071C29.6927 24.5174 30.07 24.8781 30.5348 24.8781H49.9032C50.3681 24.8781 50.7453 24.5174 50.7453 24.071V22.4568H56.6401V40.2131C56.6401 40.6594 57.0173 41.0202 57.4822 41.0202C57.947 41.0202 58.3243 40.6594 58.3243 40.2131V21.6497C58.3243 21.2034 57.947 20.8426 57.4822 20.8426H50.7453V19.2284C50.7453 18.7821 50.3681 18.4213 49.9032 18.4213H44.8506V16.8071C44.8506 16.3608 44.4733 16 44.0085 16H36.4296C35.9647 16 35.5875 16.3608 35.5875 16.8071V18.4213H30.5348C30.07 18.4213 29.6927 18.7821 29.6927 19.2284V20.8426H22.9559C22.491 20.8426 22.1138 21.2034 22.1138 21.6497V65.1794C22.1138 65.6258 22.491 65.9865 22.9559 65.9865H56.7664C57.2312 65.9865 57.6085 65.6258 57.6085 65.1794C57.6085 64.7331 57.2321 64.3723 56.7664 64.3723ZM37.2717 17.6142H43.1664V20.8426H37.2717V17.6142ZM35.5875 20.0355H31.3769V23.2639H49.0611V20.0355H44.8506V21.6497C44.8506 22.096 44.4733 22.4568 44.0085 22.4568H36.4296C35.9647 22.4568 35.5875 22.096 35.5875 21.6497V20.0355Z" fill="#FCD500"/>
<circle cx="42" cy="42" r="40" stroke="#FCD500" stroke-width="4"/>
</svg>
