<svg width="11" height="22" viewBox="0 0 11 22" fill="none" xmlns="http://www.w3.org/2000/svg">
<path d="M7.20238 11.6625H10.4907C10.4907 13.0611 10.0979 14.1882 9.31217 15.0439C8.29365 16.1573 6.98898 16.7139 5.39815 16.7139C4.00132 16.7139 2.83245 16.2539 1.89153 15.3338C0.940917 14.4044 0.465608 13.2681 0.465608 11.9247C0.465608 10.8574 0.761464 10.0017 1.35317 9.35759C1.95459 8.70431 2.9731 8.13384 4.40873 7.64617C5.83466 7.14931 6.73677 6.74906 7.11508 6.44542C7.50309 6.14178 7.69709 5.67252 7.69709 5.03764C7.69709 4.40276 7.49339 3.9013 7.08598 3.53325C6.68827 3.156 6.15476 2.96738 5.48545 2.96738C4.81614 2.96738 4.28263 3.1514 3.88492 3.51945C3.48721 3.88749 3.28836 4.38896 3.28836 5.02384C3.28836 5.30908 3.34656 5.70473 3.46296 6.21079H0.0727513C0.053351 5.97156 0.0339506 5.75993 0.0145503 5.57591C0.00485009 5.39189 0 5.22627 0 5.07905C0 3.62526 0.518959 2.41531 1.55688 1.44918C2.5851 0.483061 3.88492 0 5.45635 0C7.03748 0 8.3567 0.487662 9.41402 1.46299C10.4713 2.43831 11 3.65747 11 5.12045C11 6.62024 10.4713 7.8302 9.41402 8.75031C8.74471 9.32999 7.48369 9.89126 5.63095 10.4341C4.36993 10.8022 3.73942 11.3818 3.73942 12.1732C3.73942 12.394 3.78307 12.6056 3.87037 12.808C3.96737 13.0013 4.09347 13.1715 4.24868 13.3187C4.40388 13.4659 4.58333 13.5809 4.78704 13.6637C5.00044 13.7465 5.22354 13.788 5.45635 13.788C6.52337 13.788 7.10538 13.0795 7.20238 11.6625ZM3.49206 20.0678C3.49206 19.5525 3.69092 19.1062 4.08862 18.729C4.48633 18.3517 4.96164 18.1631 5.51455 18.1631C6.06746 18.1631 6.54277 18.3517 6.94048 18.729C7.33818 19.1062 7.53704 19.5571 7.53704 20.0816C7.53704 20.6152 7.33818 21.0707 6.94048 21.4479C6.55247 21.816 6.08201 22 5.5291 22C4.95679 22 4.47663 21.816 4.08862 21.4479C3.69092 21.0707 3.49206 20.6106 3.49206 20.0678Z" fill="black"/>
</svg>
