<svg width="85" height="85" viewBox="0 0 85 85" fill="none" xmlns="http://www.w3.org/2000/svg">
<path opacity="0.2" d="M43 82C65.0914 82 83 64.0914 83 42C83 19.9086 65.0914 2 43 2C20.9086 2 3 19.9086 3 42C3 64.0914 20.9086 82 43 82Z" stroke="black"/>
<path d="M43.3723 54.7919L43 54.5962L42.6278 54.7919L30.5435 61.145L32.8514 47.6889L32.9225 47.2744L32.6213 46.9808L22.8449 37.4512L36.3555 35.488L36.7718 35.4275L36.9579 35.0504L43 22.8076L49.0422 35.0504L49.2283 35.4275L49.6445 35.488L63.1552 37.4512L53.3788 46.9808L53.0776 47.2744L53.1487 47.6889L55.4566 61.145L43.3723 54.7919Z" fill="white" stroke="#FCD500" stroke-width="1.6"/>
<path d="M2 42.5C2 50.5101 4.37528 58.3404 8.82548 65.0006C13.2757 71.6608 19.6009 76.8518 27.0013 79.9171C34.4017 82.9825 42.5449 83.7845 50.4012 82.2218C58.2574 80.6591 65.4738 76.8018 71.1378 71.1378C76.8019 65.4738 80.6591 58.2574 82.2218 50.4012C83.7845 42.5449 82.9825 34.4017 79.9171 27.0013C76.8518 19.6009 71.6608 13.2757 65.0006 8.82548C58.3404 4.37528 50.5102 2 42.5 2" stroke="#FCD500" stroke-width="4"/>
</svg>
